<svg width="93" height="27" viewBox="0 0 93 27" fill="none" xmlns="http://www.w3.org/2000/svg">
<g clip-path="url(#clip0_224_3417)">
<path d="M6.49636 26.4123C6.25916 26.4123 6.02769 26.4097 5.79235 26.4051C5.30483 26.3996 4.81845 26.3629 4.3372 26.2952C3.88845 26.2283 3.45374 26.1038 3.04739 25.9259C2.64478 25.7494 2.27756 25.518 1.9598 25.2406C1.63745 24.9665 1.36908 24.6485 1.16532 24.2993C0.959314 23.9478 0.816747 23.5711 0.742583 23.1823C0.662493 22.7644 0.61916 22.3419 0.61296 21.9184C0.608024 21.7763 0.601562 21.3029 0.601562 21.3029V5.73191C0.601562 5.73191 0.608445 5.26586 0.612999 5.12894C0.618936 4.70609 0.662016 4.28425 0.741867 3.86706C0.816168 3.47713 0.958845 3.09933 1.16496 2.74672C1.36797 2.39777 1.63485 2.07956 1.95527 1.80442C2.27532 1.52667 2.64371 1.29411 3.04701 1.11522C3.45242 0.937867 3.88631 0.814271 4.33415 0.748576C4.81699 0.680204 5.30506 0.643239 5.79427 0.637991L6.49674 0.629761H86.5039L87.2148 0.638321C87.6995 0.643309 88.1832 0.679944 88.6616 0.747916C89.1139 0.814435 89.5524 0.938892 89.9624 1.1172C90.7704 1.47771 91.4278 2.04808 91.8425 2.74836C92.0453 3.09854 92.1858 3.47326 92.2592 3.85982C92.34 4.28043 92.3852 4.70559 92.3945 5.1319C92.3967 5.3228 92.3967 5.52784 92.3967 5.73191C92.4029 5.98468 92.4029 6.22527 92.4029 6.46783V20.5749C92.4029 20.8198 92.4029 21.0587 92.3967 21.2996C92.3967 21.5188 92.3967 21.7196 92.3937 21.9263C92.3846 22.345 92.3402 22.7626 92.2607 23.1757C92.188 23.5673 92.0462 23.947 91.8403 24.3013C91.6351 24.6467 91.3682 24.9619 91.0496 25.2354C90.7316 25.5143 90.3637 25.747 89.9601 25.9246C89.5512 26.1039 89.1135 26.2288 88.6616 26.2952C88.1803 26.3632 87.6939 26.4 87.2064 26.4051C86.9783 26.4097 86.7396 26.4123 86.5077 26.4123L85.6638 26.4137L6.49636 26.4123Z" fill="black"/>
<path d="M22.5936 13.7244C22.601 13.1619 22.7537 12.6104 23.0376 12.1211C23.3214 11.6319 23.7272 11.2209 24.217 10.9263C23.9058 10.4915 23.4953 10.1337 23.018 9.88125C22.5407 9.62884 22.0098 9.48877 21.4675 9.47217C20.3107 9.35338 19.1893 10.1493 18.5998 10.1493C17.9989 10.1493 17.0913 9.48396 16.1139 9.50363C15.4817 9.52361 14.8656 9.70345 14.3256 10.0256C13.7856 10.3478 13.3401 10.8013 13.0326 11.342C11.7003 13.5985 12.694 16.9149 13.9703 18.7389C14.6088 19.6321 15.3551 20.6298 16.3315 20.5944C17.2871 20.5556 17.6439 19.9983 18.7974 19.9983C19.9401 19.9983 20.2749 20.5944 21.2712 20.5719C22.2965 20.5556 22.9425 19.6748 23.5586 18.7731C24.0174 18.1367 24.3704 17.4333 24.6046 16.689C24.009 16.4426 23.5006 16.03 23.143 15.5028C22.7854 14.9756 22.5943 14.3571 22.5936 13.7244V13.7244Z" fill="white"/>
<path d="M20.7116 8.27254C21.2707 7.61601 21.5461 6.77215 21.4794 5.92017C20.6253 6.00792 19.8363 6.40726 19.2697 7.0386C18.9927 7.34703 18.7805 7.70584 18.6453 8.09453C18.5101 8.48323 18.4546 8.89417 18.4818 9.30388C18.909 9.30819 19.3317 9.2176 19.7179 9.03896C20.1042 8.86031 20.4439 8.59826 20.7116 8.27254Z" fill="white"/>
<path d="M34.6721 18.3331H31.4113L30.6282 20.5951H29.2471L32.3356 12.2264H33.7706L36.8591 20.5951H35.4545L34.6721 18.3331ZM31.749 17.2894H34.3337L33.0595 13.6184H33.0239L31.749 17.2894Z" fill="white"/>
<path d="M43.5294 17.5447C43.5294 19.4408 42.492 20.6589 40.9265 20.6589C40.53 20.6792 40.1356 20.5899 39.7885 20.4011C39.4415 20.2123 39.1558 19.9317 38.9642 19.5914H38.9345V22.6135H37.6543V14.4937H38.8935V15.5085H38.9171C39.1175 15.1699 39.408 14.8907 39.7577 14.7008C40.1074 14.5109 40.5032 14.4172 40.903 14.4298C42.4859 14.4298 43.5294 15.6539 43.5294 17.5447ZM42.2135 17.5447C42.2135 16.3094 41.5609 15.4973 40.5653 15.4973C39.5871 15.4973 38.9292 16.3265 38.9292 17.5447C38.9292 18.7741 39.5871 19.5974 40.5653 19.5974C41.5609 19.5974 42.2135 18.7912 42.2135 17.5447Z" fill="white"/>
<path d="M50.3941 17.5447C50.3941 19.4408 49.3568 20.6589 47.7913 20.6589C47.3947 20.6792 47.0003 20.5899 46.6533 20.4011C46.3062 20.2123 46.0205 19.9317 45.8289 19.5914H45.7993V22.6135H44.519V14.4937H45.7582V15.5085H45.7818C45.9822 15.1699 46.2727 14.8907 46.6224 14.7008C46.9721 14.5109 47.3679 14.4172 47.7677 14.4298C49.3507 14.4298 50.3941 15.6539 50.3941 17.5447ZM49.0782 17.5447C49.0782 16.3094 48.4257 15.4973 47.43 15.4973C46.4519 15.4973 45.7939 16.3265 45.7939 17.5447C45.7939 18.7741 46.4519 19.5974 47.43 19.5974C48.4257 19.5974 49.0782 18.7912 49.0782 17.5447H49.0782Z" fill="white"/>
<path d="M54.9311 18.2634C55.026 19.0933 55.8501 19.6382 56.9763 19.6382C58.0554 19.6382 58.8317 19.0933 58.8317 18.345C58.8317 17.6954 58.3635 17.3065 57.2548 17.0399L56.1461 16.7786C54.5753 16.4075 53.846 15.6888 53.846 14.5226C53.846 13.0787 55.1323 12.0869 56.9588 12.0869C58.7664 12.0869 60.0056 13.0787 60.0473 14.5226H58.755C58.6776 13.6875 57.9719 13.1833 56.9406 13.1833C55.9093 13.1833 55.2036 13.6934 55.2036 14.4357C55.2036 15.0274 55.6543 15.3755 56.7569 15.642L57.6994 15.8684C59.4546 16.2745 60.1839 16.9642 60.1839 18.1883C60.1839 19.754 58.909 20.7346 56.8814 20.7346C54.9843 20.7346 53.7034 19.777 53.6206 18.2633L54.9311 18.2634Z" fill="white"/>
<path d="M62.9466 13.0498V14.4937H64.1326V15.4855H62.9466V18.8491C62.9466 19.3717 63.184 19.6152 63.7054 19.6152C63.8462 19.6128 63.9868 19.6031 64.1265 19.5862V20.5721C63.8921 20.6149 63.6539 20.6343 63.4155 20.63C62.1527 20.63 61.6603 20.166 61.6603 18.9827V15.4855H60.7534V14.4937H61.6603V13.0498H62.9466Z" fill="white"/>
<path d="M64.8198 17.5448C64.8198 15.625 65.9756 14.4187 67.7779 14.4187C69.5862 14.4187 70.7366 15.625 70.7366 17.5448C70.7366 19.4698 69.5923 20.6708 67.7779 20.6708C65.9641 20.6708 64.8198 19.4698 64.8198 17.5448ZM69.4321 17.5448C69.4321 16.2279 68.8152 15.4506 67.7779 15.4506C66.7405 15.4506 66.1243 16.2338 66.1243 17.5448C66.1243 18.8669 66.7405 19.6382 67.7779 19.6382C68.8152 19.6382 69.4321 18.8669 69.4321 17.5448H69.4321Z" fill="white"/>
<path d="M71.792 14.4937H73.013V15.5322H73.0426C73.1253 15.2079 73.3195 14.9213 73.5927 14.7205C73.8659 14.5198 74.2014 14.4171 74.5429 14.4299C74.6904 14.4294 74.8375 14.4451 74.9815 14.4766V15.6481C74.7952 15.5924 74.6009 15.5668 74.4063 15.5724C74.2203 15.565 74.0349 15.5971 73.8628 15.6664C73.6906 15.7358 73.5359 15.8407 73.4092 15.9741C73.2824 16.1074 73.1867 16.266 73.1285 16.439C73.0704 16.612 73.0512 16.7952 73.0722 16.9762V20.5951H71.792L71.792 14.4937Z" fill="white"/>
<path d="M80.884 18.8031C80.7117 19.9107 79.6091 20.6708 78.1984 20.6708C76.384 20.6708 75.2578 19.4816 75.2578 17.5737C75.2578 15.6599 76.39 14.4187 78.1445 14.4187C79.8701 14.4187 80.9553 15.5783 80.9553 17.4283V17.8574H76.5502V17.933C76.5298 18.1576 76.5586 18.3838 76.6345 18.5967C76.7104 18.8095 76.8317 19.0041 76.9904 19.1676C77.1491 19.331 77.3415 19.4596 77.5549 19.5447C77.7682 19.6298 77.9977 19.6696 78.228 19.6613C78.5305 19.689 78.8341 19.6205 79.0936 19.4658C79.3531 19.3112 79.5547 19.0788 79.6683 18.8031L80.884 18.8031ZM76.5562 16.9821H79.6744C79.6859 16.7802 79.6546 16.5781 79.5825 16.3886C79.5103 16.1991 79.399 16.0262 79.2553 15.8808C79.1117 15.7354 78.9389 15.6206 78.7477 15.5436C78.5566 15.4667 78.3512 15.4292 78.1445 15.4335C77.9361 15.4323 77.7294 15.4715 77.5365 15.5488C77.3436 15.6261 77.1682 15.7401 77.0205 15.884C76.8729 16.028 76.7558 16.1992 76.6761 16.3876C76.5964 16.5761 76.5557 16.7781 76.5562 16.9821V16.9821Z" fill="white"/>
<path d="M31.5887 5.92741C31.8571 5.90857 32.1265 5.94824 32.3773 6.04355C32.6281 6.13887 32.8542 6.28745 33.0393 6.47859C33.2243 6.66973 33.3636 6.89866 33.4473 7.14886C33.5309 7.39906 33.5567 7.66431 33.5229 7.92546C33.5229 9.21011 32.8131 9.94855 31.5887 9.94855H30.104V5.92741H31.5887ZM30.7424 9.37987H31.5174C31.7092 9.39109 31.9012 9.36032 32.0793 9.28982C32.2574 9.21932 32.4172 9.11086 32.547 8.97232C32.6769 8.83379 32.7735 8.66867 32.8299 8.489C32.8863 8.30932 32.901 8.1196 32.873 7.93365C32.899 7.74844 32.8828 7.5599 32.8255 7.38154C32.7682 7.20318 32.6714 7.03941 32.5418 6.90198C32.4123 6.76455 32.2532 6.65685 32.0761 6.58661C31.899 6.51636 31.7082 6.48531 31.5174 6.49566H30.7424V9.37987Z" fill="white"/>
<path d="M34.2442 8.42986C34.2247 8.23044 34.248 8.02923 34.3127 7.83914C34.3773 7.64905 34.4819 7.47428 34.6196 7.32603C34.7574 7.17778 34.9252 7.05933 35.1125 6.97827C35.2998 6.89722 35.5023 6.85535 35.7071 6.85535C35.9119 6.85535 36.1144 6.89722 36.3017 6.97827C36.489 7.05933 36.6569 7.17778 36.7946 7.32603C36.9323 7.47428 37.0369 7.64905 37.1015 7.83914C37.1662 8.02923 37.1895 8.23044 37.17 8.42986C37.1899 8.62949 37.1668 8.83098 37.1023 9.02138C37.0379 9.21177 36.9334 9.38687 36.7956 9.53541C36.6578 9.68395 36.4898 9.80265 36.3024 9.88388C36.1149 9.96511 35.9121 10.0071 35.7071 10.0071C35.5021 10.0071 35.2993 9.96511 35.1119 9.88388C34.9244 9.80265 34.7564 9.68395 34.6186 9.53541C34.4808 9.38687 34.3763 9.21177 34.3119 9.02138C34.2474 8.83098 34.2244 8.62949 34.2442 8.42986V8.42986ZM36.5403 8.42986C36.5403 7.77208 36.2382 7.38741 35.7081 7.38741C35.176 7.38741 34.8766 7.77208 34.8766 8.42987C34.8766 9.09293 35.176 9.47463 35.7081 9.47463C36.2382 9.47463 36.5403 9.09029 36.5403 8.42986H36.5403Z" fill="white"/>
<path d="M41.059 9.9484H40.4239L39.7828 7.71343H39.7343L39.0959 9.9484H38.4669L37.6118 6.91382H38.2328L38.7884 9.22938H38.8342L39.472 6.91382H40.0593L40.697 9.22938H40.7455L41.2985 6.91382H41.9106L41.059 9.9484Z" fill="white"/>
<path d="M42.6299 6.91386H43.2192V7.39593H43.265C43.3426 7.22279 43.4735 7.07764 43.6394 6.98073C43.8053 6.88382 43.998 6.83996 44.1907 6.85528C44.3416 6.84418 44.4931 6.86644 44.6341 6.92042C44.775 6.9744 44.9018 7.05871 45.0049 7.1671C45.108 7.2755 45.1849 7.4052 45.2298 7.5466C45.2747 7.688 45.2865 7.83748 45.2644 7.98395V9.94841H44.6522V8.13434C44.6522 7.64668 44.4355 7.40416 43.9828 7.40416C43.8803 7.39949 43.778 7.41655 43.6829 7.45418C43.5878 7.4918 43.5021 7.5491 43.4318 7.62214C43.3614 7.69518 43.308 7.78224 43.2753 7.87735C43.2426 7.97246 43.2312 8.07337 43.2421 8.17317V9.94844H42.6299L42.6299 6.91386Z" fill="white"/>
<path d="M46.2397 5.72925H46.8519V9.94844H46.2397V5.72925Z" fill="white"/>
<path d="M47.7027 8.4298C47.6832 8.23036 47.7066 8.02914 47.7712 7.83904C47.8359 7.64894 47.9404 7.47417 48.0782 7.32591C48.2159 7.17766 48.3838 7.05921 48.5711 6.97815C48.7584 6.8971 48.961 6.85522 49.1658 6.85522C49.3706 6.85522 49.5731 6.8971 49.7604 6.97815C49.9477 7.05921 50.1156 7.17766 50.2533 7.32591C50.3911 7.47417 50.4956 7.64894 50.5603 7.83904C50.625 8.02914 50.6483 8.23036 50.6288 8.4298C50.6487 8.62943 50.6256 8.83092 50.5611 9.02132C50.4966 9.21171 50.3921 9.3868 50.2543 9.53534C50.1165 9.68388 49.9485 9.80257 49.761 9.8838C49.5736 9.96502 49.3708 10.007 49.1658 10.007C48.9607 10.007 48.758 9.96502 48.5705 9.8838C48.383 9.80257 48.215 9.68388 48.0772 9.53534C47.9394 9.3868 47.8349 9.21171 47.7704 9.02132C47.7059 8.83092 47.6829 8.62943 47.7027 8.4298V8.4298ZM49.9988 8.4298C49.9988 7.77201 49.6967 7.38734 49.1666 7.38734C48.6345 7.38734 48.3351 7.77201 48.3351 8.4298C48.3351 9.09286 48.6345 9.47456 49.1666 9.47456C49.6967 9.47456 49.9988 9.09022 49.9988 8.4298H49.9988Z" fill="white"/>
<path d="M51.2734 9.09031C51.2734 8.54407 51.6892 8.22917 52.4272 8.18441L53.2675 8.13703V7.8751C53.2675 7.55459 53.0508 7.37361 52.6324 7.37361C52.2906 7.37361 52.0538 7.49635 51.9859 7.7109H51.3932C51.4558 7.18967 51.957 6.85535 52.6606 6.85535C53.4383 6.85535 53.877 7.23409 53.877 7.8751V9.9485H53.2876V9.52204H53.2392C53.1409 9.67501 53.0028 9.79972 52.8391 9.88343C52.6754 9.96713 52.492 10.0068 52.3074 9.9985C52.1772 10.0117 52.0456 9.99816 51.9211 9.9586C51.7966 9.91904 51.6819 9.8544 51.5845 9.76883C51.487 9.68326 51.409 9.57868 51.3555 9.46181C51.3019 9.34494 51.274 9.21839 51.2734 9.09031V9.09031ZM53.2675 8.83101V8.57731L52.5099 8.62469C52.0828 8.65266 51.889 8.79481 51.889 9.06234C51.889 9.33545 52.1312 9.49439 52.4642 9.49439C52.5618 9.50405 52.6604 9.49441 52.7541 9.46605C52.8478 9.43768 52.9347 9.39117 53.0096 9.32928C53.0845 9.26739 53.146 9.19138 53.1903 9.10578C53.2346 9.02018 53.2608 8.92673 53.2675 8.83101V8.83101Z" fill="white"/>
<path d="M54.6816 8.42985C54.6816 7.47097 55.1855 6.86352 55.9693 6.86352C56.1631 6.85479 56.3555 6.90021 56.524 6.99449C56.6924 7.08876 56.83 7.228 56.9205 7.39592H56.9663V5.72925H57.5785V9.94844H56.9918V9.469H56.9434C56.8459 9.63579 56.7035 9.77329 56.5318 9.86661C56.3601 9.95994 56.1656 10.0055 55.9693 9.99845C55.1801 9.99849 54.6816 9.39103 54.6816 8.42985ZM55.314 8.42985C55.314 9.07349 55.6242 9.46079 56.1429 9.46079C56.6588 9.46079 56.9777 9.0679 56.9777 8.43248C56.9777 7.80003 56.6555 7.40154 56.1429 7.40154C55.6275 7.40154 55.314 7.79147 55.314 8.42985H55.314Z" fill="white"/>
<path d="M60.1114 8.42986C60.0919 8.23044 60.1152 8.02923 60.1799 7.83914C60.2445 7.64905 60.3491 7.47428 60.4868 7.32603C60.6245 7.17778 60.7924 7.05933 60.9797 6.97827C61.167 6.89722 61.3695 6.85535 61.5743 6.85535C61.7791 6.85535 61.9816 6.89722 62.1689 6.97827C62.3562 7.05933 62.524 7.17778 62.6618 7.32603C62.7995 7.47428 62.9041 7.64905 62.9687 7.83914C63.0333 8.02923 63.0567 8.23044 63.0372 8.42986C63.057 8.62949 63.034 8.83098 62.9695 9.02138C62.905 9.21177 62.8006 9.38687 62.6628 9.53541C62.525 9.68395 62.357 9.80265 62.1695 9.88388C61.9821 9.96511 61.7793 10.0071 61.5743 10.0071C61.3693 10.0071 61.1665 9.96511 60.979 9.88388C60.7916 9.80265 60.6236 9.68395 60.4858 9.53541C60.348 9.38687 60.2435 9.21177 60.1791 9.02138C60.1146 8.83098 60.0915 8.62949 60.1114 8.42986V8.42986ZM62.4075 8.42986C62.4075 7.77208 62.1054 7.38741 61.5753 7.38741C61.0432 7.38741 60.7438 7.77208 60.7438 8.42987C60.7438 9.09293 61.0432 9.47463 61.5753 9.47463C62.1054 9.47463 62.4075 9.09029 62.4075 8.42986Z" fill="white"/>
<path d="M63.8584 6.91386H64.4477V7.39593H64.4935C64.5711 7.22279 64.702 7.07764 64.8679 6.98073C65.0338 6.88382 65.2265 6.83996 65.4192 6.85528C65.5701 6.84418 65.7216 6.86644 65.8626 6.92042C66.0035 6.9744 66.1303 7.05871 66.2334 7.1671C66.3365 7.2755 66.4134 7.4052 66.4583 7.5466C66.5032 7.688 66.515 7.83748 66.4928 7.98395V9.94841H65.8807V8.13434C65.8807 7.64668 65.664 7.40416 65.2113 7.40416C65.1088 7.39949 65.0065 7.41655 64.9114 7.45418C64.8163 7.4918 64.7306 7.5491 64.6603 7.62214C64.5899 7.69518 64.5365 7.78224 64.5038 7.87735C64.4711 7.97246 64.4597 8.07337 64.4706 8.17317V9.94844H63.8584V6.91386Z" fill="white"/>
<path d="M69.952 6.15833V6.92766H70.6241V7.43212H69.952V8.99251C69.952 9.31039 70.0859 9.44958 70.3906 9.44958C70.4686 9.44933 70.5466 9.44472 70.6241 9.43575V9.9346C70.5141 9.95385 70.4027 9.96408 70.2911 9.96521C69.6102 9.96521 69.3391 9.73091 69.3391 9.14585V7.43209H68.8467V6.92764H69.3391V6.15833H69.952Z" fill="white"/>
<path d="M71.4604 5.72925H72.0673V7.40153H72.1157C72.1971 7.22677 72.3316 7.08081 72.5008 6.98353C72.6701 6.88625 72.8659 6.84239 73.0615 6.85792C73.2117 6.84993 73.3618 6.87445 73.5011 6.92974C73.6405 6.98503 73.7657 7.06973 73.8677 7.17778C73.9697 7.28583 74.0461 7.41459 74.0915 7.55485C74.1368 7.69511 74.1499 7.84343 74.1299 7.98923V9.94845H73.5171V8.13697C73.5171 7.65227 73.2863 7.40679 72.8537 7.40679C72.7485 7.39834 72.6427 7.4125 72.5436 7.44825C72.4446 7.484 72.3547 7.54049 72.2803 7.61377C72.2059 7.68705 72.1488 7.77535 72.1129 7.87249C72.0771 7.96962 72.0633 8.07325 72.0727 8.17613V9.94844H71.4605L71.4604 5.72925Z" fill="white"/>
<path d="M77.6995 9.12907C77.6163 9.40641 77.4361 9.64632 77.1904 9.80681C76.9447 9.9673 76.6491 10.0382 76.3553 10.007C76.151 10.0123 75.9479 9.97398 75.7602 9.89478C75.5724 9.81558 75.4046 9.69736 75.2682 9.54833C75.1319 9.3993 75.0304 9.22304 74.9706 9.03176C74.9109 8.84049 74.8945 8.6388 74.9224 8.44068C74.8952 8.24196 74.9119 8.03983 74.9715 7.84798C75.0311 7.65614 75.1321 7.47906 75.2677 7.32872C75.4034 7.17839 75.5704 7.05832 75.7576 6.97664C75.9448 6.89495 76.1477 6.85357 76.3527 6.85528C77.2158 6.85528 77.7365 7.43214 77.7365 8.38506V8.59403H75.546V8.62759C75.5364 8.73895 75.5508 8.85105 75.588 8.95668C75.6253 9.06232 75.6848 9.15917 75.7625 9.24102C75.8403 9.32287 75.9347 9.38791 76.0397 9.43199C76.1447 9.47606 76.2579 9.49818 76.3722 9.49694C76.5186 9.51414 76.667 9.48834 76.7984 9.42283C76.9298 9.35733 77.0383 9.25506 77.1102 9.12905L77.6995 9.12907ZM75.546 8.15111H77.1128C77.1206 8.04926 77.1064 7.94696 77.0713 7.85078C77.0362 7.7546 76.9809 7.66667 76.909 7.59264C76.8371 7.5186 76.7501 7.4601 76.6538 7.4209C76.5574 7.38169 76.4536 7.36265 76.3493 7.36499C76.2434 7.36369 76.1383 7.38314 76.0402 7.42219C75.9422 7.46124 75.8531 7.5191 75.7782 7.59236C75.7034 7.66562 75.6442 7.75281 75.6044 7.84877C75.5645 7.94473 75.5447 8.04753 75.546 8.15111H75.546Z" fill="white"/>
</g>
<defs>
<clipPath id="clip0_224_3417">
<rect width="93" height="26.9565" fill="white" transform="translate(0 0.043457)"/>
</clipPath>
</defs>
</svg>
