<svg width="1439" height="463" viewBox="0 0 1439 463" fill="none" xmlns="http://www.w3.org/2000/svg">
<path d="M350.368 249.08V238.04H353.728L356.788 246.44C358.468 247.04 360.568 247.34 363.088 247.34C365.808 247.34 368.148 246.86 370.108 245.9C372.108 244.94 373.108 243.52 373.108 241.64C373.108 241.2 373.048 240.78 372.928 240.38C372.848 239.98 372.688 239.6 372.448 239.24C372.208 238.88 371.968 238.56 371.728 238.28C371.488 237.96 371.128 237.64 370.648 237.32C370.168 236.96 369.748 236.68 369.388 236.48C369.028 236.24 368.488 235.94 367.768 235.58C367.088 235.22 365.868 234.62 364.108 233.78L361.948 232.76C357.988 230.84 355.148 228.84 353.428 226.76C351.708 224.64 350.848 222.04 350.848 218.96C350.848 215.68 352.208 213.06 354.928 211.1C357.648 209.1 361.168 208.1 365.488 208.1C370.328 208.1 374.688 208.72 378.568 209.96V221H375.208L372.268 212.96C370.628 212.6 369.048 212.42 367.528 212.42C365.168 212.42 363.148 212.84 361.468 213.68C359.788 214.48 358.948 215.66 358.948 217.22C358.948 218.62 359.608 219.8 360.928 220.76C362.288 221.68 364.688 222.9 368.128 224.42L369.328 224.96C373.408 226.8 376.408 228.84 378.328 231.08C380.248 233.32 381.208 236.04 381.208 239.24C381.208 242.24 380.448 244.7 378.928 246.62C377.448 248.5 375.488 249.86 373.048 250.7C370.608 251.5 367.828 251.9 364.708 251.9C359.748 251.9 354.968 250.96 350.368 249.08ZM385.68 235.64C385.68 230.92 387 227.16 389.64 224.36C392.32 221.52 395.94 220.1 400.5 220.1C405.14 220.1 408.64 221.68 411 224.84C413.4 228 414.6 231.9 414.6 236.54H394.92C395.2 239.5 396.26 242.06 398.1 244.22C399.94 246.34 402.3 247.4 405.18 247.4C407.34 247.4 409.66 246.94 412.14 246.02L413.4 249.44C409.68 251.08 406.04 251.9 402.48 251.9C397.32 251.9 393.22 250.4 390.18 247.4C387.18 244.36 385.68 240.44 385.68 235.64ZM394.92 232.82L405.06 232.16C405.06 231.2 405 230.32 404.88 229.52C404.76 228.68 404.42 227.68 403.86 226.52C402.86 224.84 401.68 224 400.32 224C398.72 224 397.4 224.82 396.36 226.46C395.76 227.46 395.36 228.56 395.16 229.76C394.96 230.96 394.88 231.98 394.92 232.82ZM418.075 251V247.82L423.175 246.62V226.46H418.075V223.28L427.675 221H432.415V224.6C435.415 221.6 438.975 220.1 443.095 220.1C443.335 220.86 443.455 221.7 443.455 222.62C443.455 224.46 443.255 226.18 442.855 227.78L435.295 226.52C434.335 226.96 433.375 227.6 432.415 228.44V246.62L438.715 247.82V251H418.075ZM444.043 224.18V221H462.403V224.18L458.323 225.14L464.383 239.48L470.323 225.2L466.363 224.18V221H479.383V224.18L474.343 225.5L463.663 251.42H459.463L448.363 225.44L444.043 224.18ZM480.888 251V247.82L485.988 246.62V226.46H480.888V223.28L490.488 221H495.228V246.62L500.328 247.82V251H480.888ZM485.028 211.76C485.028 210.2 485.568 208.9 486.648 207.86C487.728 206.78 489.048 206.24 490.608 206.24C492.208 206.24 493.528 206.78 494.568 207.86C495.648 208.9 496.188 210.2 496.188 211.76C496.188 213.36 495.648 214.7 494.568 215.78C493.528 216.86 492.208 217.4 490.608 217.4C489.048 217.4 487.728 216.86 486.648 215.78C485.568 214.7 485.028 213.36 485.028 211.76ZM502.925 235.88C502.925 231.24 504.445 227.46 507.485 224.54C510.565 221.58 514.185 220.1 518.345 220.1C521.825 220.1 525.245 220.94 528.605 222.62C528.485 225.94 527.025 228.38 524.225 229.94L519.065 224H518.705C517.025 224.48 515.545 225.72 514.265 227.72C512.985 229.68 512.345 232.44 512.345 236C512.305 240 513.205 243 515.045 245C516.765 246.64 519.005 247.46 521.765 247.46C522.925 247.46 524.045 247.36 525.125 247.16C526.245 246.96 527.385 246.68 528.545 246.32L529.265 249.86C526.025 251.22 522.705 251.9 519.305 251.9C514.785 251.9 510.925 250.46 507.725 247.58C504.525 244.7 502.925 240.8 502.925 235.88ZM532.047 235.64C532.047 230.92 533.367 227.16 536.007 224.36C538.687 221.52 542.307 220.1 546.867 220.1C551.507 220.1 555.007 221.68 557.367 224.84C559.767 228 560.967 231.9 560.967 236.54H541.287C541.567 239.5 542.627 242.06 544.467 244.22C546.307 246.34 548.667 247.4 551.547 247.4C553.707 247.4 556.027 246.94 558.507 246.02L559.767 249.44C556.047 251.08 552.407 251.9 548.847 251.9C543.687 251.9 539.587 250.4 536.547 247.4C533.547 244.36 532.047 240.44 532.047 235.64ZM541.287 232.82L551.427 232.16C551.427 231.2 551.367 230.32 551.247 229.52C551.127 228.68 550.787 227.68 550.227 226.52C549.227 224.84 548.047 224 546.687 224C545.087 224 543.767 224.82 542.727 226.46C542.127 227.46 541.727 228.56 541.527 229.76C541.327 230.96 541.247 231.98 541.287 232.82ZM907.279 251V247.64L912.799 246.32V213.68L907.279 212.36V209H928.099V212.36L922.579 213.68V246.32L928.099 247.64V251H907.279ZM931.884 251V247.82L936.984 246.62V226.46H931.884V223.28L941.484 221H946.224V223.94C948.664 221.38 951.684 220.1 955.284 220.1C956.844 220.1 958.244 220.34 959.484 220.82C960.764 221.26 961.824 221.9 962.664 222.74C963.544 223.58 964.224 224.58 964.704 225.74C965.184 226.9 965.424 228.16 965.424 229.52V246.62L970.524 247.82V251H952.284V247.82L956.184 246.62V231.2C956.184 229.96 956.104 228.96 955.944 228.2C955.824 227.44 955.604 226.86 955.284 226.46C954.964 226.02 954.524 225.74 953.964 225.62C953.444 225.46 952.784 225.38 951.984 225.38C950.464 225.38 948.544 226.26 946.224 228.02V246.62L950.124 247.82V251H931.884ZM972.964 235.88C972.964 231.24 974.484 227.46 977.524 224.54C980.604 221.58 984.224 220.1 988.384 220.1C991.864 220.1 995.284 220.94 998.644 222.62C998.524 225.94 997.064 228.38 994.264 229.94L989.104 224H988.744C987.064 224.48 985.584 225.72 984.304 227.72C983.024 229.68 982.384 232.44 982.384 236C982.344 240 983.244 243 985.084 245C986.804 246.64 989.044 247.46 991.804 247.46C992.964 247.46 994.084 247.36 995.164 247.16C996.284 246.96 997.424 246.68 998.584 246.32L999.304 249.86C996.064 251.22 992.744 251.9 989.344 251.9C984.824 251.9 980.964 250.46 977.764 247.58C974.564 244.7 972.964 240.8 972.964 235.88ZM1001.36 251V247.82L1006.46 246.62V208.46H1001.36V205.28L1010.96 203H1015.7V246.62L1020.8 247.82V251H1001.36ZM1022.21 224.18V221H1036.55V241.7C1036.55 243.74 1036.79 245.16 1037.27 245.96C1037.79 246.72 1038.81 247.1 1040.33 247.1C1041.49 247.1 1042.69 246.8 1043.93 246.2C1045.17 245.6 1046.17 244.8 1046.93 243.8V225.38L1043.03 224.18V221H1056.23V246.5H1060.91V249.08C1060.03 249.68 1059.31 250.12 1058.75 250.4C1058.23 250.64 1057.63 250.88 1056.95 251.12C1056.31 251.4 1055.63 251.6 1054.91 251.72C1054.23 251.84 1053.59 251.9 1052.99 251.9C1050.11 251.9 1048.09 250.6 1046.93 248C1044.09 250.6 1040.61 251.9 1036.49 251.9C1030.37 251.9 1027.31 248.76 1027.31 242.48V225.38L1022.21 224.18ZM1064.21 250.52V241.94H1067.57L1069.73 247.88C1071.17 247.96 1072.31 248 1073.15 248C1077.83 248 1080.17 246.98 1080.17 244.94C1080.17 244.1 1079.75 243.38 1078.91 242.78C1078.07 242.14 1077.27 241.64 1076.51 241.28C1075.75 240.92 1074.31 240.28 1072.19 239.36C1069.43 238.16 1067.41 236.8 1066.13 235.28C1064.89 233.72 1064.27 231.72 1064.27 229.28C1064.27 226.28 1065.47 224 1067.87 222.44C1070.31 220.88 1073.49 220.1 1077.41 220.1C1080.97 220.1 1084.03 220.48 1086.59 221.24V229.4H1083.47L1081.61 224.12C1080.41 223.92 1079.21 223.82 1078.01 223.82C1074.17 223.82 1072.25 224.76 1072.25 226.64C1072.25 227.12 1072.43 227.62 1072.79 228.14C1073.15 228.66 1073.79 229.18 1074.71 229.7C1075.67 230.22 1077.17 230.92 1079.21 231.8C1082.85 233.44 1085.31 235.04 1086.59 236.6C1087.87 238.12 1088.51 240.18 1088.51 242.78C1088.51 245.74 1087.29 248 1084.85 249.56C1082.41 251.12 1079.17 251.9 1075.13 251.9C1071.33 251.9 1067.69 251.44 1064.21 250.52Z" fill="black"/>
<path d="M576.962 251V247.64L582.662 246.26L584.522 213.62L579.242 212.36L579.362 209H594.242L606.602 237.62L619.442 209H633.962V212.36L628.622 213.62L630.722 246.32L636.482 247.64V251H615.422V247.64L620.702 246.38L619.082 221.18L605.642 251.3H601.742L588.722 221L587.342 246.38L592.682 247.64V251H576.962ZM639.091 243.56C639.091 240.08 640.511 237.44 643.351 235.64C646.231 233.8 650.871 232.88 657.271 232.88V231.08C657.271 229.88 657.251 229.02 657.211 228.5C657.211 227.94 657.131 227.28 656.971 226.52C656.811 225.76 656.571 225.22 656.251 224.9C655.971 224.58 655.531 224.3 654.931 224.06C654.331 223.78 653.591 223.64 652.711 223.64L645.091 230.24C642.371 228.68 641.011 226.26 641.011 222.98L642.811 222.2C643.571 221.88 645.051 221.46 647.251 220.94C649.451 220.38 651.591 220.1 653.671 220.1C662.271 220.1 666.571 223.54 666.571 230.42V246.5H671.251V249.08C671.051 249.28 670.771 249.54 670.411 249.86C670.051 250.18 669.271 250.6 668.071 251.12C666.871 251.64 665.631 251.9 664.351 251.9C661.311 251.9 659.051 250.88 657.571 248.84C654.891 250.88 651.971 251.9 648.811 251.9C646.051 251.9 643.731 251.2 641.851 249.8C640.011 248.4 639.091 246.32 639.091 243.56ZM648.751 243.02C648.751 244.18 649.131 245.1 649.891 245.78C650.691 246.46 651.651 246.8 652.771 246.8C654.571 246.8 656.071 246.14 657.271 244.82V236.6C655.031 236.6 653.051 237.2 651.331 238.4C649.611 239.56 648.751 241.1 648.751 243.02ZM673.427 251V247.82L678.527 246.62V226.46H673.427V223.28L683.027 221H687.767V224.6C690.767 221.6 694.327 220.1 698.447 220.1C698.687 220.86 698.807 221.7 698.807 222.62C698.807 224.46 698.607 226.18 698.207 227.78L690.647 226.52C689.687 226.96 688.727 227.6 687.767 228.44V246.62L694.067 247.82V251H673.427ZM700.535 251V247.82L705.635 246.62V208.46H700.535V205.28L710.135 203H714.875V246.62L718.775 247.82V251H700.535ZM715.955 236.54L726.515 225.08L722.915 224.18V221H737.015V224.18L731.555 225.32L724.655 232.94L733.115 246.68L737.915 247.82V251H724.715L715.955 236.54ZM739 235.64C739 230.92 740.32 227.16 742.96 224.36C745.64 221.52 749.26 220.1 753.82 220.1C758.46 220.1 761.96 221.68 764.32 224.84C766.72 228 767.92 231.9 767.92 236.54H748.24C748.52 239.5 749.58 242.06 751.42 244.22C753.26 246.34 755.62 247.4 758.5 247.4C760.66 247.4 762.98 246.94 765.46 246.02L766.72 249.44C763 251.08 759.36 251.9 755.8 251.9C750.64 251.9 746.54 250.4 743.5 247.4C740.5 244.36 739 240.44 739 235.64ZM748.24 232.82L758.38 232.16C758.38 231.2 758.32 230.32 758.2 229.52C758.08 228.68 757.74 227.68 757.18 226.52C756.18 224.84 755 224 753.64 224C752.04 224 750.72 224.82 749.68 226.46C749.08 227.46 748.68 228.56 748.48 229.76C748.28 230.96 748.2 231.98 748.24 232.82ZM771.276 225.2V222.8L781.476 215.54H783.696V221.3L791.136 221V225.2H783.696V242.36C783.696 244.32 783.916 245.7 784.356 246.5C784.796 247.3 785.696 247.7 787.056 247.7C788.056 247.7 789.396 247.34 791.076 246.62L792.036 249.98C789.636 251.26 787.096 251.9 784.416 251.9C777.776 251.9 774.456 248.82 774.456 242.66V225.2H771.276ZM794.071 251V247.82L799.171 246.62V226.46H794.071V223.28L803.671 221H808.411V246.62L813.511 247.82V251H794.071ZM798.211 211.76C798.211 210.2 798.751 208.9 799.831 207.86C800.911 206.78 802.231 206.24 803.791 206.24C805.391 206.24 806.711 206.78 807.751 207.86C808.831 208.9 809.371 210.2 809.371 211.76C809.371 213.36 808.831 214.7 807.751 215.78C806.711 216.86 805.391 217.4 803.791 217.4C802.231 217.4 800.911 216.86 799.831 215.78C798.751 214.7 798.211 213.36 798.211 211.76ZM816.22 251V247.82L821.32 246.62V226.46H816.22V223.28L825.82 221H830.56V223.94C833 221.38 836.02 220.1 839.62 220.1C841.18 220.1 842.58 220.34 843.82 220.82C845.1 221.26 846.16 221.9 847 222.74C847.88 223.58 848.56 224.58 849.04 225.74C849.52 226.9 849.76 228.16 849.76 229.52V246.62L854.86 247.82V251H836.62V247.82L840.52 246.62V231.2C840.52 229.96 840.44 228.96 840.28 228.2C840.16 227.44 839.94 226.86 839.62 226.46C839.3 226.02 838.86 225.74 838.3 225.62C837.78 225.46 837.12 225.38 836.32 225.38C834.8 225.38 832.88 226.26 830.56 228.02V246.62L834.46 247.82V251H816.22ZM855.74 260.12C855.74 256.92 857.52 254.38 861.08 252.5C860 251.74 859.14 250.76 858.5 249.56C858.26 249.08 858.06 248.52 857.9 247.88C857.78 247.24 857.76 246.58 857.84 245.9L864.74 239.96C862.66 239.04 861.04 237.8 859.88 236.24C858.72 234.64 858.14 232.88 858.14 230.96C858.14 228.08 859.5 225.64 862.22 223.64C864.94 221.6 868.38 220.58 872.54 220.58C876.14 220.58 879.26 221.38 881.9 222.98L891.26 219.5C891.74 220.46 891.98 221.52 891.98 222.68C891.98 224.04 891.9 225.06 891.74 225.74H885.14C886.42 227.42 887.06 229.16 887.06 230.96C887.06 233.92 885.74 236.4 883.1 238.4C880.5 240.36 876.98 241.34 872.54 241.34C871.1 241.34 870.04 241.32 869.36 241.28L866.72 244.94C867.2 245.74 867.86 246.24 868.7 246.44C869.54 246.6 870.96 246.68 872.96 246.68H877.34C881.3 246.68 884.34 247.56 886.46 249.32C888.62 251.08 889.7 253.54 889.7 256.7C889.7 259.78 888.2 262.46 885.2 264.74C882.24 267.06 878.08 268.22 872.72 268.22C861.4 268.22 855.74 265.52 855.74 260.12ZM864.86 258.8C864.86 262.48 867.42 264.32 872.54 264.32C875.9 264.32 878.48 263.76 880.28 262.64C882.08 261.52 882.98 260.12 882.98 258.44C882.98 257.16 882.46 256.18 881.42 255.5C880.38 254.86 878.48 254.54 875.72 254.54H866.18C865.3 255.78 864.86 257.2 864.86 258.8ZM872.54 237.5C874.5 237.5 875.96 236.9 876.92 235.7C877.88 234.46 878.36 232.88 878.36 230.96C878.36 229.04 877.88 227.46 876.92 226.22C875.96 224.94 874.5 224.3 872.54 224.3C870.5 224.3 869.04 224.94 868.16 226.22C867.28 227.46 866.84 229.04 866.84 230.96C866.84 232.88 867.28 234.46 868.16 235.7C869.04 236.9 870.5 237.5 872.54 237.5Z" fill="#C30126"/>
</svg>
