<svg width="1397" height="628" viewBox="0 0 1397 628" fill="none" xmlns="http://www.w3.org/2000/svg">
<path d="M435.249 89.4658C436.067 89.3305 436.619 88.5583 436.484 87.741L434.28 74.4221C434.145 73.6048 433.373 73.0519 432.555 73.1872C431.738 73.3224 431.185 74.0946 431.32 74.9119L433.28 86.7509L421.441 88.7101C420.623 88.8454 420.07 89.6176 420.206 90.4349C420.341 91.2522 421.113 91.8051 421.93 91.6699L435.249 89.4658ZM199.611 142.2C199.662 140.996 199.721 139.803 199.787 138.623L196.792 138.455C196.725 139.649 196.666 140.855 196.614 142.073L199.611 142.2ZM200.271 131.682C200.465 129.373 200.688 127.113 200.941 124.901L197.96 124.561C197.704 126.803 197.478 129.093 197.281 131.431L200.271 131.682ZM201.852 117.95C202.192 115.666 202.564 113.437 202.969 111.263L200.02 110.714C199.608 112.925 199.229 115.19 198.884 117.509L201.852 117.95ZM204.394 104.399C204.914 102.138 205.471 99.9417 206.064 97.8083L203.174 97.0043C202.568 99.1828 202 101.423 201.47 103.727L204.394 104.399ZM208.096 91.163C208.839 88.9441 209.624 86.8012 210.451 84.7323L207.665 83.6193C206.817 85.7428 206.012 87.9393 205.251 90.2106L208.096 91.163ZM213.182 78.4714C214.193 76.343 215.253 74.3034 216.359 72.3499L213.748 70.8721C212.606 72.8895 211.513 74.9926 210.472 77.1837L213.182 78.4714ZM219.933 66.5642C221.23 64.6393 222.578 62.8118 223.973 61.0782L221.637 59.1966C220.187 60.9977 218.788 62.8939 217.445 64.888L219.933 66.5642ZM228.505 55.9457C230.108 54.2919 231.763 52.7415 233.467 51.2906L231.522 49.0065C229.745 50.5197 228.02 52.1356 226.351 53.858L228.505 55.9457ZM238.848 47.1447C240.724 45.8409 242.649 44.6399 244.621 43.5374L243.157 40.9189C241.101 42.0684 239.093 43.3211 237.136 44.6814L238.848 47.1447ZM250.724 40.4979C252.801 39.5831 254.921 38.7634 257.081 38.0347L256.122 35.1921C253.88 35.9486 251.676 36.8005 249.515 37.7526L250.724 40.4979ZM263.64 36.1265C265.843 35.5825 268.081 35.1228 270.351 34.7432L269.856 31.7843C267.514 32.1759 265.201 32.6509 262.921 33.2139L263.64 36.1265ZM277.149 33.8512C279.404 33.633 281.685 33.4863 283.989 33.4075L283.886 30.4093C281.523 30.4901 279.18 30.6406 276.86 30.8651L277.149 33.8512ZM290.864 33.369C293.144 33.4191 295.442 33.53 297.755 33.6983L297.973 30.7062C295.612 30.5344 293.263 30.421 290.93 30.3697L290.864 33.369ZM304.613 34.3575C306.878 34.6266 309.154 34.9463 311.437 35.3135L311.913 32.3516C309.591 31.9781 307.274 31.6526 304.967 31.3785L304.613 34.3575ZM318.238 36.541C320.489 36.9903 322.743 37.4821 324.999 38.0136L325.687 35.0935C323.399 34.5545 321.111 34.0553 318.826 33.599L318.238 36.541ZM331.694 39.7036C333.916 40.3011 336.135 40.934 338.351 41.5995L339.214 38.7263C336.972 38.0528 334.724 37.4119 332.474 36.8066L331.694 39.7036ZM344.957 43.6821C347.146 44.4047 349.329 45.1564 351.502 45.9346L352.514 43.1102C350.317 42.3238 348.111 41.5639 345.897 40.8332L344.957 43.6821ZM357.999 48.3483C360.157 49.1788 362.303 50.033 364.433 50.9079L365.573 48.1327C363.422 47.2496 361.256 46.3872 359.077 45.5485L357.999 48.3483ZM370.82 53.6102C372.951 54.5381 375.063 55.4845 377.154 56.4461L378.408 53.7205C376.298 52.7506 374.168 51.796 372.018 50.8598L370.82 53.6102ZM383.418 59.4009C385.514 60.4145 387.585 61.4409 389.627 62.4769L390.984 59.8013C388.925 58.7569 386.837 57.7221 384.724 56.7002L383.418 59.4009ZM395.8 65.6801C397.867 66.7776 399.901 67.8818 401.897 68.9891L403.352 66.3656C401.34 65.2495 399.29 64.1365 397.206 63.0303L395.8 65.6801ZM407.912 72.3979C409.947 73.5766 411.937 74.7544 413.876 75.927L415.428 73.3597C413.473 72.1774 411.467 70.99 409.415 69.8018L407.912 72.3979ZM419.796 79.586C421.808 80.8575 423.754 82.1168 425.629 83.3581L427.285 80.8567C425.392 79.6035 423.428 78.3326 421.399 77.05L419.796 79.586ZM431.366 87.2533C432.312 87.9118 433.234 88.5629 434.131 89.2055L435.878 86.7663C434.969 86.116 434.037 85.4574 433.081 84.7917L431.366 87.2533ZM435.494 90.9456C437.129 90.6751 438.235 89.1307 437.964 87.4961L433.556 60.8584C433.285 59.2237 431.741 58.1179 430.106 58.3884C428.472 58.6589 427.366 60.2034 427.636 61.838L431.555 85.5159L407.877 89.4344C406.242 89.7049 405.136 91.2493 405.407 92.8839C405.677 94.5186 407.222 95.6244 408.856 95.3539L435.494 90.9456ZM201.11 142.264C201.161 141.066 201.219 139.88 201.285 138.706L195.294 138.371C195.227 139.572 195.167 140.785 195.115 142.009L201.11 142.264ZM201.766 131.808C201.958 129.513 202.18 127.268 202.431 125.071L196.47 124.391C196.212 126.648 195.984 128.953 195.787 131.306L201.766 131.808ZM203.336 118.171C203.673 115.904 204.042 113.694 204.444 111.538L198.545 110.44C198.13 112.669 197.748 114.951 197.401 117.288L203.336 118.171ZM205.856 104.736C206.371 102.496 206.922 100.321 207.51 98.2102L201.729 96.6023C201.117 98.8033 200.543 101.066 200.008 103.391L205.856 104.736ZM209.518 91.6392C210.252 89.4465 211.028 87.3304 211.844 85.2888L206.272 83.0627C205.413 85.2136 204.598 87.4369 203.829 89.7344L209.518 91.6392ZM214.537 79.1153C215.533 77.0182 216.577 75.0103 217.664 73.0888L212.443 70.1332C211.283 72.1826 210.174 74.3174 209.117 76.5399L214.537 79.1153ZM221.177 67.4023C222.45 65.512 223.773 63.7188 225.142 62.0189L220.469 58.2559C218.991 60.0907 217.568 62.0212 216.201 64.0498L221.177 67.4023ZM229.583 56.9896C231.152 55.37 232.772 53.8525 234.44 52.4327L230.55 47.8644C228.736 49.4088 226.976 51.0575 225.274 52.8141L229.583 56.9896ZM239.704 48.3764C241.539 47.1009 243.423 45.9257 245.353 44.8467L242.425 39.6096C240.327 40.7826 238.277 42.0612 236.28 43.4498L239.704 48.3764ZM251.329 41.8706C253.363 40.9744 255.442 40.1708 257.561 39.456L255.643 33.7708C253.359 34.5412 251.113 35.4092 248.91 36.3799L251.329 41.8706ZM263.999 37.5827C266.164 37.0483 268.365 36.5962 270.599 36.2227L269.609 30.3048C267.231 30.7025 264.88 31.1851 262.561 31.7576L263.999 37.5827ZM277.294 35.3442C279.516 35.1291 281.766 34.9844 284.04 34.9066L283.835 28.9101C281.442 28.992 279.068 29.1445 276.716 29.3721L277.294 35.3442ZM290.831 34.8686C293.085 34.9182 295.358 35.0278 297.646 35.1944L298.081 29.2102C295.697 29.0366 293.323 28.922 290.963 28.8701L290.831 34.8686ZM304.436 35.847C306.68 36.1136 308.935 36.4304 311.199 36.7945L312.151 30.8706C309.81 30.494 307.473 30.1656 305.144 29.8889L304.436 35.847ZM317.945 38.012C320.178 38.4577 322.415 38.9459 324.656 39.4736L326.031 33.6335C323.727 33.0907 321.422 32.5878 319.119 32.1281L317.945 38.012ZM331.305 41.1521C333.511 41.7457 335.717 42.3746 337.919 43.0361L339.645 37.2897C337.39 36.6122 335.128 35.9673 332.863 35.3581L331.305 41.1521ZM344.487 45.1066C346.664 45.8251 348.835 46.5727 350.997 47.3468L353.019 41.698C350.812 40.9075 348.593 40.1435 346.367 39.4088L344.487 45.1066ZM357.46 49.7482C359.607 50.5746 361.743 51.4246 363.864 52.2955L366.143 46.7451C363.982 45.8579 361.805 44.9914 359.615 44.1486L357.46 49.7482ZM370.221 54.9854C372.342 55.9092 374.445 56.8514 376.528 57.8089L379.034 52.3576C376.916 51.3836 374.776 50.4249 372.617 49.4845L370.221 54.9854ZM382.765 60.7513C384.852 61.7606 386.914 62.7828 388.949 63.8146L391.663 58.4635C389.595 57.415 387.499 56.376 385.377 55.3498L382.765 60.7513ZM395.096 67.005C397.156 68.0981 399.181 69.1979 401.17 70.3008L404.08 65.0539C402.06 63.9334 400.002 62.8159 397.909 61.7054L395.096 67.005ZM407.16 73.696C409.187 74.8699 411.169 76.0429 413.1 77.2106L416.204 72.0761C414.241 70.8889 412.227 69.6966 410.167 68.5037L407.16 73.696ZM418.994 80.854C420.998 82.1199 422.935 83.3735 424.8 84.6088L428.113 79.606C426.211 78.3468 424.238 77.0702 422.2 75.782L418.994 80.854ZM430.509 88.484C431.449 89.139 432.366 89.7863 433.258 90.4251L436.751 85.5467C435.837 84.8925 434.9 84.2303 433.939 83.5609L430.509 88.484Z" fill="#00643C"/>
<path d="M1014.49 585.224C1015.3 585.384 1015.83 586.172 1015.67 586.985L1013.07 600.233C1012.91 601.045 1012.12 601.575 1011.31 601.416C1010.5 601.256 1009.97 600.468 1010.13 599.655L1012.44 587.879L1000.66 585.569C999.847 585.41 999.317 584.622 999.477 583.809C999.636 582.996 1000.42 582.466 1001.24 582.625L1014.49 585.224ZM853.853 576.52C854.22 577.607 854.6 578.67 854.995 579.707L852.19 580.773C851.782 579.699 851.389 578.601 851.01 577.48L853.853 576.52ZM857.591 585.795C858.569 587.845 859.607 589.785 860.702 591.618L858.127 593.157C856.982 591.241 855.9 589.218 854.883 587.086L857.591 585.795ZM864.368 597.092C865.717 598.89 867.131 600.562 868.605 602.116L866.428 604.18C864.874 602.542 863.386 600.781 861.969 598.892L864.368 597.092ZM873.399 606.592C875.107 607.999 876.878 609.279 878.707 610.438L877.101 612.972C875.168 611.747 873.296 610.394 871.491 608.906L873.399 606.592ZM884.454 613.605C886.434 614.544 888.468 615.367 890.55 616.078L889.579 618.917C887.394 618.17 885.254 617.305 883.168 616.315L884.454 613.605ZM896.891 617.877C899.021 618.367 901.192 618.756 903.396 619.052L902.997 622.025C900.707 621.718 898.445 621.312 896.22 620.801L896.891 617.877ZM909.999 619.66C912.191 619.775 914.409 619.808 916.646 619.766L916.702 622.765C914.398 622.809 912.11 622.775 909.842 622.656L909.999 619.66ZM923.299 619.428C925.501 619.249 927.714 619.004 929.933 618.7L930.34 621.672C928.07 621.983 925.802 622.234 923.543 622.418L923.299 619.428ZM936.528 617.629C938.71 617.221 940.894 616.761 943.072 616.255L943.751 619.177C941.533 619.693 939.307 620.162 937.079 620.578L936.528 617.629ZM949.562 614.61C951.717 614.019 953.863 613.387 955.992 612.721L956.888 615.584C954.726 616.261 952.547 616.902 950.355 617.503L949.562 614.61ZM962.358 610.612C964.482 609.869 966.584 609.097 968.659 608.3L969.735 611.1C967.633 611.908 965.502 612.691 963.348 613.444L962.358 610.612ZM974.89 605.801C976.981 604.928 979.036 604.035 981.049 603.128L982.281 605.863C980.244 606.781 978.163 607.685 976.046 608.569L974.89 605.801ZM987.128 600.289C989.183 599.296 991.183 598.295 993.119 597.294L994.497 599.959C992.537 600.972 990.514 601.985 988.434 602.99L987.128 600.289ZM999.062 594.116C1001.1 592.989 1003.05 591.874 1004.89 590.781L1006.42 593.362C1004.55 594.47 1002.58 595.6 1000.51 596.742L999.062 594.116ZM1010.59 587.272C1011.55 586.65 1012.48 586.043 1013.36 585.451L1015.03 587.941C1014.13 588.545 1013.19 589.165 1012.21 589.797L1010.59 587.272ZM1014.77 583.752C1016.4 584.071 1017.46 585.648 1017.14 587.274L1011.94 613.769C1011.62 615.395 1010.05 616.454 1008.42 616.135C1006.8 615.816 1005.74 614.24 1006.05 612.614L1010.67 589.063L987.124 584.442C985.498 584.123 984.439 582.547 984.757 580.921C985.076 579.295 986.653 578.236 988.279 578.555L1014.77 583.752ZM855.274 576.041C855.635 577.11 856.009 578.155 856.397 579.175L850.788 581.306C850.373 580.214 849.974 579.098 849.589 577.959L855.274 576.041ZM858.945 585.149C859.903 587.159 860.92 589.057 861.99 590.849L856.839 593.926C855.67 591.969 854.565 589.905 853.529 587.732L858.945 585.149ZM865.568 596.192C866.883 597.944 868.26 599.572 869.693 601.084L865.34 605.213C863.745 603.532 862.22 601.726 860.769 599.792L865.568 596.192ZM874.354 605.434C876.012 606.802 877.733 608.045 879.51 609.171L876.298 614.239C874.314 612.981 872.391 611.592 870.537 610.064L874.354 605.434ZM885.098 612.25C887.024 613.164 889.004 613.965 891.035 614.659L889.094 620.336C886.857 619.572 884.664 618.686 882.524 617.67L885.098 612.25ZM897.226 616.416C899.31 616.894 901.435 617.275 903.596 617.565L902.798 623.512C900.464 623.198 898.157 622.785 895.884 622.263L897.226 616.416ZM910.077 618.162C912.232 618.275 914.414 618.308 916.617 618.266L916.731 624.265C914.393 624.309 912.069 624.275 909.764 624.154L910.077 618.162ZM923.178 617.933C925.35 617.756 927.536 617.515 929.73 617.214L930.544 623.158C928.248 623.473 925.952 623.727 923.665 623.913L923.178 617.933ZM936.252 616.155C938.412 615.751 940.574 615.295 942.733 614.794L944.091 620.638C941.852 621.158 939.605 621.632 937.355 622.053L936.252 616.155ZM949.165 613.163C951.303 612.577 953.431 611.951 955.544 611.29L957.336 617.016C955.158 617.697 952.961 618.344 950.752 618.95L949.165 613.163ZM961.864 609.196C963.973 608.459 966.06 607.692 968.121 606.9L970.273 612.501C968.157 613.314 966.012 614.102 963.843 614.86L961.864 609.196ZM974.312 604.417C976.39 603.549 978.432 602.662 980.433 601.76L982.897 607.23C980.848 608.154 978.755 609.064 976.625 609.954L974.312 604.417ZM986.476 598.939C988.518 597.951 990.506 596.956 992.43 595.961L995.185 601.291C993.214 602.31 991.179 603.329 989.087 604.341L986.476 598.939ZM998.336 592.804C1000.36 591.684 1002.29 590.576 1004.12 589.491L1007.18 594.652C1005.3 595.768 1003.32 596.906 1001.24 598.055L998.336 592.804ZM1009.78 586.009C1010.74 585.393 1011.65 584.792 1012.52 584.206L1015.87 589.186C1014.96 589.796 1014.01 590.422 1013.02 591.059L1009.78 586.009Z" fill="#00643C"/>
<rect x="12" y="97" width="411" height="473" rx="30" fill="#CBDFD7"/>
<path d="M484.832 137.272C484.365 121.404 496.34 107.919 512.152 106.508L877.333 73.9155C894.885 72.349 910 86.1754 910 103.797V559.433C910 575.633 897.139 588.906 880.947 589.418L528.55 600.551C511.964 601.075 498.104 588.035 497.615 571.449L484.832 137.272Z" fill="#00643C"/>
<rect x="475" y="97" width="411" height="473" rx="30" fill="#CBDFD7"/>
<rect x="986" y="97" width="411" height="473" rx="30" fill="#CBDFD7"/>
<circle cx="40" cy="111" r="40" fill="#00643C"/>
<circle cx="475" cy="111" r="40" fill="#00643C"/>
<circle cx="986" cy="111" r="40" fill="#00643C"/>
<path d="M95.4043 340V337.312L99.8203 336.256V310.144L95.4043 309.088V306.4H120.892V316.24H118.06L116.14 310.096H107.644V321.232L116.572 320.416V325.168L107.644 324.448V336.304H116.236L119.5 329.632H122.332L120.892 340H95.4043ZM125.495 340V337.456L129.575 336.496V320.368H125.495V317.824L133.175 316H136.967V318.352C138.919 316.304 141.335 315.28 144.215 315.28C145.463 315.28 146.583 315.472 147.575 315.856C148.599 316.208 149.447 316.72 150.119 317.392C150.823 318.064 151.367 318.864 151.751 319.792C152.135 320.72 152.327 321.728 152.327 322.816V336.496L156.407 337.456V340H141.815V337.456L144.935 336.496V324.16C144.935 323.168 144.871 322.368 144.743 321.76C144.647 321.152 144.471 320.688 144.215 320.368C143.959 320.016 143.607 319.792 143.159 319.696C142.743 319.568 142.215 319.504 141.575 319.504C140.359 319.504 138.823 320.208 136.967 321.616V336.496L140.087 337.456V340H125.495ZM158.071 319.36V317.44L166.231 311.632H168.007V316.24L173.959 316V319.36H168.007V333.088C168.007 334.656 168.183 335.76 168.535 336.4C168.887 337.04 169.607 337.36 170.695 337.36C171.495 337.36 172.567 337.072 173.911 336.496L174.679 339.184C172.759 340.208 170.727 340.72 168.583 340.72C163.271 340.72 160.615 338.256 160.615 333.328V319.36H158.071ZM176.307 340V337.456L180.387 336.496V320.368H176.307V317.824L183.987 316H187.779V318.88C190.179 316.48 193.027 315.28 196.323 315.28C196.515 315.888 196.611 316.56 196.611 317.296C196.611 318.768 196.451 320.144 196.131 321.424L190.083 320.416C189.315 320.768 188.547 321.28 187.779 321.952V336.496L192.819 337.456V340H176.307ZM198.719 327.712C198.719 323.936 199.775 320.928 201.887 318.688C204.031 316.416 206.927 315.28 210.575 315.28C214.287 315.28 217.087 316.544 218.975 319.072C220.895 321.6 221.855 324.72 221.855 328.432H206.111C206.335 330.8 207.183 332.848 208.655 334.576C210.127 336.272 212.015 337.12 214.319 337.12C216.047 337.12 217.903 336.752 219.887 336.016L220.895 338.752C217.919 340.064 215.007 340.72 212.159 340.72C208.031 340.72 204.751 339.52 202.319 337.12C199.919 334.688 198.719 331.552 198.719 327.712ZM206.111 325.456L214.223 324.928C214.223 324.16 214.175 323.456 214.079 322.816C213.983 322.144 213.711 321.344 213.263 320.416C212.463 319.072 211.519 318.4 210.431 318.4C209.151 318.4 208.095 319.056 207.263 320.368C206.783 321.168 206.463 322.048 206.303 323.008C206.143 323.968 206.079 324.784 206.111 325.456ZM224.539 340V337.6L236.683 319.072H230.155L227.851 323.92H225.643L226.171 316H245.755V318.352L233.707 336.88H240.907L243.403 331.552H245.755L245.275 340H224.539ZM257.969 309.088V306.4H274.577V309.088L270.641 309.904L277.889 329.776L284.465 310.144L280.673 309.088V306.4H292.769V309.088L288.353 310.144L277.889 340.336H273.233L262.241 310.144L257.969 309.088ZM303.552 340.72C301.728 340.72 300.016 340.4 298.416 339.76C296.848 339.12 295.488 338.24 294.336 337.12C293.184 336 292.272 334.656 291.6 333.088C290.928 331.52 290.592 329.808 290.592 327.952C290.592 326.096 290.928 324.4 291.6 322.864C292.272 321.296 293.184 319.952 294.336 318.832C295.488 317.712 296.848 316.848 298.416 316.24C300.016 315.6 301.728 315.28 303.552 315.28C305.376 315.28 307.072 315.6 308.64 316.24C310.208 316.848 311.568 317.712 312.72 318.832C313.904 319.952 314.816 321.296 315.456 322.864C316.128 324.4 316.464 326.096 316.464 327.952C316.464 329.776 316.128 331.472 315.456 333.04C314.816 334.608 313.904 335.968 312.72 337.12C311.568 338.24 310.208 339.12 308.64 339.76C307.072 340.4 305.376 340.72 303.552 340.72ZM298.32 327.952C298.32 330.96 298.752 333.328 299.616 335.056C300.512 336.752 301.824 337.6 303.552 337.6C305.28 337.6 306.576 336.752 307.44 335.056C308.336 333.328 308.784 330.96 308.784 327.952C308.784 324.976 308.336 322.64 307.44 320.944C306.576 319.248 305.28 318.4 303.552 318.4C301.824 318.4 300.512 319.248 299.616 320.944C298.752 322.64 298.32 324.976 298.32 327.952ZM320.086 339.616V332.752H322.774L324.502 337.504C325.654 337.568 326.566 337.6 327.238 337.6C330.982 337.6 332.854 336.784 332.854 335.152C332.854 334.48 332.518 333.904 331.846 333.424C331.174 332.912 330.534 332.512 329.926 332.224C329.318 331.936 328.166 331.424 326.47 330.688C324.262 329.728 322.646 328.64 321.622 327.424C320.63 326.176 320.134 324.576 320.134 322.624C320.134 320.224 321.094 318.4 323.014 317.152C324.966 315.904 327.51 315.28 330.646 315.28C333.494 315.28 335.942 315.584 337.99 316.192V322.72H335.494L334.006 318.496C333.046 318.336 332.086 318.256 331.126 318.256C328.054 318.256 326.518 319.008 326.518 320.512C326.518 320.896 326.662 321.296 326.95 321.712C327.238 322.128 327.75 322.544 328.486 322.96C329.254 323.376 330.454 323.936 332.086 324.64C334.998 325.952 336.966 327.232 337.99 328.48C339.014 329.696 339.526 331.344 339.526 333.424C339.526 335.792 338.55 337.6 336.598 338.848C334.646 340.096 332.054 340.72 328.822 340.72C325.782 340.72 322.87 340.352 320.086 339.616ZM59.2871 402V399.312L63.7031 398.256V372.144L59.2871 371.088V368.4H75.9431V371.088L71.5271 372.144V398.256L75.9431 399.312V402H59.2871ZM78.9713 402V399.456L83.0513 398.496V382.368H78.9713V379.824L86.6513 378H90.4433V380.352C92.3953 378.304 94.8113 377.28 97.6913 377.28C98.9393 377.28 100.059 377.472 101.051 377.856C102.075 378.208 102.923 378.72 103.595 379.392C104.299 380.064 104.843 380.864 105.227 381.792C105.611 382.72 105.803 383.728 105.803 384.816V398.496L109.883 399.456V402H95.2913V399.456L98.4113 398.496V386.16C98.4113 385.168 98.3473 384.368 98.2193 383.76C98.1233 383.152 97.9473 382.688 97.6913 382.368C97.4353 382.016 97.0833 381.792 96.6353 381.696C96.2193 381.568 95.6913 381.504 95.0513 381.504C93.8353 381.504 92.2993 382.208 90.4433 383.616V398.496L93.5633 399.456V402H78.9713ZM111.499 402V399.456L115.579 398.496V381.072H111.547V378.336L115.579 378.048V374.448C115.579 370.704 116.427 367.84 118.123 365.856C119.851 363.872 122.315 362.88 125.515 362.88C126.859 362.88 128.267 363.024 129.739 363.312C131.211 363.568 132.347 363.824 133.147 364.08L134.347 364.464C134.379 365.584 134.107 366.688 133.531 367.776C132.987 368.832 132.283 369.584 131.419 370.032L127.435 366C126.795 366 126.235 366.096 125.755 366.288C125.307 366.48 124.843 366.848 124.363 367.392C123.915 367.936 123.563 368.8 123.307 369.984C123.083 371.168 122.971 372.656 122.971 374.448V377.568L129.547 377.136V381.072H122.971V398.496L128.635 399.456V402H111.499ZM144.528 402.72C142.704 402.72 140.992 402.4 139.392 401.76C137.824 401.12 136.464 400.24 135.312 399.12C134.16 398 133.248 396.656 132.576 395.088C131.904 393.52 131.568 391.808 131.568 389.952C131.568 388.096 131.904 386.4 132.576 384.864C133.248 383.296 134.16 381.952 135.312 380.832C136.464 379.712 137.824 378.848 139.392 378.24C140.992 377.6 142.704 377.28 144.528 377.28C146.352 377.28 148.048 377.6 149.616 378.24C151.184 378.848 152.544 379.712 153.696 380.832C154.88 381.952 155.792 383.296 156.432 384.864C157.104 386.4 157.44 388.096 157.44 389.952C157.44 391.776 157.104 393.472 156.432 395.04C155.792 396.608 154.88 397.968 153.696 399.12C152.544 400.24 151.184 401.12 149.616 401.76C148.048 402.4 146.352 402.72 144.528 402.72ZM139.296 389.952C139.296 392.96 139.728 395.328 140.592 397.056C141.488 398.752 142.8 399.6 144.528 399.6C146.256 399.6 147.552 398.752 148.416 397.056C149.312 395.328 149.76 392.96 149.76 389.952C149.76 386.976 149.312 384.64 148.416 382.944C147.552 381.248 146.256 380.4 144.528 380.4C142.8 380.4 141.488 381.248 140.592 382.944C139.728 384.64 139.296 386.976 139.296 389.952ZM160.487 402V399.456L164.567 398.496V382.368H160.487V379.824L168.167 378H171.959V380.88C174.359 378.48 177.207 377.28 180.503 377.28C180.695 377.888 180.791 378.56 180.791 379.296C180.791 380.768 180.631 382.144 180.311 383.424L174.263 382.416C173.495 382.768 172.727 383.28 171.959 383.952V398.496L176.999 399.456V402H160.487ZM182.893 402V399.456L186.973 398.496V382.368H182.893V379.824L190.573 378H194.365V379.968C196.541 378.176 198.909 377.28 201.469 377.28C204.701 377.28 207.069 378.432 208.573 380.736C211.101 378.432 213.853 377.28 216.829 377.28C219.325 377.28 221.309 377.984 222.781 379.392C224.285 380.8 225.037 382.608 225.037 384.816V398.496L229.117 399.456V402H214.525V399.456L217.645 398.496V385.44C217.645 383.968 217.357 382.944 216.781 382.368C216.205 381.792 215.309 381.504 214.093 381.504C212.749 381.504 211.245 382.144 209.581 383.424C209.677 383.904 209.725 384.368 209.725 384.816V398.496L212.845 399.456V402H199.165V399.456L202.285 398.496V385.44C202.285 383.968 201.997 382.944 201.421 382.368C200.845 381.792 199.965 381.504 198.781 381.504C197.469 381.504 195.997 382.08 194.365 383.232V398.496L197.485 399.456V402H182.893ZM230.846 396.048C230.846 393.264 231.982 391.152 234.254 389.712C236.558 388.24 240.27 387.504 245.39 387.504V386.064C245.39 385.104 245.374 384.416 245.342 384C245.342 383.552 245.278 383.024 245.15 382.416C245.022 381.808 244.83 381.376 244.574 381.12C244.35 380.864 243.998 380.64 243.518 380.448C243.038 380.224 242.446 380.112 241.742 380.112L235.646 385.392C233.47 384.144 232.382 382.208 232.382 379.584L233.822 378.96C234.43 378.704 235.614 378.368 237.374 377.952C239.134 377.504 240.846 377.28 242.51 377.28C249.39 377.28 252.83 380.032 252.83 385.536V398.4H256.574V400.464C256.414 400.624 256.19 400.832 255.902 401.088C255.614 401.344 254.99 401.68 254.03 402.096C253.07 402.512 252.078 402.72 251.054 402.72C248.622 402.72 246.814 401.904 245.63 400.272C243.486 401.904 241.15 402.72 238.622 402.72C236.414 402.72 234.558 402.16 233.054 401.04C231.582 399.92 230.846 398.256 230.846 396.048ZM238.574 395.616C238.574 396.544 238.878 397.28 239.486 397.824C240.126 398.368 240.894 398.64 241.79 398.64C243.23 398.64 244.43 398.112 245.39 397.056V390.48C243.598 390.48 242.014 390.96 240.638 391.92C239.262 392.848 238.574 394.08 238.574 395.616ZM258.219 381.36V379.44L266.379 373.632H268.155V378.24L274.107 378V381.36H268.155V395.088C268.155 396.656 268.331 397.76 268.683 398.4C269.035 399.04 269.755 399.36 270.843 399.36C271.643 399.36 272.715 399.072 274.059 398.496L274.827 401.184C272.907 402.208 270.875 402.72 268.731 402.72C263.419 402.72 260.763 400.256 260.763 395.328V381.36H258.219ZM276.456 402V399.456L280.536 398.496V382.368H276.456V379.824L284.136 378H287.928V398.496L292.008 399.456V402H276.456ZM279.768 370.608C279.768 369.36 280.2 368.32 281.064 367.488C281.928 366.624 282.984 366.192 284.232 366.192C285.512 366.192 286.568 366.624 287.4 367.488C288.264 368.32 288.696 369.36 288.696 370.608C288.696 371.888 288.264 372.96 287.4 373.824C286.568 374.688 285.512 375.12 284.232 375.12C282.984 375.12 281.928 374.688 281.064 373.824C280.2 372.96 279.768 371.888 279.768 370.608ZM306.997 402.72C305.173 402.72 303.461 402.4 301.861 401.76C300.293 401.12 298.933 400.24 297.781 399.12C296.629 398 295.717 396.656 295.045 395.088C294.373 393.52 294.037 391.808 294.037 389.952C294.037 388.096 294.373 386.4 295.045 384.864C295.717 383.296 296.629 381.952 297.781 380.832C298.933 379.712 300.293 378.848 301.861 378.24C303.461 377.6 305.173 377.28 306.997 377.28C308.821 377.28 310.517 377.6 312.085 378.24C313.653 378.848 315.013 379.712 316.165 380.832C317.349 381.952 318.261 383.296 318.901 384.864C319.573 386.4 319.909 388.096 319.909 389.952C319.909 391.776 319.573 393.472 318.901 395.04C318.261 396.608 317.349 397.968 316.165 399.12C315.013 400.24 313.653 401.12 312.085 401.76C310.517 402.4 308.821 402.72 306.997 402.72ZM301.765 389.952C301.765 392.96 302.197 395.328 303.061 397.056C303.957 398.752 305.269 399.6 306.997 399.6C308.725 399.6 310.021 398.752 310.885 397.056C311.781 395.328 312.229 392.96 312.229 389.952C312.229 386.976 311.781 384.64 310.885 382.944C310.021 381.248 308.725 380.4 306.997 380.4C305.269 380.4 303.957 381.248 303.061 382.944C302.197 384.64 301.765 386.976 301.765 389.952ZM322.956 402V399.456L327.036 398.496V382.368H322.956V379.824L330.636 378H334.428V380.352C336.38 378.304 338.796 377.28 341.676 377.28C342.924 377.28 344.044 377.472 345.036 377.856C346.06 378.208 346.908 378.72 347.58 379.392C348.284 380.064 348.828 380.864 349.212 381.792C349.596 382.72 349.788 383.728 349.788 384.816V398.496L353.868 399.456V402H339.276V399.456L342.396 398.496V386.16C342.396 385.168 342.332 384.368 342.204 383.76C342.108 383.152 341.932 382.688 341.676 382.368C341.42 382.016 341.068 381.792 340.62 381.696C340.204 381.568 339.676 381.504 339.036 381.504C337.82 381.504 336.284 382.208 334.428 383.616V398.496L337.548 399.456V402H322.956ZM356.204 401.616V394.752H358.892L360.62 399.504C361.772 399.568 362.684 399.6 363.356 399.6C367.1 399.6 368.972 398.784 368.972 397.152C368.972 396.48 368.636 395.904 367.964 395.424C367.292 394.912 366.652 394.512 366.044 394.224C365.436 393.936 364.284 393.424 362.588 392.688C360.38 391.728 358.764 390.64 357.74 389.424C356.748 388.176 356.252 386.576 356.252 384.624C356.252 382.224 357.212 380.4 359.132 379.152C361.084 377.904 363.628 377.28 366.764 377.28C369.612 377.28 372.06 377.584 374.108 378.192V384.72H371.612L370.124 380.496C369.164 380.336 368.204 380.256 367.244 380.256C364.172 380.256 362.636 381.008 362.636 382.512C362.636 382.896 362.78 383.296 363.068 383.712C363.356 384.128 363.868 384.544 364.604 384.96C365.372 385.376 366.572 385.936 368.204 386.64C371.116 387.952 373.084 389.232 374.108 390.48C375.132 391.696 375.644 393.344 375.644 395.424C375.644 397.792 374.668 399.6 372.716 400.848C370.764 402.096 368.172 402.72 364.94 402.72C361.9 402.72 358.988 402.352 356.204 401.616Z" fill="black"/>
<path d="M542.561 340V337.312L546.977 336.256V310.144L542.561 309.088V306.4H557.585C562.033 306.4 565.361 307.216 567.569 308.848C569.809 310.448 570.929 312.736 570.929 315.712C570.929 317.728 570.353 319.488 569.201 320.992C568.049 322.496 566.465 323.552 564.449 324.16L571.169 336.304L575.777 337.456V340H564.113L556.481 325.456H554.801V336.256L558.977 337.312V340H542.561ZM554.801 322.096H556.193C558.433 322.096 560.145 321.52 561.329 320.368C562.513 319.216 563.105 317.664 563.105 315.712C563.105 313.952 562.497 312.544 561.281 311.488C560.065 310.432 558.353 309.904 556.145 309.904H554.801V322.096ZM576.219 327.712C576.219 323.936 577.275 320.928 579.387 318.688C581.531 316.416 584.427 315.28 588.075 315.28C591.787 315.28 594.587 316.544 596.475 319.072C598.395 321.6 599.355 324.72 599.355 328.432H583.611C583.835 330.8 584.683 332.848 586.155 334.576C587.627 336.272 589.515 337.12 591.819 337.12C593.547 337.12 595.403 336.752 597.387 336.016L598.395 338.752C595.419 340.064 592.507 340.72 589.659 340.72C585.531 340.72 582.251 339.52 579.819 337.12C577.419 334.688 576.219 331.552 576.219 327.712ZM583.611 325.456L591.723 324.928C591.723 324.16 591.675 323.456 591.579 322.816C591.483 322.144 591.211 321.344 590.763 320.416C589.963 319.072 589.019 318.4 587.931 318.4C586.651 318.4 585.595 319.056 584.763 320.368C584.283 321.168 583.963 322.048 583.803 323.008C583.643 323.968 583.579 324.784 583.611 325.456ZM586.251 311.632L591.099 303.184C593.403 303.568 595.291 304.4 596.763 305.68L589.131 312.928L586.251 311.632ZM601.415 351.856L605.495 350.896V320.368H601.415V317.824L609.095 316H612.887V318.304C614.839 316.288 617.175 315.28 619.895 315.28C621.239 315.28 622.503 315.552 623.687 316.096C624.903 316.608 625.959 317.376 626.855 318.4C627.751 319.392 628.455 320.624 628.967 322.096C629.511 323.568 629.783 325.232 629.783 327.088C629.783 329.264 629.399 331.2 628.631 332.896C627.895 334.592 626.887 336.016 625.607 337.168C624.327 338.32 622.823 339.2 621.095 339.808C619.399 340.416 617.591 340.72 615.671 340.72C614.423 340.72 613.495 340.624 612.887 340.432V350.896L617.927 351.856V354.4H601.415V351.856ZM612.887 337.12C613.623 337.44 614.407 337.6 615.239 337.6C617.287 337.6 618.951 336.736 620.231 335.008C621.511 333.248 622.151 330.672 622.151 327.28C622.151 324.688 621.703 322.768 620.807 321.52C619.911 320.272 618.679 319.648 617.111 319.648C616.407 319.648 615.639 319.808 614.807 320.128C614.007 320.448 613.367 320.848 612.887 321.328V337.12ZM645.989 340.72C644.165 340.72 642.453 340.4 640.853 339.76C639.285 339.12 637.925 338.24 636.773 337.12C635.621 336 634.709 334.656 634.037 333.088C633.365 331.52 633.029 329.808 633.029 327.952C633.029 326.096 633.365 324.4 634.037 322.864C634.709 321.296 635.621 319.952 636.773 318.832C637.925 317.712 639.285 316.848 640.853 316.24C642.453 315.6 644.165 315.28 645.989 315.28C647.813 315.28 649.509 315.6 651.077 316.24C652.645 316.848 654.005 317.712 655.157 318.832C656.341 319.952 657.253 321.296 657.893 322.864C658.565 324.4 658.901 326.096 658.901 327.952C658.901 329.776 658.565 331.472 657.893 333.04C657.253 334.608 656.341 335.968 655.157 337.12C654.005 338.24 652.645 339.12 651.077 339.76C649.509 340.4 647.813 340.72 645.989 340.72ZM640.757 327.952C640.757 330.96 641.189 333.328 642.053 335.056C642.949 336.752 644.261 337.6 645.989 337.6C647.717 337.6 649.013 336.752 649.877 335.056C650.773 333.328 651.221 330.96 651.221 327.952C651.221 324.976 650.773 322.64 649.877 320.944C649.013 319.248 647.717 318.4 645.989 318.4C644.261 318.4 642.949 319.248 642.053 320.944C641.189 322.64 640.757 324.976 640.757 327.952ZM661.948 340V337.456L666.028 336.496V320.368H661.948V317.824L669.628 316H673.42V318.352C675.372 316.304 677.788 315.28 680.668 315.28C681.916 315.28 683.036 315.472 684.028 315.856C685.052 316.208 685.9 316.72 686.572 317.392C687.276 318.064 687.82 318.864 688.204 319.792C688.588 320.72 688.78 321.728 688.78 322.816V336.496L692.86 337.456V340H678.268V337.456L681.388 336.496V324.16C681.388 323.168 681.324 322.368 681.196 321.76C681.1 321.152 680.924 320.688 680.668 320.368C680.412 320.016 680.06 319.792 679.612 319.696C679.196 319.568 678.668 319.504 678.028 319.504C676.812 319.504 675.276 320.208 673.42 321.616V336.496L676.54 337.456V340H661.948ZM694.86 328.864C694.86 324.544 696.22 321.2 698.94 318.832C701.692 316.464 705.036 315.28 708.972 315.28C709.964 315.28 710.892 315.376 711.756 315.568V305.968H707.676V303.424L715.356 301.6H719.196V336.4H722.94V338.464C722.748 338.624 722.476 338.832 722.124 339.088C721.804 339.344 721.148 339.68 720.156 340.096C719.164 340.512 718.22 340.72 717.324 340.72C715.98 340.72 714.844 340.4 713.916 339.76C713.02 339.12 712.38 338.432 711.996 337.696C710.236 339.712 708.076 340.72 705.516 340.72C702.604 340.72 700.092 339.712 697.98 337.696C695.9 335.648 694.86 332.704 694.86 328.864ZM702.444 328.672C702.444 331.296 703.004 333.28 704.124 334.624C705.276 335.968 706.412 336.64 707.532 336.64C709.132 336.64 710.54 336.048 711.756 334.864V318.736C710.86 318.512 710.076 318.4 709.404 318.4C707.292 318.4 705.596 319.248 704.316 320.944C703.068 322.608 702.444 325.184 702.444 328.672ZM725.282 327.712C725.282 323.936 726.338 320.928 728.45 318.688C730.594 316.416 733.49 315.28 737.138 315.28C740.85 315.28 743.65 316.544 745.538 319.072C747.458 321.6 748.418 324.72 748.418 328.432H732.674C732.898 330.8 733.746 332.848 735.218 334.576C736.69 336.272 738.578 337.12 740.882 337.12C742.61 337.12 744.466 336.752 746.45 336.016L747.458 338.752C744.482 340.064 741.57 340.72 738.722 340.72C734.594 340.72 731.314 339.52 728.882 337.12C726.482 334.688 725.282 331.552 725.282 327.712ZM732.674 325.456L740.786 324.928C740.786 324.16 740.738 323.456 740.642 322.816C740.546 322.144 740.274 321.344 739.826 320.416C739.026 319.072 738.082 318.4 736.994 318.4C735.714 318.4 734.658 319.056 733.826 320.368C733.346 321.168 733.026 322.048 732.866 323.008C732.706 323.968 732.642 324.784 732.674 325.456ZM751.102 340V337.6L763.246 319.072H756.718L754.414 323.92H752.206L752.734 316H772.318V318.352L760.27 336.88H767.47L769.966 331.552H772.318L771.838 340H751.102ZM784.387 340V337.312L789.091 336.208L800.563 306.16H804.739L815.491 336.208L820.099 337.312V340H803.827V337.312L807.235 336.496L805.171 330.736H795.091L792.931 336.352L796.963 337.312V340H784.387ZM796.387 327.424H803.971L800.227 317.2L796.387 327.424ZM794.755 300.208C795.267 299.12 795.955 298.16 796.819 297.328C797.715 296.464 798.547 295.904 799.315 295.648L806.179 301.792L804.307 304.096L794.755 300.208ZM485.49 402V399.312L489.906 398.256V372.144L485.49 371.088V368.4H493.746L514.338 390.96V372.144L509.922 371.088V368.4H522.738V371.088L518.322 372.144V402H513.666L493.746 380.208V398.256L498.162 399.312V402H485.49ZM537.263 402.72C535.439 402.72 533.727 402.4 532.127 401.76C530.559 401.12 529.199 400.24 528.047 399.12C526.895 398 525.983 396.656 525.311 395.088C524.639 393.52 524.303 391.808 524.303 389.952C524.303 388.096 524.639 386.4 525.311 384.864C525.983 383.296 526.895 381.952 528.047 380.832C529.199 379.712 530.559 378.848 532.127 378.24C533.727 377.6 535.439 377.28 537.263 377.28C539.087 377.28 540.783 377.6 542.351 378.24C543.919 378.848 545.279 379.712 546.431 380.832C547.615 381.952 548.527 383.296 549.167 384.864C549.839 386.4 550.175 388.096 550.175 389.952C550.175 391.776 549.839 393.472 549.167 395.04C548.527 396.608 547.615 397.968 546.431 399.12C545.279 400.24 543.919 401.12 542.351 401.76C540.783 402.4 539.087 402.72 537.263 402.72ZM532.031 389.952C532.031 392.96 532.463 395.328 533.327 397.056C534.223 398.752 535.535 399.6 537.263 399.6C538.991 399.6 540.287 398.752 541.151 397.056C542.047 395.328 542.495 392.96 542.495 389.952C542.495 386.976 542.047 384.64 541.151 382.944C540.287 381.248 538.991 380.4 537.263 380.4C535.535 380.4 534.223 381.248 533.327 382.944C532.463 384.64 532.031 386.976 532.031 389.952ZM553.125 381.36V379.44L561.285 373.632H563.061V378.24L569.013 378V381.36H563.061V395.088C563.061 396.656 563.237 397.76 563.589 398.4C563.941 399.04 564.661 399.36 565.749 399.36C566.549 399.36 567.621 399.072 568.965 398.496L569.733 401.184C567.813 402.208 565.781 402.72 563.637 402.72C558.325 402.72 555.669 400.256 555.669 395.328V381.36H553.125ZM571.362 402V399.456L575.442 398.496V382.368H571.362V379.824L579.042 378H582.834V380.88C585.234 378.48 588.082 377.28 591.378 377.28C591.57 377.888 591.666 378.56 591.666 379.296C591.666 380.768 591.506 382.144 591.186 383.424L585.138 382.416C584.37 382.768 583.602 383.28 582.834 383.952V398.496L587.874 399.456V402H571.362ZM593.774 389.712C593.774 385.936 594.83 382.928 596.942 380.688C599.086 378.416 601.982 377.28 605.63 377.28C609.342 377.28 612.142 378.544 614.03 381.072C615.95 383.6 616.91 386.72 616.91 390.432H601.166C601.39 392.8 602.238 394.848 603.71 396.576C605.182 398.272 607.07 399.12 609.374 399.12C611.102 399.12 612.958 398.752 614.942 398.016L615.95 400.752C612.974 402.064 610.062 402.72 607.214 402.72C603.086 402.72 599.806 401.52 597.374 399.12C594.974 396.688 593.774 393.552 593.774 389.712ZM601.166 387.456L609.278 386.928C609.278 386.16 609.23 385.456 609.134 384.816C609.038 384.144 608.766 383.344 608.318 382.416C607.518 381.072 606.574 380.4 605.486 380.4C604.206 380.4 603.15 381.056 602.318 382.368C601.838 383.168 601.518 384.048 601.358 385.008C601.198 385.968 601.134 386.784 601.166 387.456ZM629.994 378.576V368.4H659.514V378.576H656.586L654.618 372.096H648.666V398.256L653.082 399.312V402H636.426V399.312L640.842 398.256V372.096H634.842L632.874 378.576H629.994ZM659.493 389.712C659.493 385.936 660.549 382.928 662.661 380.688C664.805 378.416 667.701 377.28 671.349 377.28C675.061 377.28 677.861 378.544 679.749 381.072C681.669 383.6 682.629 386.72 682.629 390.432H666.885C667.109 392.8 667.957 394.848 669.429 396.576C670.901 398.272 672.789 399.12 675.093 399.12C676.821 399.12 678.677 398.752 680.661 398.016L681.669 400.752C678.693 402.064 675.781 402.72 672.933 402.72C668.805 402.72 665.525 401.52 663.093 399.12C660.693 396.688 659.493 393.552 659.493 389.712ZM666.885 387.456L674.997 386.928C674.997 386.16 674.949 385.456 674.853 384.816C674.757 384.144 674.485 383.344 674.037 382.416C673.237 381.072 672.293 380.4 671.205 380.4C669.925 380.4 668.869 381.056 668.037 382.368C667.557 383.168 667.237 384.048 667.077 385.008C666.917 385.968 666.853 386.784 666.885 387.456ZM684.689 402V399.456L688.769 398.496V367.968H684.689V365.424L692.369 363.6H696.161V398.496L700.241 399.456V402H684.689ZM702.336 389.712C702.336 385.936 703.392 382.928 705.504 380.688C707.648 378.416 710.544 377.28 714.192 377.28C717.904 377.28 720.704 378.544 722.592 381.072C724.512 383.6 725.472 386.72 725.472 390.432H709.728C709.952 392.8 710.8 394.848 712.272 396.576C713.744 398.272 715.632 399.12 717.936 399.12C719.664 399.12 721.52 398.752 723.504 398.016L724.512 400.752C721.536 402.064 718.624 402.72 715.776 402.72C711.648 402.72 708.368 401.52 705.936 399.12C703.536 396.688 702.336 393.552 702.336 389.712ZM709.728 387.456L717.84 386.928C717.84 386.16 717.792 385.456 717.696 384.816C717.6 384.144 717.328 383.344 716.88 382.416C716.08 381.072 715.136 380.4 714.048 380.4C712.768 380.4 711.712 381.056 710.88 382.368C710.4 383.168 710.08 384.048 709.92 385.008C709.76 385.968 709.696 386.784 709.728 387.456ZM727.533 413.856L731.613 412.896V382.368H727.533V379.824L735.213 378H739.005V380.304C740.957 378.288 743.293 377.28 746.013 377.28C747.357 377.28 748.621 377.552 749.805 378.096C751.021 378.608 752.077 379.376 752.973 380.4C753.869 381.392 754.573 382.624 755.085 384.096C755.629 385.568 755.901 387.232 755.901 389.088C755.901 391.264 755.517 393.2 754.749 394.896C754.013 396.592 753.005 398.016 751.725 399.168C750.445 400.32 748.941 401.2 747.213 401.808C745.517 402.416 743.709 402.72 741.789 402.72C740.541 402.72 739.613 402.624 739.005 402.432V412.896L744.045 413.856V416.4H727.533V413.856ZM739.005 399.12C739.741 399.44 740.525 399.6 741.357 399.6C743.405 399.6 745.069 398.736 746.349 397.008C747.629 395.248 748.269 392.672 748.269 389.28C748.269 386.688 747.821 384.768 746.925 383.52C746.029 382.272 744.797 381.648 743.229 381.648C742.525 381.648 741.757 381.808 740.924 382.128C740.125 382.448 739.485 382.848 739.005 383.328V399.12ZM757.954 402V399.456L762.034 398.496V367.968H757.954V365.424L765.634 363.6H769.426V380.352C771.378 378.304 773.794 377.28 776.674 377.28C777.922 377.28 779.042 377.472 780.034 377.856C781.058 378.208 781.906 378.72 782.578 379.392C783.282 380.064 783.826 380.864 784.21 381.792C784.594 382.72 784.786 383.728 784.786 384.816V398.496L788.866 399.456V402H774.274V399.456L777.394 398.496V386.16C777.394 384.56 777.202 383.392 776.818 382.656C776.466 381.888 775.682 381.504 774.466 381.504C773.826 381.504 773.074 381.664 772.21 381.984C771.346 382.304 770.418 382.848 769.426 383.616V398.496L772.546 399.456V402H757.954ZM803.747 402.72C801.923 402.72 800.211 402.4 798.611 401.76C797.043 401.12 795.683 400.24 794.531 399.12C793.379 398 792.467 396.656 791.795 395.088C791.123 393.52 790.787 391.808 790.787 389.952C790.787 388.096 791.123 386.4 791.795 384.864C792.467 383.296 793.379 381.952 794.531 380.832C795.683 379.712 797.043 378.848 798.611 378.24C800.211 377.6 801.923 377.28 803.747 377.28C805.571 377.28 807.267 377.6 808.835 378.24C810.403 378.848 811.763 379.712 812.915 380.832C814.099 381.952 815.011 383.296 815.651 384.864C816.323 386.4 816.659 388.096 816.659 389.952C816.659 391.776 816.323 393.472 815.651 395.04C815.011 396.608 814.099 397.968 812.915 399.12C811.763 400.24 810.403 401.12 808.835 401.76C807.267 402.4 805.571 402.72 803.747 402.72ZM798.515 389.952C798.515 392.96 798.947 395.328 799.811 397.056C800.707 398.752 802.019 399.6 803.747 399.6C805.475 399.6 806.771 398.752 807.635 397.056C808.531 395.328 808.979 392.96 808.979 389.952C808.979 386.976 808.531 384.64 807.635 382.944C806.771 381.248 805.475 380.4 803.747 380.4C802.019 380.4 800.707 381.248 799.811 382.944C798.947 384.64 798.515 386.976 798.515 389.952ZM819.706 402V399.456L823.786 398.496V382.368H819.706V379.824L827.386 378H831.178V380.352C833.13 378.304 835.546 377.28 838.426 377.28C839.674 377.28 840.794 377.472 841.786 377.856C842.81 378.208 843.658 378.72 844.33 379.392C845.034 380.064 845.578 380.864 845.962 381.792C846.346 382.72 846.538 383.728 846.538 384.816V398.496L850.618 399.456V402H836.026V399.456L839.146 398.496V386.16C839.146 385.168 839.082 384.368 838.954 383.76C838.858 383.152 838.682 382.688 838.426 382.368C838.17 382.016 837.818 381.792 837.37 381.696C836.954 381.568 836.426 381.504 835.786 381.504C834.57 381.504 833.034 382.208 831.178 383.616V398.496L834.298 399.456V402H819.706ZM852.618 389.712C852.618 385.936 853.674 382.928 855.786 380.688C857.93 378.416 860.826 377.28 864.474 377.28C868.186 377.28 870.986 378.544 872.874 381.072C874.794 383.6 875.754 386.72 875.754 390.432H860.01C860.234 392.8 861.082 394.848 862.554 396.576C864.026 398.272 865.914 399.12 868.218 399.12C869.946 399.12 871.802 398.752 873.786 398.016L874.794 400.752C871.818 402.064 868.906 402.72 866.058 402.72C861.93 402.72 858.65 401.52 856.218 399.12C853.818 396.688 852.618 393.552 852.618 389.712ZM860.01 387.456L868.122 386.928C868.122 386.16 868.074 385.456 867.978 384.816C867.882 384.144 867.61 383.344 867.162 382.416C866.362 381.072 865.418 380.4 864.33 380.4C863.05 380.4 861.994 381.056 861.162 382.368C860.682 383.168 860.362 384.048 860.202 385.008C860.042 385.968 859.978 386.784 860.01 387.456Z" fill="black"/>
<path d="M1079.54 261.2C1079.54 255.6 1081.03 251.28 1084 248.24C1087.01 245.2 1091.4 243.68 1097.16 243.68C1098.69 243.68 1100.36 243.872 1102.15 244.256C1103.94 244.608 1105.4 245.04 1106.52 245.552V254.432H1103.83L1101.72 247.664C1100.63 247.472 1099.72 247.376 1098.98 247.376C1094.98 247.376 1092.07 248.496 1090.24 250.736C1088.42 252.944 1087.51 256.432 1087.51 261.2C1087.51 265.936 1088.37 269.424 1090.1 271.664C1091.83 273.904 1094.52 275.024 1098.16 275.024C1098.93 275.024 1099.83 274.944 1100.85 274.784L1104.4 267.536H1107.09L1105.84 276.368C1104.72 276.976 1103.28 277.52 1101.52 278C1099.8 278.48 1098.07 278.72 1096.34 278.72C1090.96 278.72 1086.82 277.2 1083.91 274.16C1081 271.088 1079.54 266.768 1079.54 261.2ZM1123.52 278.72C1121.7 278.72 1119.98 278.4 1118.38 277.76C1116.82 277.12 1115.46 276.24 1114.3 275.12C1113.15 274 1112.24 272.656 1111.57 271.088C1110.9 269.52 1110.56 267.808 1110.56 265.952C1110.56 264.096 1110.9 262.4 1111.57 260.864C1112.24 259.296 1113.15 257.952 1114.3 256.832C1115.46 255.712 1116.82 254.848 1118.38 254.24C1119.98 253.6 1121.7 253.28 1123.52 253.28C1125.34 253.28 1127.04 253.6 1128.61 254.24C1130.18 254.848 1131.54 255.712 1132.69 256.832C1133.87 257.952 1134.78 259.296 1135.42 260.864C1136.1 262.4 1136.43 264.096 1136.43 265.952C1136.43 267.776 1136.1 269.472 1135.42 271.04C1134.78 272.608 1133.87 273.968 1132.69 275.12C1131.54 276.24 1130.18 277.12 1128.61 277.76C1127.04 278.4 1125.34 278.72 1123.52 278.72ZM1118.29 265.952C1118.29 268.96 1118.72 271.328 1119.58 273.056C1120.48 274.752 1121.79 275.6 1123.52 275.6C1125.25 275.6 1126.54 274.752 1127.41 273.056C1128.3 271.328 1128.75 268.96 1128.75 265.952C1128.75 262.976 1128.3 260.64 1127.41 258.944C1126.54 257.248 1125.25 256.4 1123.52 256.4C1121.79 256.4 1120.48 257.248 1119.58 258.944C1118.72 260.64 1118.29 262.976 1118.29 265.952ZM1139.48 278V275.456L1143.56 274.496V258.368H1139.48V255.824L1147.16 254H1150.95V256.352C1152.9 254.304 1155.32 253.28 1158.2 253.28C1159.45 253.28 1160.57 253.472 1161.56 253.856C1162.58 254.208 1163.43 254.72 1164.1 255.392C1164.81 256.064 1165.35 256.864 1165.74 257.792C1166.12 258.72 1166.31 259.728 1166.31 260.816V274.496L1170.39 275.456V278H1155.8V275.456L1158.92 274.496V262.16C1158.92 261.168 1158.86 260.368 1158.73 259.76C1158.63 259.152 1158.46 258.688 1158.2 258.368C1157.94 258.016 1157.59 257.792 1157.14 257.696C1156.73 257.568 1156.2 257.504 1155.56 257.504C1154.34 257.504 1152.81 258.208 1150.95 259.616V274.496L1154.07 275.456V278H1139.48ZM1171.09 285.296C1171.09 282.736 1172.52 280.704 1175.37 279.2C1174.5 278.592 1173.81 277.808 1173.3 276.848C1173.11 276.464 1172.95 276.016 1172.82 275.504C1172.73 274.992 1172.71 274.464 1172.77 273.92L1178.29 269.168C1176.63 268.432 1175.33 267.44 1174.41 266.192C1173.48 264.912 1173.01 263.504 1173.01 261.968C1173.01 259.664 1174.1 257.712 1176.28 256.112C1178.45 254.48 1181.21 253.664 1184.53 253.664C1187.41 253.664 1189.91 254.304 1192.02 255.584L1199.51 252.8C1199.89 253.568 1200.09 254.416 1200.09 255.344C1200.09 256.432 1200.02 257.248 1199.89 257.792H1194.61C1195.64 259.136 1196.15 260.528 1196.15 261.968C1196.15 264.336 1195.09 266.32 1192.98 267.92C1190.9 269.488 1188.09 270.272 1184.53 270.272C1183.38 270.272 1182.53 270.256 1181.99 270.224L1179.88 273.152C1180.26 273.792 1180.79 274.192 1181.46 274.352C1182.13 274.48 1183.27 274.544 1184.87 274.544H1188.37C1191.54 274.544 1193.97 275.248 1195.67 276.656C1197.4 278.064 1198.26 280.032 1198.26 282.56C1198.26 285.024 1197.06 287.168 1194.66 288.992C1192.29 290.848 1188.97 291.776 1184.68 291.776C1175.62 291.776 1171.09 289.616 1171.09 285.296ZM1178.39 284.24C1178.39 287.184 1180.44 288.656 1184.53 288.656C1187.22 288.656 1189.29 288.208 1190.73 287.312C1192.17 286.416 1192.89 285.296 1192.89 283.952C1192.89 282.928 1192.47 282.144 1191.64 281.6C1190.81 281.088 1189.29 280.832 1187.08 280.832H1179.45C1178.74 281.824 1178.39 282.96 1178.39 284.24ZM1184.53 267.2C1186.1 267.2 1187.27 266.72 1188.04 265.76C1188.81 264.768 1189.19 263.504 1189.19 261.968C1189.19 260.432 1188.81 259.168 1188.04 258.176C1187.27 257.152 1186.1 256.64 1184.53 256.64C1182.9 256.64 1181.73 257.152 1181.03 258.176C1180.33 259.168 1179.97 260.432 1179.97 261.968C1179.97 263.504 1180.33 264.768 1181.03 265.76C1181.73 266.72 1182.9 267.2 1184.53 267.2ZM1201.49 278V275.456L1205.57 274.496V258.368H1201.49V255.824L1209.17 254H1212.97V256.88C1215.37 254.48 1218.21 253.28 1221.51 253.28C1221.7 253.888 1221.8 254.56 1221.8 255.296C1221.8 256.768 1221.64 258.144 1221.32 259.424L1215.27 258.416C1214.5 258.768 1213.73 259.28 1212.97 259.952V274.496L1218.01 275.456V278H1201.49ZM1223.9 272.048C1223.9 269.264 1225.04 267.152 1227.31 265.712C1229.61 264.24 1233.32 263.504 1238.44 263.504V262.064C1238.44 261.104 1238.43 260.416 1238.4 260C1238.4 259.552 1238.33 259.024 1238.2 258.416C1238.08 257.808 1237.88 257.376 1237.63 257.12C1237.4 256.864 1237.05 256.64 1236.57 256.448C1236.09 256.224 1235.5 256.112 1234.8 256.112L1228.7 261.392C1226.52 260.144 1225.44 258.208 1225.44 255.584L1226.88 254.96C1227.48 254.704 1228.67 254.368 1230.43 253.952C1232.19 253.504 1233.9 253.28 1235.56 253.28C1242.44 253.28 1245.88 256.032 1245.88 261.536V274.4H1249.63V276.464C1249.47 276.624 1249.24 276.832 1248.96 277.088C1248.67 277.344 1248.04 277.68 1247.08 278.096C1246.12 278.512 1245.13 278.72 1244.11 278.72C1241.68 278.72 1239.87 277.904 1238.68 276.272C1236.54 277.904 1234.2 278.72 1231.68 278.72C1229.47 278.72 1227.61 278.16 1226.11 277.04C1224.64 275.92 1223.9 274.256 1223.9 272.048ZM1231.63 271.616C1231.63 272.544 1231.93 273.28 1232.54 273.824C1233.18 274.368 1233.95 274.64 1234.84 274.64C1236.28 274.64 1237.48 274.112 1238.44 273.056V266.48C1236.65 266.48 1235.07 266.96 1233.69 267.92C1232.32 268.848 1231.63 270.08 1231.63 271.616ZM1251.27 257.36V255.44L1259.43 249.632H1261.21V254.24L1267.16 254V257.36H1261.21V271.088C1261.21 272.656 1261.39 273.76 1261.74 274.4C1262.09 275.04 1262.81 275.36 1263.9 275.36C1264.7 275.36 1265.77 275.072 1267.11 274.496L1267.88 277.184C1265.96 278.208 1263.93 278.72 1261.79 278.72C1256.47 278.72 1253.82 276.256 1253.82 271.328V257.36H1251.27ZM1270.09 277.616V270.752H1272.77L1274.5 275.504C1275.65 275.568 1276.57 275.6 1277.24 275.6C1280.98 275.6 1282.85 274.784 1282.85 273.152C1282.85 272.48 1282.52 271.904 1281.85 271.424C1281.17 270.912 1280.53 270.512 1279.93 270.224C1279.32 269.936 1278.17 269.424 1276.47 268.688C1274.26 267.728 1272.65 266.64 1271.62 265.424C1270.63 264.176 1270.13 262.576 1270.13 260.624C1270.13 258.224 1271.09 256.4 1273.01 255.152C1274.97 253.904 1277.51 253.28 1280.65 253.28C1283.49 253.28 1285.94 253.584 1287.99 254.192V260.72H1285.49L1284.01 256.496C1283.05 256.336 1282.09 256.256 1281.13 256.256C1278.05 256.256 1276.52 257.008 1276.52 258.512C1276.52 258.896 1276.66 259.296 1276.95 259.712C1277.24 260.128 1277.75 260.544 1278.49 260.96C1279.25 261.376 1280.45 261.936 1282.09 262.64C1285 263.952 1286.97 265.232 1287.99 266.48C1289.01 267.696 1289.53 269.344 1289.53 271.424C1289.53 273.792 1288.55 275.6 1286.6 276.848C1284.65 278.096 1282.05 278.72 1278.82 278.72C1275.78 278.72 1272.87 278.352 1270.09 277.616ZM1294.25 274.592C1294.25 273.504 1294.65 272.56 1295.45 271.76C1296.28 270.928 1297.26 270.512 1298.38 270.512C1299.5 270.512 1300.46 270.912 1301.26 271.712C1302.06 272.512 1302.46 273.472 1302.46 274.592C1302.46 275.648 1302.06 276.608 1301.26 277.472C1300.46 278.304 1299.5 278.72 1298.38 278.72C1297.26 278.72 1296.28 278.304 1295.45 277.472C1294.65 276.608 1294.25 275.648 1294.25 274.592ZM1294.78 244.4H1301.88L1300.92 268.016H1295.74L1294.78 244.4ZM1026.08 323.2C1026.08 317.6 1027.57 313.28 1030.54 310.24C1033.55 307.2 1037.94 305.68 1043.7 305.68C1045.23 305.68 1046.9 305.872 1048.69 306.256C1050.48 306.608 1051.94 307.04 1053.06 307.552V316.432H1050.37L1048.26 309.664C1047.17 309.472 1046.26 309.376 1045.52 309.376C1041.52 309.376 1038.61 310.496 1036.78 312.736C1034.96 314.944 1034.05 318.432 1034.05 323.2C1034.05 327.936 1034.91 331.424 1036.64 333.664C1038.37 335.904 1041.06 337.024 1044.7 337.024C1045.47 337.024 1046.37 336.944 1047.39 336.784L1050.94 329.536H1053.63L1052.38 338.368C1051.26 338.976 1049.82 339.52 1048.06 340C1046.34 340.48 1044.61 340.72 1042.88 340.72C1037.5 340.72 1033.36 339.2 1030.45 336.16C1027.54 333.088 1026.08 328.768 1026.08 323.2ZM1070.06 340.72C1068.24 340.72 1066.52 340.4 1064.92 339.76C1063.36 339.12 1062 338.24 1060.84 337.12C1059.69 336 1058.78 334.656 1058.11 333.088C1057.44 331.52 1057.1 329.808 1057.1 327.952C1057.1 326.096 1057.44 324.4 1058.11 322.864C1058.78 321.296 1059.69 319.952 1060.84 318.832C1062 317.712 1063.36 316.848 1064.92 316.24C1066.52 315.6 1068.24 315.28 1070.06 315.28C1071.88 315.28 1073.58 315.6 1075.15 316.24C1076.72 316.848 1078.08 317.712 1079.23 318.832C1080.41 319.952 1081.32 321.296 1081.96 322.864C1082.64 324.4 1082.97 326.096 1082.97 327.952C1082.97 329.776 1082.64 331.472 1081.96 333.04C1081.32 334.608 1080.41 335.968 1079.23 337.12C1078.08 338.24 1076.72 339.12 1075.15 339.76C1073.58 340.4 1071.88 340.72 1070.06 340.72ZM1064.83 327.952C1064.83 330.96 1065.26 333.328 1066.12 335.056C1067.02 336.752 1068.33 337.6 1070.06 337.6C1071.79 337.6 1073.08 336.752 1073.95 335.056C1074.84 333.328 1075.29 330.96 1075.29 327.952C1075.29 324.976 1074.84 322.64 1073.95 320.944C1073.08 319.248 1071.79 318.4 1070.06 318.4C1068.33 318.4 1067.02 319.248 1066.12 320.944C1065.26 322.64 1064.83 324.976 1064.83 327.952ZM1086.02 340V337.456L1090.1 336.496V320.368H1086.02V317.824L1093.7 316H1097.49V317.968C1099.67 316.176 1102.03 315.28 1104.59 315.28C1107.83 315.28 1110.19 316.432 1111.7 318.736C1114.23 316.432 1116.98 315.28 1119.95 315.28C1122.45 315.28 1124.43 315.984 1125.91 317.392C1127.41 318.8 1128.16 320.608 1128.16 322.816V336.496L1132.24 337.456V340H1117.65V337.456L1120.77 336.496V323.44C1120.77 321.968 1120.48 320.944 1119.91 320.368C1119.33 319.792 1118.43 319.504 1117.22 319.504C1115.87 319.504 1114.37 320.144 1112.71 321.424C1112.8 321.904 1112.85 322.368 1112.85 322.816V336.496L1115.97 337.456V340H1102.29V337.456L1105.41 336.496V323.44C1105.41 321.968 1105.12 320.944 1104.55 320.368C1103.97 319.792 1103.09 319.504 1101.91 319.504C1100.59 319.504 1099.12 320.08 1097.49 321.232V336.496L1100.61 337.456V340H1086.02ZM1133.97 340V337.456L1138.05 336.496V320.368H1133.97V317.824L1141.65 316H1145.44V317.968C1147.62 316.176 1149.99 315.28 1152.55 315.28C1155.78 315.28 1158.15 316.432 1159.65 318.736C1162.18 316.432 1164.93 315.28 1167.91 315.28C1170.4 315.28 1172.39 315.984 1173.86 317.392C1175.36 318.8 1176.12 320.608 1176.12 322.816V336.496L1180.2 337.456V340H1165.6V337.456L1168.72 336.496V323.44C1168.72 321.968 1168.44 320.944 1167.86 320.368C1167.28 319.792 1166.39 319.504 1165.17 319.504C1163.83 319.504 1162.32 320.144 1160.66 321.424C1160.76 321.904 1160.8 322.368 1160.8 322.816V336.496L1163.92 337.456V340H1150.24V337.456L1153.36 336.496V323.44C1153.36 321.968 1153.08 320.944 1152.5 320.368C1151.92 319.792 1151.04 319.504 1149.86 319.504C1148.55 319.504 1147.08 320.08 1145.44 321.232V336.496L1148.56 337.456V340H1133.97ZM1182.16 327.712C1182.16 323.936 1183.22 320.928 1185.33 318.688C1187.48 316.416 1190.37 315.28 1194.02 315.28C1197.73 315.28 1200.53 316.544 1202.42 319.072C1204.34 321.6 1205.3 324.72 1205.3 328.432H1189.56C1189.78 330.8 1190.63 332.848 1192.1 334.576C1193.57 336.272 1195.46 337.12 1197.76 337.12C1199.49 337.12 1201.35 336.752 1203.33 336.016L1204.34 338.752C1201.36 340.064 1198.45 340.72 1195.6 340.72C1191.48 340.72 1188.2 339.52 1185.76 337.12C1183.36 334.688 1182.16 331.552 1182.16 327.712ZM1189.56 325.456L1197.67 324.928C1197.67 324.16 1197.62 323.456 1197.52 322.816C1197.43 322.144 1197.16 321.344 1196.71 320.416C1195.91 319.072 1194.96 318.4 1193.88 318.4C1192.6 318.4 1191.54 319.056 1190.71 320.368C1190.23 321.168 1189.91 322.048 1189.75 323.008C1189.59 323.968 1189.52 324.784 1189.56 325.456ZM1208.08 340V337.456L1212.16 336.496V320.368H1208.08V317.824L1215.76 316H1219.55V318.352C1221.5 316.304 1223.92 315.28 1226.8 315.28C1228.05 315.28 1229.17 315.472 1230.16 315.856C1231.18 316.208 1232.03 316.72 1232.7 317.392C1233.41 318.064 1233.95 318.864 1234.34 319.792C1234.72 320.72 1234.91 321.728 1234.91 322.816V336.496L1238.99 337.456V340H1224.4V337.456L1227.52 336.496V324.16C1227.52 323.168 1227.46 322.368 1227.33 321.76C1227.23 321.152 1227.06 320.688 1226.8 320.368C1226.54 320.016 1226.19 319.792 1225.74 319.696C1225.33 319.568 1224.8 319.504 1224.16 319.504C1222.94 319.504 1221.41 320.208 1219.55 321.616V336.496L1222.67 337.456V340H1208.08ZM1240.94 327.904C1240.94 324.192 1242.16 321.168 1244.59 318.832C1247.06 316.464 1249.95 315.28 1253.28 315.28C1256.06 315.28 1258.8 315.952 1261.49 317.296C1261.39 319.952 1260.22 321.904 1257.98 323.152L1253.86 318.4H1253.57C1252.22 318.784 1251.04 319.776 1250.02 321.376C1248.99 322.944 1248.48 325.152 1248.48 328C1248.45 331.2 1249.17 333.6 1250.64 335.2C1252.02 336.512 1253.81 337.168 1256.02 337.168C1256.94 337.168 1257.84 337.088 1258.7 336.928C1259.6 336.768 1260.51 336.544 1261.44 336.256L1262.02 339.088C1259.42 340.176 1256.77 340.72 1254.05 340.72C1250.43 340.72 1247.34 339.568 1244.78 337.264C1242.22 334.96 1240.94 331.84 1240.94 327.904ZM1264.24 327.712C1264.24 323.936 1265.3 320.928 1267.41 318.688C1269.55 316.416 1272.45 315.28 1276.1 315.28C1279.81 315.28 1282.61 316.544 1284.5 319.072C1286.42 321.6 1287.38 324.72 1287.38 328.432H1271.63C1271.86 330.8 1272.71 332.848 1274.18 334.576C1275.65 336.272 1277.54 337.12 1279.84 337.12C1281.57 337.12 1283.43 336.752 1285.41 336.016L1286.42 338.752C1283.44 340.064 1280.53 340.72 1277.68 340.72C1273.55 340.72 1270.27 339.52 1267.84 337.12C1265.44 334.688 1264.24 331.552 1264.24 327.712ZM1271.63 325.456L1279.75 324.928C1279.75 324.16 1279.7 323.456 1279.6 322.816C1279.51 322.144 1279.23 321.344 1278.79 320.416C1277.99 319.072 1277.04 318.4 1275.95 318.4C1274.67 318.4 1273.62 319.056 1272.79 320.368C1272.31 321.168 1271.99 322.048 1271.83 323.008C1271.67 323.968 1271.6 324.784 1271.63 325.456ZM1290.06 340V337.6L1302.21 319.072H1295.68L1293.37 323.92H1291.17L1291.69 316H1311.28V318.352L1299.23 336.88H1306.43L1308.93 331.552H1311.28L1310.8 340H1290.06ZM1323.35 340V337.312L1328.05 336.208L1339.52 306.16H1343.7L1354.45 336.208L1359.06 337.312V340H1342.79V337.312L1346.2 336.496L1344.13 330.736H1334.05L1331.89 336.352L1335.92 337.312V340H1323.35ZM1335.35 327.424H1342.93L1339.19 317.2L1335.35 327.424ZM1333.72 300.208C1334.23 299.12 1334.92 298.16 1335.78 297.328C1336.68 296.464 1337.51 295.904 1338.28 295.648L1345.14 301.792L1343.27 304.096L1333.72 300.208ZM1089.26 367.68C1092.62 367.68 1095.74 368.304 1098.62 369.552V378.432H1095.93L1093.72 371.328C1092.86 371.2 1091.98 371.136 1091.08 371.136C1087.21 371.136 1084.17 372.336 1081.96 374.736C1079.75 377.136 1078.65 380.624 1078.65 385.2C1078.65 394.576 1082.47 399.264 1090.12 399.264C1090.6 399.264 1091.06 399.248 1091.51 399.216V390.096L1086.04 388.416V386.208H1102.89V388.416L1099.34 390.096V400.368C1098.7 400.688 1097.94 400.992 1097.08 401.28C1096.22 401.568 1095.29 401.808 1094.3 402C1093.3 402.224 1092.3 402.4 1091.27 402.528C1090.25 402.656 1089.26 402.72 1088.3 402.72C1082.63 402.72 1078.28 401.2 1075.24 398.16C1072.2 395.12 1070.68 390.8 1070.68 385.2C1070.68 379.6 1072.28 375.28 1075.48 372.24C1078.68 369.2 1083.27 367.68 1089.26 367.68ZM1104.84 396.048C1104.84 393.264 1105.97 391.152 1108.25 389.712C1110.55 388.24 1114.26 387.504 1119.38 387.504V386.064C1119.38 385.104 1119.37 384.416 1119.33 384C1119.33 383.552 1119.27 383.024 1119.14 382.416C1119.01 381.808 1118.82 381.376 1118.57 381.12C1118.34 380.864 1117.99 380.64 1117.51 380.448C1117.03 380.224 1116.44 380.112 1115.73 380.112L1109.64 385.392C1107.46 384.144 1106.37 382.208 1106.37 379.584L1107.81 378.96C1108.42 378.704 1109.61 378.368 1111.37 377.952C1113.13 377.504 1114.84 377.28 1116.5 377.28C1123.38 377.28 1126.82 380.032 1126.82 385.536V398.4H1130.57V400.464C1130.41 400.624 1130.18 400.832 1129.89 401.088C1129.61 401.344 1128.98 401.68 1128.02 402.096C1127.06 402.512 1126.07 402.72 1125.05 402.72C1122.61 402.72 1120.81 401.904 1119.62 400.272C1117.48 401.904 1115.14 402.72 1112.61 402.72C1110.41 402.72 1108.55 402.16 1107.05 401.04C1105.57 399.92 1104.84 398.256 1104.84 396.048ZM1112.57 395.616C1112.57 396.544 1112.87 397.28 1113.48 397.824C1114.12 398.368 1114.89 398.64 1115.78 398.64C1117.22 398.64 1118.42 398.112 1119.38 397.056V390.48C1117.59 390.48 1116.01 390.96 1114.63 391.92C1113.25 392.848 1112.57 394.08 1112.57 395.616ZM1131.25 409.296C1131.25 406.736 1132.68 404.704 1135.52 403.2C1134.66 402.592 1133.97 401.808 1133.46 400.848C1133.27 400.464 1133.11 400.016 1132.98 399.504C1132.88 398.992 1132.87 398.464 1132.93 397.92L1138.45 393.168C1136.79 392.432 1135.49 391.44 1134.56 390.192C1133.64 388.912 1133.17 387.504 1133.17 385.968C1133.17 383.664 1134.26 381.712 1136.44 380.112C1138.61 378.48 1141.36 377.664 1144.69 377.664C1147.57 377.664 1150.07 378.304 1152.18 379.584L1159.67 376.8C1160.05 377.568 1160.24 378.416 1160.24 379.344C1160.24 380.432 1160.18 381.248 1160.05 381.792H1154.77C1155.8 383.136 1156.31 384.528 1156.31 385.968C1156.31 388.336 1155.25 390.32 1153.14 391.92C1151.06 393.488 1148.24 394.272 1144.69 394.272C1143.54 394.272 1142.69 394.256 1142.15 394.224L1140.04 397.152C1140.42 397.792 1140.95 398.192 1141.62 398.352C1142.29 398.48 1143.43 398.544 1145.03 398.544H1148.53C1151.7 398.544 1154.13 399.248 1155.83 400.656C1157.56 402.064 1158.42 404.032 1158.42 406.56C1158.42 409.024 1157.22 411.168 1154.82 412.992C1152.45 414.848 1149.12 415.776 1144.84 415.776C1135.78 415.776 1131.25 413.616 1131.25 409.296ZM1138.55 408.24C1138.55 411.184 1140.6 412.656 1144.69 412.656C1147.38 412.656 1149.44 412.208 1150.88 411.312C1152.32 410.416 1153.04 409.296 1153.04 407.952C1153.04 406.928 1152.63 406.144 1151.8 405.6C1150.96 405.088 1149.44 404.832 1147.24 404.832H1139.6C1138.9 405.824 1138.55 406.96 1138.55 408.24ZM1144.69 391.2C1146.26 391.2 1147.43 390.72 1148.2 389.76C1148.96 388.768 1149.35 387.504 1149.35 385.968C1149.35 384.432 1148.96 383.168 1148.2 382.176C1147.43 381.152 1146.26 380.64 1144.69 380.64C1143.06 380.64 1141.89 381.152 1141.19 382.176C1140.48 383.168 1140.13 384.432 1140.13 385.968C1140.13 387.504 1140.48 388.768 1141.19 389.76C1141.89 390.72 1143.06 391.2 1144.69 391.2ZM1161.65 402V399.456L1165.73 398.496V382.368H1161.65V379.824L1169.33 378H1173.12V380.352C1175.07 378.304 1177.49 377.28 1180.37 377.28C1181.62 377.28 1182.74 377.472 1183.73 377.856C1184.75 378.208 1185.6 378.72 1186.27 379.392C1186.98 380.064 1187.52 380.864 1187.91 381.792C1188.29 382.72 1188.48 383.728 1188.48 384.816V398.496L1192.56 399.456V402H1177.97V399.456L1181.09 398.496V386.16C1181.09 385.168 1181.03 384.368 1180.9 383.76C1180.8 383.152 1180.63 382.688 1180.37 382.368C1180.11 382.016 1179.76 381.792 1179.31 381.696C1178.9 381.568 1178.37 381.504 1177.73 381.504C1176.51 381.504 1174.98 382.208 1173.12 383.616V398.496L1176.24 399.456V402H1161.65ZM1194.56 389.712C1194.56 385.936 1195.62 382.928 1197.73 380.688C1199.87 378.416 1202.77 377.28 1206.42 377.28C1210.13 377.28 1212.93 378.544 1214.82 381.072C1216.74 383.6 1217.7 386.72 1217.7 390.432H1201.95C1202.18 392.8 1203.03 394.848 1204.5 396.576C1205.97 398.272 1207.86 399.12 1210.16 399.12C1211.89 399.12 1213.75 398.752 1215.73 398.016L1216.74 400.752C1213.76 402.064 1210.85 402.72 1208 402.72C1203.87 402.72 1200.59 401.52 1198.16 399.12C1195.76 396.688 1194.56 393.552 1194.56 389.712ZM1201.95 387.456L1210.07 386.928C1210.07 386.16 1210.02 385.456 1209.92 384.816C1209.83 384.144 1209.55 383.344 1209.11 382.416C1208.31 381.072 1207.36 380.4 1206.27 380.4C1204.99 380.4 1203.94 381.056 1203.11 382.368C1202.63 383.168 1202.31 384.048 1202.15 385.008C1201.99 385.968 1201.92 386.784 1201.95 387.456ZM1220.48 402V399.456L1224.56 398.496V382.368H1220.48V379.824L1228.16 378H1231.95V380.88C1234.35 378.48 1237.2 377.28 1240.5 377.28C1240.69 377.888 1240.78 378.56 1240.78 379.296C1240.78 380.768 1240.62 382.144 1240.3 383.424L1234.26 382.416C1233.49 382.768 1232.72 383.28 1231.95 383.952V398.496L1236.99 399.456V402H1220.48ZM1253.72 402V399.312L1258.13 398.256V372.144L1253.72 371.088V368.4H1268.12C1273.94 368.4 1278.39 369.952 1281.46 373.056C1284.56 376.128 1286.12 380.176 1286.12 385.2C1286.12 390.544 1284.48 394.688 1281.22 397.632C1277.96 400.544 1273.59 402 1268.12 402H1253.72ZM1265.96 398.304H1267.4C1270.88 398.304 1273.54 397.168 1275.36 394.896C1277.22 392.624 1278.15 389.392 1278.15 385.2C1278.15 380.976 1277.22 377.744 1275.36 375.504C1273.54 373.232 1270.88 372.096 1267.4 372.096H1265.96V398.304ZM1289.86 389.712C1289.86 385.936 1290.92 382.928 1293.03 380.688C1295.17 378.416 1298.07 377.28 1301.72 377.28C1305.43 377.28 1308.23 378.544 1310.12 381.072C1312.04 383.6 1313 386.72 1313 390.432H1297.25C1297.48 392.8 1298.32 394.848 1299.8 396.576C1301.27 398.272 1303.16 399.12 1305.46 399.12C1307.19 399.12 1309.04 398.752 1311.03 398.016L1312.04 400.752C1309.06 402.064 1306.15 402.72 1303.3 402.72C1299.17 402.72 1295.89 401.52 1293.46 399.12C1291.06 396.688 1289.86 393.552 1289.86 389.712ZM1297.25 387.456L1305.36 386.928C1305.36 386.16 1305.32 385.456 1305.22 384.816C1305.12 384.144 1304.85 383.344 1304.4 382.416C1303.6 381.072 1302.66 380.4 1301.57 380.4C1300.29 380.4 1299.24 381.056 1298.4 382.368C1297.92 383.168 1297.6 384.048 1297.44 385.008C1297.28 385.968 1297.22 386.784 1297.25 387.456ZM1088.76 464V461.312L1093.18 460.256V434.144L1088.76 433.088V430.4H1105.42V433.088L1101 434.144V460.304H1109.74L1113 453.632H1115.69L1114.25 464H1088.76ZM1115.02 441.872C1116.91 439.92 1118.39 437.84 1119.48 435.632L1115.59 433.184C1115.59 431.872 1116.03 430.784 1116.89 429.92C1117.79 429.056 1118.83 428.624 1120.01 428.624C1121.45 428.624 1122.55 429.04 1123.32 429.872C1124.09 430.672 1124.47 431.824 1124.47 433.328C1124.47 435.184 1123.69 437.136 1122.12 439.184C1120.59 441.232 1118.97 442.8 1117.27 443.888L1115.02 441.872ZM1126.73 458.048C1126.73 455.264 1127.87 453.152 1130.14 451.712C1132.44 450.24 1136.15 449.504 1141.27 449.504V448.064C1141.27 447.104 1141.26 446.416 1141.23 446C1141.23 445.552 1141.16 445.024 1141.03 444.416C1140.91 443.808 1140.71 443.376 1140.46 443.12C1140.23 442.864 1139.88 442.64 1139.4 442.448C1138.92 442.224 1138.33 442.112 1137.63 442.112L1131.53 447.392C1129.35 446.144 1128.27 444.208 1128.27 441.584L1129.71 440.96C1130.31 440.704 1131.5 440.368 1133.26 439.952C1135.02 439.504 1136.73 439.28 1138.39 439.28C1145.27 439.28 1148.71 442.032 1148.71 447.536V460.4H1152.46V462.464C1152.3 462.624 1152.07 462.832 1151.79 463.088C1151.5 463.344 1150.87 463.68 1149.91 464.096C1148.95 464.512 1147.96 464.72 1146.94 464.72C1144.51 464.72 1142.7 463.904 1141.51 462.272C1139.37 463.904 1137.03 464.72 1134.51 464.72C1132.3 464.72 1130.44 464.16 1128.94 463.04C1127.47 461.92 1126.73 460.256 1126.73 458.048ZM1134.46 457.616C1134.46 458.544 1134.76 459.28 1135.37 459.824C1136.01 460.368 1136.78 460.64 1137.67 460.64C1139.11 460.64 1140.31 460.112 1141.27 459.056V452.48C1139.48 452.48 1137.9 452.96 1136.52 453.92C1135.15 454.848 1134.46 456.08 1134.46 457.616ZM1154.2 464V461.456L1158.28 460.496V444.368H1154.2V441.824L1161.88 440H1165.67V442.88C1168.07 440.48 1170.92 439.28 1174.21 439.28C1174.41 439.888 1174.5 440.56 1174.5 441.296C1174.5 442.768 1174.34 444.144 1174.02 445.424L1167.97 444.416C1167.21 444.768 1166.44 445.28 1165.67 445.952V460.496L1170.71 461.456V464H1154.2ZM1175.55 471.296C1175.55 468.736 1176.97 466.704 1179.82 465.2C1178.96 464.592 1178.27 463.808 1177.76 462.848C1177.56 462.464 1177.4 462.016 1177.28 461.504C1177.18 460.992 1177.16 460.464 1177.23 459.92L1182.75 455.168C1181.08 454.432 1179.79 453.44 1178.86 452.192C1177.93 450.912 1177.47 449.504 1177.47 447.968C1177.47 445.664 1178.56 443.712 1180.73 442.112C1182.91 440.48 1185.66 439.664 1188.99 439.664C1191.87 439.664 1194.36 440.304 1196.48 441.584L1203.96 438.8C1204.35 439.568 1204.54 440.416 1204.54 441.344C1204.54 442.432 1204.48 443.248 1204.35 443.792H1199.07C1200.09 445.136 1200.6 446.528 1200.6 447.968C1200.6 450.336 1199.55 452.32 1197.44 453.92C1195.36 455.488 1192.54 456.272 1188.99 456.272C1187.84 456.272 1186.99 456.256 1186.44 456.224L1184.33 459.152C1184.72 459.792 1185.24 460.192 1185.92 460.352C1186.59 460.48 1187.72 460.544 1189.32 460.544H1192.83C1196 460.544 1198.43 461.248 1200.12 462.656C1201.85 464.064 1202.72 466.032 1202.72 468.56C1202.72 471.024 1201.52 473.168 1199.12 474.992C1196.75 476.848 1193.42 477.776 1189.13 477.776C1180.08 477.776 1175.55 475.616 1175.55 471.296ZM1182.84 470.24C1182.84 473.184 1184.89 474.656 1188.99 474.656C1191.68 474.656 1193.74 474.208 1195.18 473.312C1196.62 472.416 1197.34 471.296 1197.34 469.952C1197.34 468.928 1196.92 468.144 1196.09 467.6C1195.26 467.088 1193.74 466.832 1191.53 466.832H1183.9C1183.2 467.824 1182.84 468.96 1182.84 470.24ZM1188.99 453.2C1190.56 453.2 1191.72 452.72 1192.49 451.76C1193.26 450.768 1193.64 449.504 1193.64 447.968C1193.64 446.432 1193.26 445.168 1192.49 444.176C1191.72 443.152 1190.56 442.64 1188.99 442.64C1187.36 442.64 1186.19 443.152 1185.48 444.176C1184.78 445.168 1184.43 446.432 1184.43 447.968C1184.43 449.504 1184.78 450.768 1185.48 451.76C1186.19 452.72 1187.36 453.2 1188.99 453.2ZM1206.19 451.712C1206.19 447.936 1207.24 444.928 1209.36 442.688C1211.5 440.416 1214.4 439.28 1218.04 439.28C1221.76 439.28 1224.56 440.544 1226.44 443.072C1228.36 445.6 1229.32 448.72 1229.32 452.432H1213.58C1213.8 454.8 1214.65 456.848 1216.12 458.576C1217.6 460.272 1219.48 461.12 1221.79 461.12C1223.52 461.12 1225.37 460.752 1227.36 460.016L1228.36 462.752C1225.39 464.064 1222.48 464.72 1219.63 464.72C1215.5 464.72 1212.22 463.52 1209.79 461.12C1207.39 458.688 1206.19 455.552 1206.19 451.712ZM1213.58 449.456L1221.69 448.928C1221.69 448.16 1221.64 447.456 1221.55 446.816C1221.45 446.144 1221.18 445.344 1220.73 444.416C1219.93 443.072 1218.99 442.4 1217.9 442.4C1216.62 442.4 1215.56 443.056 1214.73 444.368C1214.25 445.168 1213.93 446.048 1213.77 447.008C1213.61 447.968 1213.55 448.784 1213.58 449.456ZM1232.1 464V461.456L1236.18 460.496V444.368H1232.1V441.824L1239.78 440H1243.58V442.352C1245.53 440.304 1247.94 439.28 1250.82 439.28C1252.07 439.28 1253.19 439.472 1254.18 439.856C1255.21 440.208 1256.06 440.72 1256.73 441.392C1257.43 442.064 1257.98 442.864 1258.36 443.792C1258.74 444.72 1258.94 445.728 1258.94 446.816V460.496L1263.02 461.456V464H1248.42V461.456L1251.54 460.496V448.16C1251.54 447.168 1251.48 446.368 1251.35 445.76C1251.26 445.152 1251.08 444.688 1250.82 444.368C1250.57 444.016 1250.22 443.792 1249.77 443.696C1249.35 443.568 1248.82 443.504 1248.18 443.504C1246.97 443.504 1245.43 444.208 1243.58 445.616V460.496L1246.7 461.456V464H1232.1ZM1264.68 443.36V441.44L1272.84 435.632H1274.62V440.24L1280.57 440V443.36H1274.62V457.088C1274.62 458.656 1274.79 459.76 1275.14 460.4C1275.5 461.04 1276.22 461.36 1277.3 461.36C1278.1 461.36 1279.18 461.072 1280.52 460.496L1281.29 463.184C1279.37 464.208 1277.34 464.72 1275.19 464.72C1269.88 464.72 1267.22 462.256 1267.22 457.328V443.36H1264.68ZM1284.55 460.592C1284.55 459.504 1284.95 458.56 1285.75 457.76C1286.58 456.928 1287.56 456.512 1288.68 456.512C1289.8 456.512 1290.76 456.912 1291.56 457.712C1292.36 458.512 1292.76 459.472 1292.76 460.592C1292.76 461.648 1292.36 462.608 1291.56 463.472C1290.76 464.304 1289.8 464.72 1288.68 464.72C1287.56 464.72 1286.58 464.304 1285.75 463.472C1284.95 462.608 1284.55 461.648 1284.55 460.592ZM1285.08 430.4H1292.18L1291.22 454.016H1286.04L1285.08 430.4Z" fill="black"/>
</svg>
