<svg width="1440" height="463" viewBox="0 0 1440 463" fill="none" xmlns="http://www.w3.org/2000/svg">
<path d="M230.232 213V209.64L235.752 208.32V175.68L230.232 174.36V171H248.592C253.272 171 256.992 171.82 259.752 173.46C262.512 175.06 263.892 177.64 263.892 181.2C263.892 183.36 263.112 185.32 261.552 187.08C259.992 188.8 258.152 189.92 256.032 190.44V190.62C259.352 191.22 261.992 192.46 263.952 194.34C265.912 196.18 266.892 198.46 266.892 201.18C266.892 204.74 265.372 207.6 262.332 209.76C259.292 211.92 255.452 213 250.812 213H230.232ZM245.532 208.74H247.632C253.832 208.74 256.932 206.22 256.932 201.18C256.932 198.74 256.172 196.84 254.652 195.48C253.172 194.12 250.932 193.44 247.932 193.44H245.532V208.74ZM245.532 189.06H246.372C248.492 189.06 250.272 188.42 251.712 187.14C253.192 185.86 253.932 184.06 253.932 181.74C253.932 177.42 251.292 175.26 246.012 175.26H245.532V189.06ZM270.899 197.64C270.899 192.92 272.219 189.16 274.859 186.36C277.539 183.52 281.159 182.1 285.719 182.1C290.359 182.1 293.859 183.68 296.219 186.84C298.619 190 299.819 193.9 299.819 198.54H280.139C280.419 201.5 281.479 204.06 283.319 206.22C285.159 208.34 287.519 209.4 290.399 209.4C292.559 209.4 294.879 208.94 297.359 208.02L298.619 211.44C294.899 213.08 291.259 213.9 287.699 213.9C282.539 213.9 278.439 212.4 275.399 209.4C272.399 206.36 270.899 202.44 270.899 197.64ZM280.139 194.82L290.279 194.16C290.279 193.2 290.219 192.32 290.099 191.52C289.979 190.68 289.639 189.68 289.079 188.52C288.079 186.84 286.899 186 285.539 186C283.939 186 282.619 186.82 281.579 188.46C280.979 189.46 280.579 190.56 280.379 191.76C280.179 192.96 280.099 193.98 280.139 194.82ZM283.439 177.54L289.499 166.98C292.379 167.46 294.739 168.5 296.579 170.1L287.039 179.16L283.439 177.54ZM303.294 213V209.82L308.394 208.62V188.46H303.294V185.28L312.894 183H317.634V185.94C320.074 183.38 323.094 182.1 326.694 182.1C328.254 182.1 329.654 182.34 330.894 182.82C332.174 183.26 333.234 183.9 334.074 184.74C334.954 185.58 335.634 186.58 336.114 187.74C336.594 188.9 336.834 190.16 336.834 191.52V208.62L341.934 209.82V213H323.694V209.82L327.594 208.62V193.2C327.594 191.96 327.514 190.96 327.354 190.2C327.234 189.44 327.014 188.86 326.694 188.46C326.374 188.02 325.934 187.74 325.374 187.62C324.854 187.46 324.194 187.38 323.394 187.38C321.874 187.38 319.954 188.26 317.634 190.02V208.62L321.534 209.82V213H303.294ZM344.134 213V209.82L349.234 208.62V188.46H344.134V185.28L353.734 183H358.474V208.62L363.574 209.82V213H344.134ZM348.274 173.76C348.274 172.2 348.814 170.9 349.894 169.86C350.974 168.78 352.294 168.24 353.854 168.24C355.454 168.24 356.774 168.78 357.814 169.86C358.894 170.9 359.434 172.2 359.434 173.76C359.434 175.36 358.894 176.7 357.814 177.78C356.774 178.86 355.454 179.4 353.854 179.4C352.294 179.4 350.974 178.86 349.894 177.78C348.814 176.7 348.274 175.36 348.274 173.76ZM366.102 213V209.82L371.202 208.62V186.84H366.162V183.42L371.202 183.06V178.56C371.202 173.88 372.262 170.3 374.382 167.82C376.542 165.34 379.622 164.1 383.622 164.1C385.302 164.1 387.062 164.28 388.902 164.64C390.742 164.96 392.162 165.28 393.162 165.6L394.662 166.08C394.702 167.48 394.362 168.86 393.642 170.22C392.962 171.54 392.082 172.48 391.002 173.04L386.022 168C385.222 168 384.522 168.12 383.922 168.36C383.362 168.6 382.782 169.06 382.182 169.74C381.622 170.42 381.182 171.5 380.862 172.98C380.582 174.46 380.442 176.32 380.442 178.56V182.46L388.662 181.92V186.84H380.442V208.62L387.522 209.82V213H366.102ZM391.771 213V209.82L396.871 208.62V188.46H391.771V185.28L401.371 183H406.111V208.62L411.211 209.82V213H391.771ZM395.911 173.76C395.911 172.2 396.451 170.9 397.531 169.86C398.611 168.78 399.931 168.24 401.491 168.24C403.091 168.24 404.411 168.78 405.451 169.86C406.531 170.9 407.071 172.2 407.071 173.76C407.071 175.36 406.531 176.7 405.451 177.78C404.411 178.86 403.091 179.4 401.491 179.4C399.931 179.4 398.611 178.86 397.531 177.78C396.451 176.7 395.911 175.36 395.911 173.76ZM413.808 197.88C413.808 193.24 415.328 189.46 418.368 186.54C421.448 183.58 425.068 182.1 429.228 182.1C432.708 182.1 436.128 182.94 439.488 184.62C439.368 187.94 437.908 190.38 435.108 191.94L429.948 186H429.588C427.908 186.48 426.428 187.72 425.148 189.72C423.868 191.68 423.228 194.44 423.228 198C423.188 202 424.088 205 425.928 207C427.648 208.64 429.888 209.46 432.648 209.46C433.808 209.46 434.928 209.36 436.008 209.16C437.128 208.96 438.268 208.68 439.428 208.32L440.148 211.86C436.908 213.22 433.588 213.9 430.188 213.9C425.668 213.9 421.808 212.46 418.608 209.58C415.408 206.7 413.808 202.8 413.808 197.88ZM443.099 213V209.82L448.199 208.62V188.46H443.099V185.28L452.699 183H457.439V208.62L462.539 209.82V213H443.099ZM447.239 173.76C447.239 172.2 447.779 170.9 448.859 169.86C449.939 168.78 451.259 168.24 452.819 168.24C454.419 168.24 455.739 168.78 456.779 169.86C457.859 170.9 458.399 172.2 458.399 173.76C458.399 175.36 457.859 176.7 456.779 177.78C455.739 178.86 454.419 179.4 452.819 179.4C451.259 179.4 449.939 178.86 448.859 177.78C447.779 176.7 447.239 175.36 447.239 173.76ZM465.196 197.64C465.196 192.92 466.516 189.16 469.156 186.36C471.836 183.52 475.456 182.1 480.016 182.1C484.656 182.1 488.156 183.68 490.516 186.84C492.916 190 494.116 193.9 494.116 198.54H474.436C474.716 201.5 475.776 204.06 477.616 206.22C479.456 208.34 481.816 209.4 484.696 209.4C486.856 209.4 489.176 208.94 491.656 208.02L492.916 211.44C489.196 213.08 485.556 213.9 481.996 213.9C476.836 213.9 472.736 212.4 469.696 209.4C466.696 206.36 465.196 202.44 465.196 197.64ZM474.436 194.82L484.576 194.16C484.576 193.2 484.516 192.32 484.396 191.52C484.276 190.68 483.936 189.68 483.376 188.52C482.376 186.84 481.196 186 479.836 186C478.236 186 476.916 186.82 475.876 188.46C475.276 189.46 474.876 190.56 474.676 191.76C474.476 192.96 474.396 193.98 474.436 194.82ZM497.591 213V209.82L502.691 208.62V188.46H497.591V185.28L507.191 183H511.931V186.6C514.931 183.6 518.491 182.1 522.611 182.1C522.851 182.86 522.971 183.7 522.971 184.62C522.971 186.46 522.771 188.18 522.371 189.78L514.811 188.52C513.851 188.96 512.891 189.6 511.931 190.44V208.62L518.231 209.82V213H497.591ZM539.138 213V209.64L544.658 208.32V175.68L539.138 174.36V171H557.138C564.418 171 569.978 172.94 573.818 176.82C577.698 180.66 579.638 185.72 579.638 192C579.638 198.68 577.598 203.86 573.518 207.54C569.438 211.18 563.978 213 557.138 213H539.138ZM554.438 208.38H556.238C560.598 208.38 563.918 206.96 566.198 204.12C568.518 201.28 569.678 197.24 569.678 192C569.678 186.72 568.518 182.68 566.198 179.88C563.918 177.04 560.598 175.62 556.238 175.62H554.438V208.38ZM584.437 185.34C586.797 182.9 588.657 180.3 590.017 177.54L585.157 174.48C585.157 172.84 585.697 171.48 586.777 170.4C587.897 169.32 589.197 168.78 590.677 168.78C592.477 168.78 593.857 169.3 594.817 170.34C595.777 171.34 596.257 172.78 596.257 174.66C596.257 176.98 595.277 179.42 593.317 181.98C591.397 184.54 589.377 186.5 587.257 187.86L584.437 185.34ZM598.343 186.18V183H612.683V203.7C612.683 205.74 612.923 207.16 613.403 207.96C613.923 208.72 614.943 209.1 616.463 209.1C617.623 209.1 618.823 208.8 620.063 208.2C621.303 207.6 622.303 206.8 623.063 205.8V187.38L619.163 186.18V183H632.363V208.5H637.043V211.08C636.163 211.68 635.443 212.12 634.883 212.4C634.363 212.64 633.763 212.88 633.083 213.12C632.443 213.4 631.763 213.6 631.043 213.72C630.363 213.84 629.723 213.9 629.123 213.9C626.243 213.9 624.223 212.6 623.063 210C620.223 212.6 616.743 213.9 612.623 213.9C606.503 213.9 603.443 210.76 603.443 204.48V187.38L598.343 186.18ZM639.622 213V209.82L644.722 208.62V188.46H639.622V185.28L649.222 183H653.962V185.94C656.402 183.38 659.422 182.1 663.022 182.1C664.582 182.1 665.982 182.34 667.222 182.82C668.502 183.26 669.562 183.9 670.402 184.74C671.282 185.58 671.962 186.58 672.442 187.74C672.922 188.9 673.162 190.16 673.162 191.52V208.62L678.262 209.82V213H660.022V209.82L663.922 208.62V193.2C663.922 191.96 663.842 190.96 663.682 190.2C663.562 189.44 663.342 188.86 663.022 188.46C662.702 188.02 662.262 187.74 661.702 187.62C661.182 187.46 660.522 187.38 659.722 187.38C658.202 187.38 656.282 188.26 653.962 190.02V208.62L657.862 209.82V213H639.622ZM981.544 211.08V200.04H984.904L987.964 208.44C989.644 209.04 991.744 209.34 994.264 209.34C996.984 209.34 999.324 208.86 1001.28 207.9C1003.28 206.94 1004.28 205.52 1004.28 203.64C1004.28 203.2 1004.22 202.78 1004.1 202.38C1004.02 201.98 1003.86 201.6 1003.62 201.24C1003.38 200.88 1003.14 200.56 1002.9 200.28C1002.66 199.96 1002.3 199.64 1001.82 199.32C1001.34 198.96 1000.92 198.68 1000.56 198.48C1000.2 198.24 999.664 197.94 998.944 197.58C998.264 197.22 997.044 196.62 995.284 195.78L993.124 194.76C989.164 192.84 986.324 190.84 984.604 188.76C982.884 186.64 982.024 184.04 982.024 180.96C982.024 177.68 983.384 175.06 986.104 173.1C988.824 171.1 992.344 170.1 996.664 170.1C1001.5 170.1 1005.86 170.72 1009.74 171.96V183H1006.38L1003.44 174.96C1001.8 174.6 1000.22 174.42 998.704 174.42C996.344 174.42 994.324 174.84 992.644 175.68C990.964 176.48 990.124 177.66 990.124 179.22C990.124 180.62 990.784 181.8 992.104 182.76C993.464 183.68 995.864 184.9 999.304 186.42L1000.5 186.96C1004.58 188.8 1007.58 190.84 1009.5 193.08C1011.42 195.32 1012.38 198.04 1012.38 201.24C1012.38 204.24 1011.62 206.7 1010.1 208.62C1008.62 210.5 1006.66 211.86 1004.22 212.7C1001.78 213.5 999.004 213.9 995.884 213.9C990.924 213.9 986.144 212.96 981.544 211.08ZM1016.86 197.64C1016.86 192.92 1018.18 189.16 1020.82 186.36C1023.5 183.52 1027.12 182.1 1031.68 182.1C1036.32 182.1 1039.82 183.68 1042.18 186.84C1044.58 190 1045.78 193.9 1045.78 198.54H1026.1C1026.38 201.5 1027.44 204.06 1029.28 206.22C1031.12 208.34 1033.48 209.4 1036.36 209.4C1038.52 209.4 1040.84 208.94 1043.32 208.02L1044.58 211.44C1040.86 213.08 1037.22 213.9 1033.66 213.9C1028.5 213.9 1024.4 212.4 1021.36 209.4C1018.36 206.36 1016.86 202.44 1016.86 197.64ZM1026.1 194.82L1036.24 194.16C1036.24 193.2 1036.18 192.32 1036.06 191.52C1035.94 190.68 1035.6 189.68 1035.04 188.52C1034.04 186.84 1032.86 186 1031.5 186C1029.9 186 1028.58 186.82 1027.54 188.46C1026.94 189.46 1026.54 190.56 1026.34 191.76C1026.14 192.96 1026.06 193.98 1026.1 194.82ZM1049.25 213V209.82L1054.35 208.62V188.46H1049.25V185.28L1058.85 183H1063.59V186.6C1066.59 183.6 1070.15 182.1 1074.27 182.1C1074.51 182.86 1074.63 183.7 1074.63 184.62C1074.63 186.46 1074.43 188.18 1074.03 189.78L1066.47 188.52C1065.51 188.96 1064.55 189.6 1063.59 190.44V208.62L1069.89 209.82V213H1049.25ZM1075.22 186.18V183H1093.58V186.18L1089.5 187.14L1095.56 201.48L1101.5 187.2L1097.54 186.18V183H1110.56V186.18L1105.52 187.5L1094.84 213.42H1090.64L1079.54 187.44L1075.22 186.18ZM1112.06 213V209.82L1117.16 208.62V188.46H1112.06V185.28L1121.66 183H1126.4V208.62L1131.5 209.82V213H1112.06ZM1116.2 173.76C1116.2 172.2 1116.74 170.9 1117.82 169.86C1118.9 168.78 1120.22 168.24 1121.78 168.24C1123.38 168.24 1124.7 168.78 1125.74 169.86C1126.82 170.9 1127.36 172.2 1127.36 173.76C1127.36 175.36 1126.82 176.7 1125.74 177.78C1124.7 178.86 1123.38 179.4 1121.78 179.4C1120.22 179.4 1118.9 178.86 1117.82 177.78C1116.74 176.7 1116.2 175.36 1116.2 173.76ZM1134.1 197.88C1134.1 193.24 1135.62 189.46 1138.66 186.54C1141.74 183.58 1145.36 182.1 1149.52 182.1C1153 182.1 1156.42 182.94 1159.78 184.62C1159.66 187.94 1158.2 190.38 1155.4 191.94L1150.24 186H1149.88C1148.2 186.48 1146.72 187.72 1145.44 189.72C1144.16 191.68 1143.52 194.44 1143.52 198C1143.48 202 1144.38 205 1146.22 207C1147.94 208.64 1150.18 209.46 1152.94 209.46C1154.1 209.46 1155.22 209.36 1156.3 209.16C1157.42 208.96 1158.56 208.68 1159.72 208.32L1160.44 211.86C1157.2 213.22 1153.88 213.9 1150.48 213.9C1145.96 213.9 1142.1 212.46 1138.9 209.58C1135.7 206.7 1134.1 202.8 1134.1 197.88ZM1163.22 197.64C1163.22 192.92 1164.54 189.16 1167.18 186.36C1169.86 183.52 1173.48 182.1 1178.04 182.1C1182.68 182.1 1186.18 183.68 1188.54 186.84C1190.94 190 1192.14 193.9 1192.14 198.54H1172.46C1172.74 201.5 1173.8 204.06 1175.64 206.22C1177.48 208.34 1179.84 209.4 1182.72 209.4C1184.88 209.4 1187.2 208.94 1189.68 208.02L1190.94 211.44C1187.22 213.08 1183.58 213.9 1180.02 213.9C1174.86 213.9 1170.76 212.4 1167.72 209.4C1164.72 206.36 1163.22 202.44 1163.22 197.64ZM1172.46 194.82L1182.6 194.16C1182.6 193.2 1182.54 192.32 1182.42 191.52C1182.3 190.68 1181.96 189.68 1181.4 188.52C1180.4 186.84 1179.22 186 1177.86 186C1176.26 186 1174.94 186.82 1173.9 188.46C1173.3 189.46 1172.9 190.56 1172.7 191.76C1172.5 192.96 1172.42 193.98 1172.46 194.82ZM1197.66 208.74C1197.66 207.38 1198.16 206.2 1199.16 205.2C1200.2 204.16 1201.42 203.64 1202.82 203.64C1204.22 203.64 1205.42 204.14 1206.42 205.14C1207.42 206.14 1207.92 207.34 1207.92 208.74C1207.92 210.06 1207.42 211.26 1206.42 212.34C1205.42 213.38 1204.22 213.9 1202.82 213.9C1201.42 213.9 1200.2 213.38 1199.16 212.34C1198.16 211.26 1197.66 210.06 1197.66 208.74ZM1198.32 171H1207.2L1206 200.52H1199.52L1198.32 171ZM411.609 290V286.64L417.129 285.32V252.68L411.609 251.36V248H432.429V251.36L426.909 252.68V285.38H437.829L441.909 277.04H445.269L443.469 290H411.609ZM447.94 274.64C447.94 269.92 449.26 266.16 451.9 263.36C454.58 260.52 458.2 259.1 462.76 259.1C467.4 259.1 470.9 260.68 473.26 263.84C475.66 267 476.86 270.9 476.86 275.54H457.18C457.46 278.5 458.52 281.06 460.36 283.22C462.2 285.34 464.56 286.4 467.44 286.4C469.6 286.4 471.92 285.94 474.4 285.02L475.66 288.44C471.94 290.08 468.3 290.9 464.74 290.9C459.58 290.9 455.48 289.4 452.44 286.4C449.44 283.36 447.94 279.44 447.94 274.64ZM457.18 271.82L467.32 271.16C467.32 270.2 467.26 269.32 467.14 268.52C467.02 267.68 466.68 266.68 466.12 265.52C465.12 263.84 463.94 263 462.58 263C460.98 263 459.66 263.82 458.62 265.46C458.02 266.46 457.62 267.56 457.42 268.76C457.22 269.96 457.14 270.98 457.18 271.82ZM493.875 290V286.64L499.395 285.32V252.68L493.875 251.36V248H510.855C516.655 248 521.155 249.02 524.355 251.06C527.555 253.06 529.155 256.42 529.155 261.14C529.155 263.54 528.635 265.64 527.595 267.44C526.595 269.2 525.215 270.6 523.455 271.64C521.695 272.64 519.755 273.4 517.635 273.92C515.515 274.4 513.215 274.64 510.735 274.64H509.175V285.32L516.495 286.64V290H493.875ZM509.175 270.26H510.435C512.875 270.26 514.935 269.5 516.615 267.98C518.335 266.42 519.195 264.14 519.195 261.14C519.195 258.26 518.395 256.08 516.795 254.6C515.235 253.12 513.255 252.38 510.855 252.38H509.175V270.26ZM532.249 290V286.82L537.349 285.62V265.46H532.249V262.28L541.849 260H546.589V263.6C549.589 260.6 553.149 259.1 557.269 259.1C557.509 259.86 557.629 260.7 557.629 261.62C557.629 263.46 557.429 265.18 557.029 266.78L549.469 265.52C548.509 265.96 547.549 266.6 546.589 267.44V285.62L552.889 286.82V290H532.249ZM560.264 274.64C560.264 269.92 561.584 266.16 564.224 263.36C566.904 260.52 570.524 259.1 575.084 259.1C579.724 259.1 583.224 260.68 585.584 263.84C587.984 267 589.184 270.9 589.184 275.54H569.504C569.784 278.5 570.844 281.06 572.684 283.22C574.524 285.34 576.884 286.4 579.764 286.4C581.924 286.4 584.244 285.94 586.724 285.02L587.984 288.44C584.264 290.08 580.624 290.9 577.064 290.9C571.904 290.9 567.804 289.4 564.764 286.4C561.764 283.36 560.264 279.44 560.264 274.64ZM569.504 271.82L579.644 271.16C579.644 270.2 579.584 269.32 579.464 268.52C579.344 267.68 579.004 266.68 578.444 265.52C577.444 263.84 576.264 263 574.904 263C573.304 263 571.984 263.82 570.944 265.46C570.344 266.46 569.944 267.56 569.744 268.76C569.544 269.96 569.464 270.98 569.504 271.82ZM592.659 290V286.82L597.759 285.62V265.46H592.659V262.28L602.259 260H606.999V262.46C609.719 260.22 612.679 259.1 615.879 259.1C619.919 259.1 622.879 260.54 624.759 263.42C627.919 260.54 631.359 259.1 635.079 259.1C638.199 259.1 640.679 259.98 642.519 261.74C644.399 263.5 645.339 265.76 645.339 268.52V285.62L650.439 286.82V290H632.199V286.82L636.099 285.62V269.3C636.099 267.46 635.739 266.18 635.019 265.46C634.299 264.74 633.179 264.38 631.659 264.38C629.979 264.38 628.099 265.18 626.019 266.78C626.139 267.38 626.199 267.96 626.199 268.52V285.62L630.099 286.82V290H612.999V286.82L616.899 285.62V269.3C616.899 267.46 616.539 266.18 615.819 265.46C615.099 264.74 613.999 264.38 612.519 264.38C610.879 264.38 609.039 265.1 606.999 266.54V285.62L610.899 286.82V290H592.659ZM652.601 290V286.82L657.701 285.62V265.46H652.601V262.28L662.201 260H666.941V285.62L672.041 286.82V290H652.601ZM656.741 250.76C656.741 249.2 657.281 247.9 658.361 246.86C659.441 245.78 660.761 245.24 662.321 245.24C663.921 245.24 665.241 245.78 666.281 246.86C667.361 247.9 667.901 249.2 667.901 250.76C667.901 252.36 667.361 253.7 666.281 254.78C665.241 255.86 663.921 256.4 662.321 256.4C660.761 256.4 659.441 255.86 658.361 254.78C657.281 253.7 656.741 252.36 656.741 250.76ZM674.698 274.64C674.698 269.92 676.018 266.16 678.658 263.36C681.338 260.52 684.958 259.1 689.518 259.1C694.158 259.1 697.658 260.68 700.018 263.84C702.418 267 703.618 270.9 703.618 275.54H683.938C684.218 278.5 685.278 281.06 687.118 283.22C688.958 285.34 691.318 286.4 694.198 286.4C696.358 286.4 698.678 285.94 701.158 285.02L702.418 288.44C698.698 290.08 695.058 290.9 691.498 290.9C686.338 290.9 682.238 289.4 679.198 286.4C676.198 283.36 674.698 279.44 674.698 274.64ZM683.938 271.82L694.078 271.16C694.078 270.2 694.018 269.32 693.898 268.52C693.778 267.68 693.438 266.68 692.878 265.52C691.878 263.84 690.698 263 689.338 263C687.738 263 686.418 263.82 685.378 265.46C684.778 266.46 684.378 267.56 684.178 268.76C683.978 269.96 683.898 270.98 683.938 271.82ZM707.093 290V286.82L712.193 285.62V265.46H707.093V262.28L716.693 260H721.433V263.6C724.433 260.6 727.993 259.1 732.113 259.1C732.353 259.86 732.473 260.7 732.473 261.62C732.473 263.46 732.273 265.18 731.873 266.78L724.313 265.52C723.353 265.96 722.393 266.6 721.433 267.44V285.62L727.733 286.82V290H707.093ZM746.06 290V286.64L751.94 285.26L766.28 247.7H771.5L784.94 285.26L790.7 286.64V290H770.36V286.64L774.62 285.62L772.04 278.42H759.44L756.74 285.44L761.78 286.64V290H746.06ZM761.06 274.28H770.54L765.86 261.5L761.06 274.28ZM788.333 263.18V260H802.673V280.7C802.673 282.74 802.913 284.16 803.393 284.96C803.913 285.72 804.933 286.1 806.453 286.1C807.613 286.1 808.813 285.8 810.053 285.2C811.293 284.6 812.293 283.8 813.053 282.8V264.38L809.153 263.18V260H822.353V285.5H827.033V288.08C826.153 288.68 825.433 289.12 824.873 289.4C824.353 289.64 823.753 289.88 823.073 290.12C822.433 290.4 821.753 290.6 821.033 290.72C820.353 290.84 819.713 290.9 819.113 290.9C816.233 290.9 814.213 289.6 813.053 287C810.213 289.6 806.733 290.9 802.613 290.9C796.493 290.9 793.433 287.76 793.433 281.48V264.38L788.333 263.18ZM842.132 290V286.64L847.832 285.26L849.692 252.62L844.412 251.36L844.532 248H859.412L871.772 276.62L884.612 248H899.132V251.36L893.792 252.62L895.892 285.32L901.652 286.64V290H880.592V286.64L885.872 285.38L884.252 260.18L870.812 290.3H866.912L853.892 260L852.512 285.38L857.852 286.64V290H842.132ZM904.261 282.56C904.261 279.08 905.681 276.44 908.521 274.64C911.401 272.8 916.041 271.88 922.441 271.88V270.08C922.441 268.88 922.421 268.02 922.381 267.5C922.381 266.94 922.301 266.28 922.141 265.52C921.981 264.76 921.741 264.22 921.421 263.9C921.141 263.58 920.701 263.3 920.101 263.06C919.501 262.78 918.761 262.64 917.881 262.64L910.261 269.24C907.541 267.68 906.181 265.26 906.181 261.98L907.981 261.2C908.741 260.88 910.221 260.46 912.421 259.94C914.621 259.38 916.761 259.1 918.841 259.1C927.441 259.1 931.741 262.54 931.741 269.42V285.5H936.421V288.08C936.221 288.28 935.941 288.54 935.581 288.86C935.221 289.18 934.441 289.6 933.241 290.12C932.041 290.64 930.801 290.9 929.521 290.9C926.481 290.9 924.221 289.88 922.741 287.84C920.061 289.88 917.141 290.9 913.981 290.9C911.221 290.9 908.901 290.2 907.021 288.8C905.181 287.4 904.261 285.32 904.261 282.56ZM913.921 282.02C913.921 283.18 914.301 284.1 915.061 284.78C915.861 285.46 916.821 285.8 917.941 285.8C919.741 285.8 921.241 285.14 922.441 283.82V275.6C920.201 275.6 918.221 276.2 916.501 277.4C914.781 278.56 913.921 280.1 913.921 282.02ZM938.597 290V286.82L943.697 285.62V265.46H938.597V262.28L948.197 260H952.937V263.6C955.937 260.6 959.497 259.1 963.617 259.1C963.857 259.86 963.977 260.7 963.977 261.62C963.977 263.46 963.777 265.18 963.377 266.78L955.817 265.52C954.857 265.96 953.897 266.6 952.937 267.44V285.62L959.237 286.82V290H938.597ZM982.692 290.9C980.412 290.9 978.272 290.5 976.272 289.7C974.312 288.9 972.612 287.8 971.172 286.4C969.732 285 968.592 283.32 967.752 281.36C966.912 279.4 966.492 277.26 966.492 274.94C966.492 272.62 966.912 270.5 967.752 268.58C968.592 266.62 969.732 264.94 971.172 263.54C972.612 262.14 974.312 261.06 976.272 260.3C978.272 259.5 980.412 259.1 982.692 259.1C984.972 259.1 987.092 259.5 989.052 260.3C991.012 261.06 992.712 262.14 994.152 263.54C995.632 264.94 996.772 266.62 997.572 268.58C998.412 270.5 998.832 272.62 998.832 274.94C998.832 277.22 998.412 279.34 997.572 281.3C996.772 283.26 995.632 284.96 994.152 286.4C992.712 287.8 991.012 288.9 989.052 289.7C987.092 290.5 984.972 290.9 982.692 290.9ZM976.152 274.94C976.152 278.7 976.692 281.66 977.772 283.82C978.892 285.94 980.532 287 982.692 287C984.852 287 986.472 285.94 987.552 283.82C988.672 281.66 989.232 278.7 989.232 274.94C989.232 271.22 988.672 268.3 987.552 266.18C986.472 264.06 984.852 263 982.692 263C980.532 263 978.892 264.06 977.772 266.18C976.692 268.3 976.152 271.22 976.152 274.94ZM1002.88 274.88C1002.88 270.24 1004.4 266.46 1007.44 263.54C1010.52 260.58 1014.14 259.1 1018.3 259.1C1021.78 259.1 1025.2 259.94 1028.56 261.62C1028.44 264.94 1026.98 267.38 1024.18 268.94L1019.02 263H1018.66C1016.98 263.48 1015.5 264.72 1014.22 266.72C1012.94 268.68 1012.3 271.44 1012.3 275C1012.26 279 1013.16 282 1015 284C1016.72 285.64 1018.96 286.46 1021.72 286.46C1022.88 286.46 1024 286.36 1025.08 286.16C1026.2 285.96 1027.34 285.68 1028.5 285.32L1029.22 288.86C1025.98 290.22 1022.66 290.9 1019.26 290.9C1014.74 290.9 1010.88 289.46 1007.68 286.58C1004.48 283.7 1002.88 279.8 1002.88 274.88Z" fill="black"/>
<path d="M694.001 213V209.64L699.521 208.32V175.68L694.001 174.36V171H725.861V183.3H722.321L719.921 175.62H709.301V189.54L720.461 188.52V194.46L709.301 193.56V208.38H720.041L724.121 200.04H727.661L725.861 213H694.001ZM730.354 213V209.82L735.574 208.8L743.554 199.32L735.874 187.2L731.134 186.18V183H750.034V186.18L746.914 186.78L750.814 192.84L755.614 187.14L752.314 186.18V183H765.754V186.18L760.534 187.32L752.974 196.26L761.014 208.92L765.934 209.82V213H746.554V209.82L749.794 209.34L745.714 202.74L740.434 208.98L743.614 209.82V213H730.354ZM767.245 197.88C767.245 193.24 768.765 189.46 771.805 186.54C774.885 183.58 778.505 182.1 782.665 182.1C786.145 182.1 789.565 182.94 792.925 184.62C792.805 187.94 791.345 190.38 788.545 191.94L783.385 186H783.025C781.345 186.48 779.865 187.72 778.585 189.72C777.305 191.68 776.665 194.44 776.665 198C776.625 202 777.525 205 779.365 207C781.085 208.64 783.325 209.46 786.085 209.46C787.245 209.46 788.365 209.36 789.445 209.16C790.565 208.96 791.705 208.68 792.865 208.32L793.585 211.86C790.345 213.22 787.025 213.9 783.625 213.9C779.105 213.9 775.245 212.46 772.045 209.58C768.845 206.7 767.245 202.8 767.245 197.88ZM796.368 197.64C796.368 192.92 797.688 189.16 800.328 186.36C803.008 183.52 806.628 182.1 811.188 182.1C815.828 182.1 819.328 183.68 821.688 186.84C824.088 190 825.288 193.9 825.288 198.54H805.608C805.888 201.5 806.948 204.06 808.788 206.22C810.628 208.34 812.988 209.4 815.868 209.4C818.028 209.4 820.348 208.94 822.828 208.02L824.088 211.44C820.368 213.08 816.728 213.9 813.168 213.9C808.008 213.9 803.908 212.4 800.868 209.4C797.868 206.36 796.368 202.44 796.368 197.64ZM805.608 194.82L815.748 194.16C815.748 193.2 815.688 192.32 815.568 191.52C815.448 190.68 815.108 189.68 814.548 188.52C813.548 186.84 812.368 186 811.008 186C809.408 186 808.088 186.82 807.048 188.46C806.448 189.46 806.048 190.56 805.848 191.76C805.648 192.96 805.568 193.98 805.608 194.82ZM827.863 213V209.82L832.963 208.62V170.46H827.863V167.28L837.463 165H842.203V208.62L847.303 209.82V213H827.863ZM849.074 213V209.82L854.174 208.62V170.46H849.074V167.28L858.674 165H863.414V208.62L868.514 209.82V213H849.074ZM871.133 197.64C871.133 192.92 872.453 189.16 875.093 186.36C877.773 183.52 881.393 182.1 885.953 182.1C890.593 182.1 894.093 183.68 896.453 186.84C898.853 190 900.053 193.9 900.053 198.54H880.373C880.653 201.5 881.713 204.06 883.553 206.22C885.393 208.34 887.753 209.4 890.633 209.4C892.793 209.4 895.113 208.94 897.593 208.02L898.853 211.44C895.133 213.08 891.493 213.9 887.933 213.9C882.773 213.9 878.673 212.4 875.633 209.4C872.633 206.36 871.133 202.44 871.133 197.64ZM880.373 194.82L890.513 194.16C890.513 193.2 890.453 192.32 890.333 191.52C890.213 190.68 889.873 189.68 889.313 188.52C888.313 186.84 887.133 186 885.773 186C884.173 186 882.853 186.82 881.813 188.46C881.213 189.46 880.813 190.56 880.613 191.76C880.413 192.96 880.333 193.98 880.373 194.82ZM903.529 213V209.82L908.629 208.62V188.46H903.529V185.28L913.129 183H917.869V185.94C920.309 183.38 923.329 182.1 926.929 182.1C928.489 182.1 929.889 182.34 931.129 182.82C932.409 183.26 933.469 183.9 934.309 184.74C935.189 185.58 935.869 186.58 936.349 187.74C936.829 188.9 937.069 190.16 937.069 191.52V208.62L942.169 209.82V213H923.929V209.82L927.829 208.62V193.2C927.829 191.96 927.749 190.96 927.589 190.2C927.469 189.44 927.249 188.86 926.929 188.46C926.609 188.02 926.169 187.74 925.609 187.62C925.089 187.46 924.429 187.38 923.629 187.38C922.109 187.38 920.189 188.26 917.869 190.02V208.62L921.769 209.82V213H903.529ZM944.248 187.2V184.8L954.448 177.54H956.668V183.3L964.108 183V187.2H956.668V204.36C956.668 206.32 956.888 207.7 957.328 208.5C957.768 209.3 958.668 209.7 960.028 209.7C961.028 209.7 962.368 209.34 964.048 208.62L965.008 211.98C962.608 213.26 960.068 213.9 957.388 213.9C950.748 213.9 947.428 210.82 947.428 204.66V187.2H944.248Z" fill="#C30126"/>
</svg>
