<svg width="35" height="35" viewBox="0 0 35 35" fill="none" xmlns="http://www.w3.org/2000/svg">
<path d="M31.4339 26.8469H17.6733H16.8836H3.12305L5.45636 30.7046C6.38968 31.1439 8.31616 31.4459 8.31616 31.4459C8.2683 32.2009 7.80164 32.7912 7.80164 32.7912L8.12471 33.5051C11.0563 34.5759 15.8665 34.5759 17.2665 34.5485C18.6665 34.5759 23.4767 34.5759 26.4083 33.5051L26.7314 32.7912C26.7314 32.7912 26.2647 32.2009 26.2168 31.4459C26.2168 31.4459 28.1313 31.1439 29.0766 30.7046L31.4339 26.8469Z" fill="#676767"/>
<path d="M26.7552 32.7915C26.7552 32.7915 26.7193 32.7503 26.6834 32.6816C17.0391 34.4663 10.0032 33.2308 7.84937 32.7366C7.82544 32.764 7.81348 32.7915 7.81348 32.7915L8.13655 33.5053C11.0682 34.5761 15.8784 34.5761 17.2784 34.5487C18.6784 34.5761 23.4886 34.5761 26.4202 33.5053L26.7552 32.7915Z" fill="black"/>
<path d="M31.1589 22.6461C28.3589 22.4264 20.7488 22.1244 17.9488 22.0146V21.9734C17.9488 21.9734 17.7573 21.9871 17.4223 21.9871C17.0873 21.9734 16.8958 21.9734 16.8958 21.9734V22.0146C14.0958 22.1244 6.48565 22.4264 3.68567 22.6461C0.227584 22.9206 0.0361328 23.2227 0.0361328 24.0052C0.0361328 24.7877 0.347238 26.5724 0.347238 26.5724C0.347238 26.5724 0.598518 27.2039 1.90278 27.5196C3.15918 27.8216 12.7078 28.6041 17.4223 28.563C22.1368 28.6041 31.6854 27.8354 32.9418 27.5196C34.2461 27.2039 34.4974 26.5724 34.4974 26.5724C34.4974 26.5724 34.8085 24.7877 34.8085 24.0052C34.8085 23.2227 34.617 22.9206 31.1589 22.6461Z" fill="black"/>
<path d="M17.8178 22.0146V21.9734C17.8178 21.9734 17.6264 21.9871 17.2913 21.9871C16.9563 21.9734 16.7648 21.9734 16.7648 21.9734V22.0146C13.9649 22.1244 6.3547 22.4264 3.55473 22.6461C1.55646 22.8108 0.647068 22.9756 0.240234 23.2364C0.94621 23.6894 4.00942 24.8014 17.1836 24.8975C33.7322 25.0211 33.9954 23.0991 33.9954 23.0991C33.9954 23.0991 33.9954 23.0854 33.9954 23.0717C33.4809 22.8932 32.5835 22.7696 31.0519 22.6461C28.228 22.4264 20.6178 22.1244 17.8178 22.0146Z" fill="#8F9698"/>
<path d="M26.2413 31.446C18.7986 32.5992 8.32863 31.446 8.32863 31.446C8.31666 31.5971 8.29273 31.7481 8.25684 31.8991C8.29273 31.9403 8.32863 31.9677 8.32863 31.9677C8.32863 31.9677 16.6089 33.3543 26.2413 31.9677H26.3371C26.2892 31.7893 26.2533 31.6245 26.2413 31.446Z" fill="black"/>
<path d="M3.48216 23.2087C3.48216 23.2087 11.8582 12.8714 15.8787 6.47401C15.8787 6.47401 15.2564 5.66404 15.2205 5.38947C15.1846 5.11491 15.1128 1.44946 15.1128 1.44946C15.1128 1.44946 15.3163 0.76305 15.9505 0.666953C16.5966 0.570855 19.3368 0.406117 20.306 0.886606C20.306 0.886606 21 1.10626 21.0359 1.82013C21.0718 2.53399 20.6889 4.9639 20.6889 4.9639C20.6889 4.9639 20.4137 6.1308 19.6479 6.48773C19.6479 6.48773 30.8956 21.6437 32.3674 23.0028C32.3674 23.0028 32.5708 23.4147 31.8529 23.7716C31.135 24.1423 18.2838 24.5129 12.4325 24.2933C7.03598 24.0874 3.0155 23.8128 3.48216 23.2087Z" fill="#EE7778"/>
<path d="M3.48216 23.2087C3.48216 23.2087 11.8582 12.8714 15.8787 6.47401C15.8787 6.47401 15.2564 5.66404 15.2205 5.38947C15.1846 5.11491 15.1128 1.44946 15.1128 1.44946C15.1128 1.44946 15.3163 0.76305 15.9505 0.666953C16.5966 0.570855 19.3368 0.406117 20.306 0.886606C20.306 0.886606 21 1.10626 21.0359 1.82013C21.0718 2.53399 20.6889 4.9639 20.6889 4.9639C20.6889 4.9639 20.4137 6.1308 19.6479 6.48773C19.6479 6.48773 30.8956 21.6437 32.3674 23.0028C32.3674 23.0028 32.5708 23.4147 31.8529 23.7716C31.135 24.1423 18.2838 24.5129 12.4325 24.2933C7.03598 24.0874 3.0155 23.8128 3.48216 23.2087Z" fill="#676767"/>
<path d="M28.5143 18.2395C26.9707 16.2352 25.2117 13.9151 23.6681 11.8696C20.9998 11.9795 14.3827 12.2677 11.8939 12.3776C10.3742 14.5329 8.7828 16.702 7.38281 18.5827C11.0922 18.5278 24.422 18.3082 28.5143 18.2395Z" fill="#676767"/>
<path d="M15.2207 5.34861C16.3934 5.21133 18.4275 5.11522 20.342 5.67809C20.5933 5.29369 20.689 4.95048 20.689 4.95048C20.689 4.95048 20.7249 4.70337 20.7848 4.33271C18.7147 3.7012 16.5369 3.75611 15.1729 3.92085C15.1848 4.60727 15.2088 5.1976 15.2207 5.34861Z" fill="black"/>
<path d="M21.0238 2.35585C21.0358 2.13619 21.0477 1.944 21.0477 1.82044C21.0119 1.10657 20.3178 0.886922 20.3178 0.886922C20.258 0.859465 20.1982 0.832008 20.1264 0.804551C19.4204 0.667269 18.7144 0.584897 18.0563 0.55744C17.1589 0.543712 16.2974 0.612356 15.9743 0.667269C15.3282 0.763367 15.1367 1.44978 15.1367 1.44978C15.1367 1.44978 15.1367 1.66943 15.1487 1.99891C16.2136 1.82044 18.7264 1.58706 21.0238 2.35585Z" fill="black"/>
<path d="M19.6482 6.48816C19.708 6.4607 19.7678 6.41951 19.8157 6.37833L15.7354 6.28223C15.7832 6.35087 15.8191 6.39205 15.843 6.43324L19.6721 6.52934C19.6601 6.50188 19.6482 6.48816 19.6482 6.48816Z" fill="black"/>
<path d="M18.1404 18.8984C21.5148 18.8984 25.0686 18.6513 28.2754 17.9237C28.0241 17.5943 27.7728 17.2648 27.5096 16.9353C20.8686 18.3081 12.8396 17.6904 8.25678 17.1412C7.98157 17.4982 7.71832 17.8551 7.45508 18.1846C10.0157 18.5003 13.9166 18.8984 18.1404 18.8984Z" fill="black"/>
<path d="M18.1043 12.7207C20.0667 12.7207 22.1008 12.6383 24.0991 12.4186C23.8239 12.0617 23.5606 11.7048 23.2974 11.3616C19.588 11.7048 15.771 11.6087 12.5522 11.3753C12.2889 11.7322 12.0377 12.1029 11.7744 12.4598C13.6889 12.5971 15.8547 12.7207 18.1043 12.7207Z" fill="black"/>
<path d="M31.0033 21.3969C30.7879 21.3008 30.5845 21.2047 30.3691 21.1086C30.3691 21.1086 29.7948 21.5205 29.5674 21.6852C29.2683 21.548 28.9691 21.4107 28.682 21.2734C28.682 21.2734 28.1076 21.6852 27.8683 21.8362C27.5691 21.699 27.282 21.5617 26.9828 21.4107C26.9828 21.4107 26.4085 21.8088 26.1692 21.9598C25.87 21.8088 25.5828 21.6715 25.2837 21.5205C25.2837 21.5205 24.6974 21.9049 24.4581 22.0559C24.1709 21.9049 23.8717 21.7539 23.5846 21.6029C23.5846 21.6029 22.9982 21.9873 22.7589 22.1245C22.4718 21.9735 22.1726 21.8225 21.8854 21.6578C21.8854 21.6578 21.2991 22.0284 21.0478 22.1657C20.7606 22.0147 20.4735 21.85 20.1863 21.6852C20.1863 21.6852 19.588 22.0422 19.3487 22.1794C19.0615 22.0147 18.7743 21.85 18.4872 21.6852C18.4872 21.6852 17.8889 22.0422 17.6376 22.1794C17.3504 22.0147 17.0632 21.85 16.788 21.6852C16.788 21.6852 16.1898 22.0284 15.9385 22.1657C15.6513 22.001 15.3761 21.8225 15.0889 21.6578C15.0889 21.6578 14.4786 22.001 14.2274 22.1245C13.9402 21.9461 13.665 21.7813 13.3898 21.6029C13.3898 21.6029 12.7795 21.9323 12.5282 22.0559C12.253 21.8774 11.9659 21.699 11.6906 21.5205C11.6906 21.5205 11.0804 21.8362 10.8171 21.9598C10.5419 21.7813 10.2667 21.5891 9.99151 21.4107C9.99151 21.4107 9.3693 21.7264 9.11802 21.8362C8.8428 21.644 8.56759 21.4656 8.29238 21.2734C8.29238 21.2734 7.67016 21.5754 7.41888 21.6852C7.14367 21.493 6.86846 21.3008 6.60522 21.1086C6.60522 21.1086 5.99496 21.3969 5.73171 21.5068C5.55223 21.3695 5.36078 21.2459 5.18129 21.1086C4.96591 21.3832 4.76249 21.6303 4.58301 21.8637C4.67873 21.9461 4.77446 22.0147 4.88215 22.0971C5.15736 21.9461 5.44454 21.7951 5.71975 21.6441C5.99496 21.8637 6.28214 22.0696 6.56931 22.2893C6.85649 22.1383 7.13171 21.9735 7.41888 21.8088C7.70606 22.0284 7.99324 22.2344 8.28042 22.4403C8.55563 22.2756 8.8428 22.1108 9.11802 21.9598C9.40519 22.1657 9.69237 22.3716 9.99151 22.5913C10.2667 22.4266 10.5419 22.2618 10.8291 22.0971C11.1163 22.303 11.4154 22.5089 11.7026 22.7149C11.9778 22.5501 12.253 22.3716 12.5282 22.2069C12.8274 22.4128 13.1146 22.605 13.4137 22.811C13.6889 22.6325 13.9641 22.4677 14.2393 22.2893C14.5385 22.4815 14.8376 22.6874 15.1368 22.8796C15.412 22.7011 15.6752 22.5227 15.9504 22.3442C16.2496 22.5364 16.5487 22.7286 16.8479 22.9208C17.1231 22.7423 17.3863 22.5501 17.6615 22.3716C17.9607 22.5638 18.2598 22.7423 18.5709 22.9345C18.8342 22.7423 19.1094 22.5638 19.3726 22.3716C19.6718 22.5501 19.9829 22.7423 20.282 22.9208C20.5453 22.7286 20.8085 22.5364 21.0837 22.3442C21.3829 22.5227 21.694 22.7011 22.0051 22.8796C22.2683 22.6874 22.5316 22.4952 22.7948 22.303C23.1059 22.4815 23.4051 22.6462 23.7162 22.8247C23.9794 22.6325 24.2427 22.4266 24.494 22.2344C24.8051 22.3991 25.1162 22.5776 25.4273 22.7423C25.6905 22.5364 25.9418 22.3442 26.205 22.1383C26.5162 22.303 26.8273 22.4677 27.1384 22.6325C27.4016 22.4266 27.6529 22.2206 27.9042 22.0147C28.2153 22.1794 28.5264 22.3305 28.8495 22.4952C29.1008 22.2893 29.364 22.0834 29.6153 21.8637C29.9264 22.0147 30.2495 22.1795 30.5606 22.3305C30.7999 22.1383 31.0272 21.9323 31.2665 21.7264C31.1469 21.5754 31.0751 21.493 31.0033 21.3969Z" fill="black"/>
<path d="M22.1964 9.89258C22.005 10.0161 21.7178 10.1946 21.5622 10.277C21.2751 10.126 20.9879 9.96122 20.7007 9.79648C20.7007 9.79648 20.1024 10.1534 19.8631 10.2907C19.5759 10.126 19.2888 9.96122 19.0016 9.79648C19.0016 9.79648 18.4033 10.1534 18.152 10.2907C17.8648 10.126 17.5777 9.96122 17.3025 9.79648C17.3025 9.79648 16.7042 10.1397 16.4529 10.277C16.1657 10.1122 15.8905 9.93377 15.6033 9.76903C15.6033 9.76903 14.9931 10.1122 14.7418 10.2358C14.4546 10.0573 14.1794 9.89258 13.9042 9.71411C13.9042 9.71411 13.7845 9.78275 13.629 9.86512C13.4974 10.0436 13.3777 10.2358 13.2461 10.4142C13.4734 10.5653 13.7008 10.7163 13.9281 10.881C14.2033 10.7025 14.4786 10.5378 14.7538 10.3593C15.0529 10.5515 15.352 10.7575 15.6512 10.9496C15.9264 10.7712 16.1896 10.5927 16.4649 10.4142C16.764 10.6064 17.0631 10.7986 17.3623 10.9908C17.6375 10.8124 17.9007 10.6202 18.1759 10.4417C18.4751 10.6339 18.7742 10.8124 19.0853 11.0046C19.3486 10.8124 19.6238 10.6339 19.887 10.4417C20.1862 10.6202 20.4973 10.8124 20.7964 10.9908C21.0597 10.7986 21.3229 10.6064 21.5981 10.4142C21.8973 10.5927 22.2084 10.7712 22.5195 10.9496C22.6272 10.8673 22.7349 10.7986 22.8306 10.7163C22.5913 10.4142 22.3879 10.1534 22.1964 9.89258Z" fill="black"/>
</svg>
