<svg width="92" height="27" viewBox="0 0 92 27" fill="none" xmlns="http://www.w3.org/2000/svg">
<path d="M0 5C0 2.23857 2.23858 0 5 0H86.8637C89.6251 0 91.8637 2.23858 91.8637 5V21.96C91.8637 24.7214 89.6251 26.96 86.8637 26.96H4.99999C2.23857 26.96 0 24.7214 0 21.96V5Z" fill="black"/>
<path d="M46.3644 14.6602C44.764 14.6602 43.4595 15.866 43.4595 17.5268C43.4595 19.1774 44.764 20.3933 46.3644 20.3933C47.9656 20.3933 49.2701 19.1774 49.2701 17.5268C49.2694 15.866 47.9649 14.6602 46.3644 14.6602ZM46.3644 19.265C45.4873 19.265 44.7313 18.5485 44.7313 17.5274C44.7313 16.4955 45.488 15.7899 46.3644 15.7899C47.2416 15.7899 47.9976 16.4955 47.9976 17.5274C47.9976 18.5479 47.2416 19.265 46.3644 19.265ZM40.0265 14.6602C38.4261 14.6602 37.1216 15.866 37.1216 17.5268C37.1216 19.1774 38.4261 20.3933 40.0265 20.3933C41.6277 20.3933 42.9321 19.1774 42.9321 17.5268C42.9321 15.866 41.6277 14.6602 40.0265 14.6602ZM40.0265 19.265C39.1494 19.265 38.3934 18.5485 38.3934 17.5274C38.3934 16.4955 39.1501 15.7899 40.0265 15.7899C40.9037 15.7899 41.6597 16.4955 41.6597 17.5274C41.6603 18.5479 40.9037 19.265 40.0265 19.265ZM32.4883 15.5405V16.7564H35.4265C35.3388 17.4405 35.1088 17.9399 34.7576 18.287C34.3303 18.7103 33.6614 19.1774 32.4883 19.1774C30.6796 19.1774 29.2655 17.733 29.2655 15.9415C29.2655 14.15 30.6796 12.7056 32.4883 12.7056C33.4641 12.7056 34.1765 13.0858 34.7025 13.5744L35.5688 12.7164C34.8338 12.0215 33.8587 11.4897 32.4883 11.4897C30.0107 11.4897 27.9277 13.4875 27.9277 15.9415C27.9277 18.3956 30.0107 20.3933 32.4883 20.3933C33.8254 20.3933 34.8345 19.9586 35.6232 19.1444C36.4343 18.341 36.6868 17.2113 36.6868 16.2994C36.6868 16.0177 36.665 15.7568 36.6208 15.5398H32.4883V15.5405ZM63.3191 16.4848C63.0782 15.8445 62.3433 14.6602 60.8415 14.6602C59.3506 14.6602 58.1114 15.8222 58.1114 17.5268C58.1114 19.1336 59.3397 20.3933 60.9837 20.3933C62.3099 20.3933 63.0775 19.5899 63.396 19.1228L62.4093 18.471C62.0806 18.9489 61.6308 19.2637 60.9837 19.2637C60.3372 19.2637 59.8766 18.9705 59.5806 18.3949L63.4504 16.8096L63.3191 16.4848ZM59.3723 17.4405C59.3397 16.3324 60.2386 15.7683 60.8857 15.7683C61.3899 15.7683 61.8173 16.0184 61.9602 16.3762L59.3723 17.4405ZM56.2265 20.2201H57.4976V11.7944H56.2265V20.2201ZM54.1429 15.3012H54.0994C53.8142 14.9642 53.2658 14.6602 52.5758 14.6602C51.1284 14.6602 49.8022 15.9199 49.8022 17.5382C49.8022 19.145 51.1284 20.394 52.5758 20.394C53.2665 20.394 53.8142 20.09 54.0994 19.7429H54.1429V20.1554C54.1429 21.252 53.5509 21.8383 52.5976 21.8383C51.8191 21.8383 51.3366 21.285 51.1393 20.8179L50.0322 21.2742C50.35 22.0338 51.1937 22.968 52.5976 22.968C54.0885 22.968 55.3494 22.0992 55.3494 19.9815V14.8348H54.1436V15.3012H54.1429ZM52.6853 19.265C51.8082 19.265 51.074 18.5371 51.074 17.5382C51.074 16.5279 51.8082 15.7899 52.6853 15.7899C53.5509 15.7899 54.2307 16.5279 54.2307 17.5382C54.2307 18.5371 53.5509 19.265 52.6853 19.265ZM69.2759 11.7944H66.2335V20.2201H67.5026V17.028H69.2752C70.6825 17.028 72.0665 16.019 72.0665 14.4115C72.0665 12.804 70.6831 11.7944 69.2759 11.7944ZM69.3086 15.8552H67.5026V12.9672H69.3086C70.2578 12.9672 70.7968 13.7456 70.7968 14.4115C70.7968 15.064 70.2578 15.8552 69.3086 15.8552ZM77.1558 14.6454C76.2365 14.6454 75.2845 15.0464 74.8905 15.9355L76.0174 16.4012C76.2582 15.9355 76.7074 15.7831 77.1776 15.7831C77.8342 15.7831 78.5018 16.1734 78.5126 16.8669V16.9539C78.2826 16.8238 77.79 16.629 77.1884 16.629C75.9738 16.629 74.7367 17.2902 74.7367 18.5256C74.7367 19.6532 75.7329 20.3791 76.8489 20.3791C77.7022 20.3791 78.1731 19.9997 78.4684 19.5548H78.512V20.2052H79.7382V16.9748C79.7389 15.4798 78.6106 14.6454 77.1558 14.6454ZM77.002 19.263C76.5869 19.263 76.0065 19.0567 76.0065 18.5472C76.0065 17.8968 76.7291 17.6474 77.3531 17.6474C77.9104 17.6474 78.1738 17.7667 78.5126 17.9291C78.414 18.7103 77.7355 19.263 77.002 19.263ZM84.2034 14.8294L82.7479 18.4825H82.7043L81.1937 14.8294H79.826L82.0913 19.935L80.7997 22.7752H82.1239L85.6154 14.8294H84.2034ZM72.7674 20.2201H74.0365V11.7944H72.7674V20.2201Z" fill="white"/>
<path d="M32.2664 6.90369C32.2664 7.46851 32.0977 7.91806 31.7595 8.25372C31.3757 8.65272 30.8748 8.85223 30.2597 8.85223C29.6704 8.85223 29.1689 8.65003 28.7572 8.24563C28.3449 7.84055 28.1387 7.3391 28.1387 6.74058C28.1387 6.1414 28.3449 5.63994 28.7572 5.23554C29.1689 4.83047 29.6704 4.62827 30.2597 4.62827C30.5523 4.62827 30.832 4.68489 31.0974 4.79744C31.3634 4.91068 31.5764 5.06098 31.7356 5.24902L31.377 5.6049C31.1069 5.28475 30.7347 5.12501 30.259 5.12501C29.829 5.12501 29.4574 5.27464 29.1437 5.57389C28.83 5.87315 28.6735 6.26205 28.6735 6.73991C28.6735 7.21778 28.83 7.60667 29.1437 7.90593C29.4574 8.20519 29.829 8.35481 30.259 8.35481C30.7149 8.35481 31.0953 8.20451 31.3995 7.90323C31.5968 7.7071 31.7111 7.43413 31.7418 7.08433H30.259V6.59837H32.2372C32.2576 6.70419 32.2664 6.80596 32.2664 6.90369Z" fill="white"/>
<path d="M35.4035 5.21469H33.5444V6.49664H35.2211V6.98259H33.5444V8.26454H35.4035V8.76195H33.0198V4.71795H35.4035V5.21469Z" fill="white"/>
<path d="M37.6156 8.76195H37.0909V5.21469H35.9505V4.71795H38.7561V5.21469H37.6156V8.76195Z" fill="white"/>
<path d="M40.7859 8.76195V4.71795H41.3105V8.76195H40.7859Z" fill="white"/>
<path d="M43.6372 8.76195H43.1125V5.21469H41.9721V4.71795H44.7776V5.21469H43.6372V8.76195Z" fill="white"/>
<path d="M50.0886 8.23959C49.6871 8.64804 49.1883 8.85226 48.5915 8.85226C47.9948 8.85226 47.496 8.64804 47.0952 8.23959C46.6937 7.83115 46.4936 7.33104 46.4936 6.73994C46.4936 6.14885 46.6937 5.64874 47.0952 5.24029C47.496 4.83185 47.9948 4.62695 48.5915 4.62695C49.1849 4.62695 49.683 4.83252 50.0858 5.24299C50.4887 5.65345 50.6901 6.15222 50.6901 6.73994C50.6901 7.33104 50.4894 7.83115 50.0886 8.23959ZM47.4824 7.90057C47.7845 8.20387 48.154 8.35485 48.5915 8.35485C49.0291 8.35485 49.3993 8.2032 49.7007 7.90057C50.0028 7.59727 50.1546 7.21039 50.1546 6.73994C50.1546 6.26949 50.0028 5.88261 49.7007 5.57932C49.3993 5.27602 49.0291 5.12504 48.5915 5.12504C48.154 5.12504 47.7845 5.27669 47.4824 5.57932C47.1809 5.88261 47.0292 6.26949 47.0292 6.73994C47.0292 7.21039 47.1809 7.59727 47.4824 7.90057Z" fill="white"/>
<path d="M51.4264 8.76195V4.71795H52.0647L54.0489 7.86351H54.0714L54.0489 7.08436V4.71795H54.5736V8.76195H54.0258L51.9497 5.46339H51.9272L51.9497 6.24254V8.76195H51.4264Z" fill="white"/>
<path d="M32.2664 6.90369C32.2664 7.46851 32.0977 7.91806 31.7595 8.25372C31.3757 8.65272 30.8748 8.85223 30.2597 8.85223C29.6704 8.85223 29.1689 8.65003 28.7572 8.24563C28.3449 7.84055 28.1387 7.3391 28.1387 6.74058C28.1387 6.1414 28.3449 5.63994 28.7572 5.23554C29.1689 4.83047 29.6704 4.62827 30.2597 4.62827C30.5523 4.62827 30.832 4.68489 31.0974 4.79744C31.3634 4.91068 31.5764 5.06098 31.7356 5.24902L31.377 5.6049C31.1069 5.28475 30.7347 5.12501 30.259 5.12501C29.829 5.12501 29.4574 5.27464 29.1437 5.57389C28.83 5.87315 28.6735 6.26205 28.6735 6.73991C28.6735 7.21778 28.83 7.60667 29.1437 7.90593C29.4574 8.20519 29.829 8.35481 30.259 8.35481C30.7149 8.35481 31.0953 8.20451 31.3995 7.90323C31.5968 7.7071 31.7111 7.43413 31.7418 7.08433H30.259V6.59837H32.2372C32.2576 6.70419 32.2664 6.80596 32.2664 6.90369Z" stroke="#212121" stroke-width="0.2" stroke-miterlimit="10"/>
<path d="M35.4035 5.21469H33.5444V6.49664H35.2211V6.98259H33.5444V8.26454H35.4035V8.76195H33.0198V4.71795H35.4035V5.21469Z" stroke="#212121" stroke-width="0.2" stroke-miterlimit="10"/>
<path d="M37.6156 8.76195H37.0909V5.21469H35.9505V4.71795H38.7561V5.21469H37.6156V8.76195Z" stroke="#212121" stroke-width="0.2" stroke-miterlimit="10"/>
<path d="M40.7859 8.76195V4.71795H41.3105V8.76195H40.7859Z" stroke="#212121" stroke-width="0.2" stroke-miterlimit="10"/>
<path d="M43.6372 8.76195H43.1125V5.21469H41.9721V4.71795H44.7776V5.21469H43.6372V8.76195Z" stroke="#212121" stroke-width="0.2" stroke-miterlimit="10"/>
<path d="M50.0886 8.23959C49.6871 8.64804 49.1883 8.85226 48.5915 8.85226C47.9948 8.85226 47.496 8.64804 47.0952 8.23959C46.6937 7.83115 46.4936 7.33104 46.4936 6.73994C46.4936 6.14885 46.6937 5.64874 47.0952 5.24029C47.496 4.83185 47.9948 4.62695 48.5915 4.62695C49.1849 4.62695 49.683 4.83252 50.0858 5.24299C50.4887 5.65345 50.6901 6.15222 50.6901 6.73994C50.6901 7.33104 50.4894 7.83115 50.0886 8.23959ZM47.4824 7.90057C47.7845 8.20387 48.154 8.35485 48.5915 8.35485C49.0291 8.35485 49.3993 8.2032 49.7007 7.90057C50.0028 7.59727 50.1546 7.21039 50.1546 6.73994C50.1546 6.26949 50.0028 5.88261 49.7007 5.57932C49.3993 5.27602 49.0291 5.12504 48.5915 5.12504C48.154 5.12504 47.7845 5.27669 47.4824 5.57932C47.1809 5.88261 47.0292 6.26949 47.0292 6.73994C47.0292 7.21039 47.1809 7.59727 47.4824 7.90057Z" stroke="#212121" stroke-width="0.2" stroke-miterlimit="10"/>
<path d="M51.4264 8.76195V4.71795H52.0647L54.0489 7.86351H54.0714L54.0489 7.08436V4.71795H54.5736V8.76195H54.0258L51.9497 5.46339H51.9272L51.9497 6.24254V8.76195H51.4264Z" stroke="#212121" stroke-width="0.2" stroke-miterlimit="10"/>
<path fill-rule="evenodd" clip-rule="evenodd" d="M6.85024 5.53648C6.80851 5.68092 6.78613 5.84517 6.78613 6.02758V20.9338C6.78613 21.1166 6.80854 21.281 6.85033 21.4254L14.8705 13.4804L6.85024 5.53648ZM7.55943 22.1306C7.83353 22.1842 8.16241 22.1207 8.51521 21.9225L18.0025 16.5827L15.581 14.1842L7.55943 22.1306ZM18.9091 16.0731L21.7851 14.4546C22.7357 13.9188 22.7357 13.0433 21.7851 12.5081L18.9077 10.8886L16.2914 13.4804L18.9091 16.0731ZM18.0016 10.3787L8.51521 5.0395C8.16235 4.8409 7.83342 4.77751 7.5593 4.83129L15.5809 12.7766L18.0016 10.3787Z" fill="white"/>
</svg>
