<svg width="1003" height="138" viewBox="0 0 1003 138" fill="none" xmlns="http://www.w3.org/2000/svg">
<path d="M12.18 100.72V102H2.28V88H11.88V89.28H3.76V94.26H11V95.52H3.76V100.72H12.18ZM20.8059 101.36C20.5393 101.6 20.2059 101.787 19.8059 101.92C19.4193 102.04 19.0126 102.1 18.5859 102.1C17.5993 102.1 16.8393 101.833 16.3059 101.3C15.7726 100.767 15.5059 100.013 15.5059 99.04V92.68H13.6259V91.48H15.5059V89.18H16.9259V91.48H20.1259V92.68H16.9259V98.96C16.9259 99.5867 17.0793 100.067 17.3859 100.4C17.7059 100.72 18.1593 100.88 18.7459 100.88C19.0393 100.88 19.3193 100.833 19.5859 100.74C19.8659 100.647 20.1059 100.513 20.3059 100.34L20.8059 101.36ZM27.2709 91.4C28.6443 91.4 29.6976 91.7467 30.4309 92.44C31.1643 93.12 31.5309 94.1333 31.5309 95.48V102H30.1709V100.36C29.8509 100.907 29.3776 101.333 28.7509 101.64C28.1376 101.947 27.4043 102.1 26.5509 102.1C25.3776 102.1 24.4443 101.82 23.7509 101.26C23.0576 100.7 22.7109 99.96 22.7109 99.04C22.7109 98.1467 23.0309 97.4267 23.6709 96.88C24.3243 96.3333 25.3576 96.06 26.7709 96.06H30.1109V95.42C30.1109 94.5133 29.8576 93.8267 29.3509 93.36C28.8443 92.88 28.1043 92.64 27.1309 92.64C26.4643 92.64 25.8243 92.7533 25.2109 92.98C24.5976 93.1933 24.0709 93.4933 23.6309 93.88L22.9909 92.82C23.5243 92.3667 24.1643 92.02 24.9109 91.78C25.6576 91.5267 26.4443 91.4 27.2709 91.4ZM26.7709 100.98C27.5709 100.98 28.2576 100.8 28.8309 100.44C29.4043 100.067 29.8309 99.5333 30.1109 98.84V97.12H26.8109C25.0109 97.12 24.1109 97.7467 24.1109 99C24.1109 99.6133 24.3443 100.1 24.8109 100.46C25.2776 100.807 25.9309 100.98 26.7709 100.98ZM41.0078 91.4C41.9945 91.4 42.8878 91.6267 43.6878 92.08C44.4878 92.52 45.1145 93.1467 45.5678 93.96C46.0211 94.7733 46.2478 95.7 46.2478 96.74C46.2478 97.7933 46.0211 98.7267 45.5678 99.54C45.1145 100.353 44.4878 100.987 43.6878 101.44C42.9011 101.88 42.0078 102.1 41.0078 102.1C40.1545 102.1 39.3811 101.927 38.6878 101.58C38.0078 101.22 37.4478 100.7 37.0078 100.02V105.88H35.5878V91.48H36.9478V93.56C37.3745 92.8667 37.9345 92.3333 38.6278 91.96C39.3345 91.5867 40.1278 91.4 41.0078 91.4ZM40.9078 100.84C41.6411 100.84 42.3078 100.673 42.9078 100.34C43.5078 99.9933 43.9745 99.5067 44.3078 98.88C44.6545 98.2533 44.8278 97.54 44.8278 96.74C44.8278 95.94 44.6545 95.2333 44.3078 94.62C43.9745 93.9933 43.5078 93.5067 42.9078 93.16C42.3078 92.8133 41.6411 92.64 40.9078 92.64C40.1611 92.64 39.4878 92.8133 38.8878 93.16C38.3011 93.5067 37.8345 93.9933 37.4878 94.62C37.1545 95.2333 36.9878 95.94 36.9878 96.74C36.9878 97.54 37.1545 98.2533 37.4878 98.88C37.8345 99.5067 38.3011 99.9933 38.8878 100.34C39.4878 100.673 40.1611 100.84 40.9078 100.84ZM58.5025 97.18H49.7025C49.7825 98.2733 50.2025 99.16 50.9625 99.84C51.7225 100.507 52.6825 100.84 53.8425 100.84C54.4958 100.84 55.0958 100.727 55.6425 100.5C56.1892 100.26 56.6625 99.9133 57.0625 99.46L57.8625 100.38C57.3958 100.94 56.8092 101.367 56.1025 101.66C55.4092 101.953 54.6425 102.1 53.8025 102.1C52.7225 102.1 51.7625 101.873 50.9225 101.42C50.0958 100.953 49.4492 100.313 48.9825 99.5C48.5158 98.6867 48.2825 97.7667 48.2825 96.74C48.2825 95.7133 48.5025 94.7933 48.9425 93.98C49.3958 93.1667 50.0092 92.5333 50.7825 92.08C51.5692 91.6267 52.4492 91.4 53.4225 91.4C54.3958 91.4 55.2692 91.6267 56.0425 92.08C56.8158 92.5333 57.4225 93.1667 57.8625 93.98C58.3025 94.78 58.5225 95.7 58.5225 96.74L58.5025 97.18ZM53.4225 92.62C52.4092 92.62 51.5558 92.9467 50.8625 93.6C50.1825 94.24 49.7958 95.08 49.7025 96.12H57.1625C57.0692 95.08 56.6758 94.24 55.9825 93.6C55.3025 92.9467 54.4492 92.62 53.4225 92.62ZM69.9872 88V102H68.5472V89.28H65.2472V88H69.9872Z" fill="#263238"/>
<path d="M452.18 100.72V102H442.28V88H451.88V89.28H443.76V94.26H451V95.52H443.76V100.72H452.18ZM460.806 101.36C460.539 101.6 460.206 101.787 459.806 101.92C459.419 102.04 459.013 102.1 458.586 102.1C457.599 102.1 456.839 101.833 456.306 101.3C455.773 100.767 455.506 100.013 455.506 99.04V92.68H453.626V91.48H455.506V89.18H456.926V91.48H460.126V92.68H456.926V98.96C456.926 99.5867 457.079 100.067 457.386 100.4C457.706 100.72 458.159 100.88 458.746 100.88C459.039 100.88 459.319 100.833 459.586 100.74C459.866 100.647 460.106 100.513 460.306 100.34L460.806 101.36ZM467.271 91.4C468.644 91.4 469.698 91.7467 470.431 92.44C471.164 93.12 471.531 94.1333 471.531 95.48V102H470.171V100.36C469.851 100.907 469.378 101.333 468.751 101.64C468.138 101.947 467.404 102.1 466.551 102.1C465.378 102.1 464.444 101.82 463.751 101.26C463.058 100.7 462.711 99.96 462.711 99.04C462.711 98.1467 463.031 97.4267 463.671 96.88C464.324 96.3333 465.358 96.06 466.771 96.06H470.111V95.42C470.111 94.5133 469.858 93.8267 469.351 93.36C468.844 92.88 468.104 92.64 467.131 92.64C466.464 92.64 465.824 92.7533 465.211 92.98C464.598 93.1933 464.071 93.4933 463.631 93.88L462.991 92.82C463.524 92.3667 464.164 92.02 464.911 91.78C465.658 91.5267 466.444 91.4 467.271 91.4ZM466.771 100.98C467.571 100.98 468.258 100.8 468.831 100.44C469.404 100.067 469.831 99.5333 470.111 98.84V97.12H466.811C465.011 97.12 464.111 97.7467 464.111 99C464.111 99.6133 464.344 100.1 464.811 100.46C465.278 100.807 465.931 100.98 466.771 100.98ZM481.008 91.4C481.994 91.4 482.888 91.6267 483.688 92.08C484.488 92.52 485.114 93.1467 485.568 93.96C486.021 94.7733 486.248 95.7 486.248 96.74C486.248 97.7933 486.021 98.7267 485.568 99.54C485.114 100.353 484.488 100.987 483.688 101.44C482.901 101.88 482.008 102.1 481.008 102.1C480.154 102.1 479.381 101.927 478.688 101.58C478.008 101.22 477.448 100.7 477.008 100.02V105.88H475.588V91.48H476.948V93.56C477.374 92.8667 477.934 92.3333 478.628 91.96C479.334 91.5867 480.128 91.4 481.008 91.4ZM480.908 100.84C481.641 100.84 482.308 100.673 482.908 100.34C483.508 99.9933 483.974 99.5067 484.308 98.88C484.654 98.2533 484.828 97.54 484.828 96.74C484.828 95.94 484.654 95.2333 484.308 94.62C483.974 93.9933 483.508 93.5067 482.908 93.16C482.308 92.8133 481.641 92.64 480.908 92.64C480.161 92.64 479.488 92.8133 478.888 93.16C478.301 93.5067 477.834 93.9933 477.488 94.62C477.154 95.2333 476.988 95.94 476.988 96.74C476.988 97.54 477.154 98.2533 477.488 98.88C477.834 99.5067 478.301 99.9933 478.888 100.34C479.488 100.673 480.161 100.84 480.908 100.84ZM498.503 97.18H489.702C489.782 98.2733 490.202 99.16 490.962 99.84C491.722 100.507 492.682 100.84 493.842 100.84C494.496 100.84 495.096 100.727 495.642 100.5C496.189 100.26 496.662 99.9133 497.062 99.46L497.862 100.38C497.396 100.94 496.809 101.367 496.102 101.66C495.409 101.953 494.642 102.1 493.802 102.1C492.722 102.1 491.762 101.873 490.922 101.42C490.096 100.953 489.449 100.313 488.982 99.5C488.516 98.6867 488.282 97.7667 488.282 96.74C488.282 95.7133 488.502 94.7933 488.942 93.98C489.396 93.1667 490.009 92.5333 490.782 92.08C491.569 91.6267 492.449 91.4 493.422 91.4C494.396 91.4 495.269 91.6267 496.042 92.08C496.816 92.5333 497.422 93.1667 497.862 93.98C498.302 94.78 498.522 95.7 498.522 96.74L498.503 97.18ZM493.422 92.62C492.409 92.62 491.556 92.9467 490.862 93.6C490.182 94.24 489.796 95.08 489.702 96.12H497.162C497.069 95.08 496.676 94.24 495.982 93.6C495.302 92.9467 494.449 92.62 493.422 92.62ZM515.667 100.72V102H505.847V100.98L511.667 95.28C512.401 94.56 512.894 93.94 513.147 93.42C513.414 92.8867 513.547 92.3533 513.547 91.82C513.547 90.9933 513.261 90.3533 512.687 89.9C512.127 89.4333 511.321 89.2 510.267 89.2C508.627 89.2 507.354 89.72 506.447 90.76L505.427 89.88C505.974 89.24 506.667 88.7467 507.507 88.4C508.361 88.0533 509.321 87.88 510.387 87.88C511.814 87.88 512.941 88.22 513.767 88.9C514.607 89.5667 515.027 90.4867 515.027 91.66C515.027 92.38 514.867 93.0733 514.547 93.74C514.227 94.4067 513.621 95.1733 512.727 96.04L507.967 100.72H515.667Z" fill="#263238"/>
<path d="M897.28 95H898.76V109H897.28V95ZM908.575 98.4C909.895 98.4 910.942 98.7867 911.715 99.56C912.502 100.32 912.895 101.433 912.895 102.9V109H911.475V103.04C911.475 101.947 911.202 101.113 910.655 100.54C910.108 99.9667 909.328 99.68 908.315 99.68C907.182 99.68 906.282 100.02 905.615 100.7C904.962 101.367 904.635 102.293 904.635 103.48V109H903.215V98.48H904.575V100.42C904.962 99.78 905.495 99.2867 906.175 98.94C906.868 98.58 907.668 98.4 908.575 98.4ZM919.77 109.1C918.917 109.1 918.097 108.98 917.31 108.74C916.537 108.487 915.93 108.173 915.49 107.8L916.13 106.68C916.57 107.027 917.124 107.313 917.79 107.54C918.457 107.753 919.15 107.86 919.87 107.86C920.83 107.86 921.537 107.713 921.99 107.42C922.457 107.113 922.69 106.687 922.69 106.14C922.69 105.753 922.564 105.453 922.31 105.24C922.057 105.013 921.737 104.847 921.35 104.74C920.964 104.62 920.45 104.507 919.81 104.4C918.957 104.24 918.27 104.08 917.75 103.92C917.23 103.747 916.784 103.46 916.41 103.06C916.05 102.66 915.87 102.107 915.87 101.4C915.87 100.52 916.237 99.8 916.97 99.24C917.704 98.68 918.724 98.4 920.03 98.4C920.71 98.4 921.39 98.4933 922.07 98.68C922.75 98.8533 923.31 99.0867 923.75 99.38L923.13 100.52C922.264 99.92 921.23 99.62 920.03 99.62C919.124 99.62 918.437 99.78 917.97 100.1C917.517 100.42 917.29 100.84 917.29 101.36C917.29 101.76 917.417 102.08 917.67 102.32C917.937 102.56 918.264 102.74 918.65 102.86C919.037 102.967 919.57 103.08 920.25 103.2C921.09 103.36 921.764 103.52 922.27 103.68C922.777 103.84 923.21 104.113 923.57 104.5C923.93 104.887 924.11 105.42 924.11 106.1C924.11 107.02 923.724 107.753 922.95 108.3C922.19 108.833 921.13 109.1 919.77 109.1ZM931.295 109.1C930.255 109.1 929.322 108.873 928.495 108.42C927.682 107.967 927.042 107.333 926.575 106.52C926.109 105.693 925.875 104.767 925.875 103.74C925.875 102.713 926.109 101.793 926.575 100.98C927.042 100.167 927.682 99.5333 928.495 99.08C929.322 98.6267 930.255 98.4 931.295 98.4C932.202 98.4 933.009 98.58 933.715 98.94C934.435 99.2867 935.002 99.8 935.415 100.48L934.355 101.2C934.009 100.68 933.569 100.293 933.035 100.04C932.502 99.7733 931.922 99.64 931.295 99.64C930.535 99.64 929.849 99.8133 929.235 100.16C928.635 100.493 928.162 100.973 927.815 101.6C927.482 102.227 927.315 102.94 927.315 103.74C927.315 104.553 927.482 105.273 927.815 105.9C928.162 106.513 928.635 106.993 929.235 107.34C929.849 107.673 930.535 107.84 931.295 107.84C931.922 107.84 932.502 107.713 933.035 107.46C933.569 107.207 934.009 106.82 934.355 106.3L935.415 107.02C935.002 107.7 934.435 108.22 933.715 108.58C932.995 108.927 932.189 109.1 931.295 109.1ZM939.765 100.54C940.098 99.8333 940.592 99.3 941.245 98.94C941.912 98.58 942.732 98.4 943.705 98.4V99.78L943.365 99.76C942.258 99.76 941.392 100.1 940.765 100.78C940.138 101.46 939.825 102.413 939.825 103.64V109H938.405V98.48H939.765V100.54ZM946.476 98.48H947.896V109H946.476V98.48ZM947.196 96.18C946.903 96.18 946.656 96.08 946.456 95.88C946.256 95.68 946.156 95.44 946.156 95.16C946.156 94.8933 946.256 94.66 946.456 94.46C946.656 94.26 946.903 94.16 947.196 94.16C947.489 94.16 947.736 94.26 947.936 94.46C948.136 94.6467 948.236 94.8733 948.236 95.14C948.236 95.4333 948.136 95.68 947.936 95.88C947.736 96.08 947.489 96.18 947.196 96.18ZM957.467 98.4C958.454 98.4 959.347 98.6267 960.147 99.08C960.947 99.52 961.574 100.147 962.027 100.96C962.481 101.773 962.707 102.7 962.707 103.74C962.707 104.793 962.481 105.727 962.027 106.54C961.574 107.353 960.947 107.987 960.147 108.44C959.361 108.88 958.467 109.1 957.467 109.1C956.614 109.1 955.841 108.927 955.147 108.58C954.467 108.22 953.907 107.7 953.467 107.02V112.88H952.047V98.48H953.407V100.56C953.834 99.8667 954.394 99.3333 955.087 98.96C955.794 98.5867 956.587 98.4 957.467 98.4ZM957.367 107.84C958.101 107.84 958.767 107.673 959.367 107.34C959.967 106.993 960.434 106.507 960.767 105.88C961.114 105.253 961.287 104.54 961.287 103.74C961.287 102.94 961.114 102.233 960.767 101.62C960.434 100.993 959.967 100.507 959.367 100.16C958.767 99.8133 958.101 99.64 957.367 99.64C956.621 99.64 955.947 99.8133 955.347 100.16C954.761 100.507 954.294 100.993 953.947 101.62C953.614 102.233 953.447 102.94 953.447 103.74C953.447 104.54 953.614 105.253 953.947 105.88C954.294 106.507 954.761 106.993 955.347 107.34C955.947 107.673 956.621 107.84 957.367 107.84ZM971.342 108.36C971.075 108.6 970.742 108.787 970.342 108.92C969.955 109.04 969.549 109.1 969.122 109.1C968.135 109.1 967.375 108.833 966.842 108.3C966.309 107.767 966.042 107.013 966.042 106.04V99.68H964.162V98.48H966.042V96.18H967.462V98.48H970.662V99.68H967.462V105.96C967.462 106.587 967.615 107.067 967.922 107.4C968.242 107.72 968.695 107.88 969.282 107.88C969.575 107.88 969.855 107.833 970.122 107.74C970.402 107.647 970.642 107.513 970.842 107.34L971.342 108.36ZM974.127 98.48H975.547V109H974.127V98.48ZM974.847 96.18C974.554 96.18 974.307 96.08 974.107 95.88C973.907 95.68 973.807 95.44 973.807 95.16C973.807 94.8933 973.907 94.66 974.107 94.46C974.307 94.26 974.554 94.16 974.847 94.16C975.14 94.16 975.387 94.26 975.587 94.46C975.787 94.6467 975.887 94.8733 975.887 95.14C975.887 95.4333 975.787 95.68 975.587 95.88C975.387 96.08 975.14 96.18 974.847 96.18ZM983.998 109.1C982.985 109.1 982.071 108.873 981.258 108.42C980.445 107.953 979.805 107.313 979.338 106.5C978.871 105.687 978.638 104.767 978.638 103.74C978.638 102.713 978.871 101.793 979.338 100.98C979.805 100.167 980.445 99.5333 981.258 99.08C982.071 98.6267 982.985 98.4 983.998 98.4C985.011 98.4 985.925 98.6267 986.738 99.08C987.551 99.5333 988.185 100.167 988.638 100.98C989.105 101.793 989.338 102.713 989.338 103.74C989.338 104.767 989.105 105.687 988.638 106.5C988.185 107.313 987.551 107.953 986.738 108.42C985.925 108.873 985.011 109.1 983.998 109.1ZM983.998 107.84C984.745 107.84 985.411 107.673 985.998 107.34C986.598 106.993 987.065 106.507 987.398 105.88C987.731 105.253 987.898 104.54 987.898 103.74C987.898 102.94 987.731 102.227 987.398 101.6C987.065 100.973 986.598 100.493 985.998 100.16C985.411 99.8133 984.745 99.64 983.998 99.64C983.251 99.64 982.578 99.8133 981.978 100.16C981.391 100.493 980.925 100.973 980.578 101.6C980.245 102.227 980.078 102.94 980.078 103.74C980.078 104.54 980.245 105.253 980.578 105.88C980.925 106.507 981.391 106.993 981.978 107.34C982.578 107.673 983.251 107.84 983.998 107.84ZM997.797 98.4C999.117 98.4 1000.16 98.7867 1000.94 99.56C1001.72 100.32 1002.12 101.433 1002.12 102.9V109H1000.7V103.04C1000.7 101.947 1000.42 101.113 999.877 100.54C999.33 99.9667 998.55 99.68 997.537 99.68C996.404 99.68 995.504 100.02 994.837 100.7C994.184 101.367 993.857 102.293 993.857 103.48V109H992.437V98.48H993.797V100.42C994.184 99.78 994.717 99.2867 995.397 98.94C996.09 98.58 996.89 98.4 997.797 98.4ZM905.894 123.26C905.281 123.26 904.814 123.427 904.494 123.76C904.188 124.093 904.034 124.587 904.034 125.24V126.48H907.274V127.68H904.074V137H902.654V127.68H900.774V126.48H902.654V125.18C902.654 124.22 902.928 123.46 903.474 122.9C904.034 122.34 904.821 122.06 905.834 122.06C906.234 122.06 906.621 122.12 906.994 122.24C907.368 122.347 907.681 122.507 907.934 122.72L907.454 123.78C907.041 123.433 906.521 123.26 905.894 123.26ZM910.794 126.48H912.214V137H910.794V126.48ZM911.514 124.18C911.221 124.18 910.974 124.08 910.774 123.88C910.574 123.68 910.474 123.44 910.474 123.16C910.474 122.893 910.574 122.66 910.774 122.46C910.974 122.26 911.221 122.16 911.514 122.16C911.808 122.16 912.054 122.26 912.254 122.46C912.454 122.647 912.554 122.873 912.554 123.14C912.554 123.433 912.454 123.68 912.254 123.88C912.054 124.08 911.808 124.18 911.514 124.18ZM921.744 126.4C923.064 126.4 924.111 126.787 924.884 127.56C925.671 128.32 926.064 129.433 926.064 130.9V137H924.644V131.04C924.644 129.947 924.371 129.113 923.824 128.54C923.277 127.967 922.497 127.68 921.484 127.68C920.351 127.68 919.451 128.02 918.784 128.7C918.131 129.367 917.804 130.293 917.804 131.48V137H916.384V126.48H917.744V128.42C918.131 127.78 918.664 127.287 919.344 126.94C920.037 126.58 920.837 126.4 921.744 126.4ZM933.799 126.4C935.172 126.4 936.226 126.747 936.959 127.44C937.692 128.12 938.059 129.133 938.059 130.48V137H936.699V135.36C936.379 135.907 935.906 136.333 935.279 136.64C934.666 136.947 933.932 137.1 933.079 137.1C931.906 137.1 930.972 136.82 930.279 136.26C929.586 135.7 929.239 134.96 929.239 134.04C929.239 133.147 929.559 132.427 930.199 131.88C930.852 131.333 931.886 131.06 933.299 131.06H936.639V130.42C936.639 129.513 936.386 128.827 935.879 128.36C935.372 127.88 934.632 127.64 933.659 127.64C932.992 127.64 932.352 127.753 931.739 127.98C931.126 128.193 930.599 128.493 930.159 128.88L929.519 127.82C930.052 127.367 930.692 127.02 931.439 126.78C932.186 126.527 932.972 126.4 933.799 126.4ZM933.299 135.98C934.099 135.98 934.786 135.8 935.359 135.44C935.932 135.067 936.359 134.533 936.639 133.84V132.12H933.339C931.539 132.12 930.639 132.747 930.639 134C930.639 134.613 930.872 135.1 931.339 135.46C931.806 135.807 932.459 135.98 933.299 135.98ZM942.116 122.16H943.536V137H942.116V122.16ZM947.687 126.48H949.107V137H947.687V126.48ZM948.407 124.18C948.114 124.18 947.867 124.08 947.667 123.88C947.467 123.68 947.367 123.44 947.367 123.16C947.367 122.893 947.467 122.66 947.667 122.46C947.867 122.26 948.114 122.16 948.407 122.16C948.7 122.16 948.947 122.26 949.147 122.46C949.347 122.647 949.447 122.873 949.447 123.14C949.447 123.433 949.347 123.68 949.147 123.88C948.947 124.08 948.7 124.18 948.407 124.18ZM956.078 137.1C955.225 137.1 954.405 136.98 953.618 136.74C952.845 136.487 952.238 136.173 951.798 135.8L952.438 134.68C952.878 135.027 953.431 135.313 954.098 135.54C954.765 135.753 955.458 135.86 956.178 135.86C957.138 135.86 957.845 135.713 958.298 135.42C958.765 135.113 958.998 134.687 958.998 134.14C958.998 133.753 958.871 133.453 958.618 133.24C958.365 133.013 958.045 132.847 957.658 132.74C957.271 132.62 956.758 132.507 956.118 132.4C955.265 132.24 954.578 132.08 954.058 131.92C953.538 131.747 953.091 131.46 952.718 131.06C952.358 130.66 952.178 130.107 952.178 129.4C952.178 128.52 952.545 127.8 953.278 127.24C954.011 126.68 955.031 126.4 956.338 126.4C957.018 126.4 957.698 126.493 958.378 126.68C959.058 126.853 959.618 127.087 960.058 127.38L959.438 128.52C958.571 127.92 957.538 127.62 956.338 127.62C955.431 127.62 954.745 127.78 954.278 128.1C953.825 128.42 953.598 128.84 953.598 129.36C953.598 129.76 953.725 130.08 953.978 130.32C954.245 130.56 954.571 130.74 954.958 130.86C955.345 130.967 955.878 131.08 956.558 131.2C957.398 131.36 958.071 131.52 958.578 131.68C959.085 131.84 959.518 132.113 959.878 132.5C960.238 132.887 960.418 133.42 960.418 134.1C960.418 135.02 960.031 135.753 959.258 136.3C958.498 136.833 957.438 137.1 956.078 137.1ZM972.403 132.18H963.603C963.683 133.273 964.103 134.16 964.863 134.84C965.623 135.507 966.583 135.84 967.743 135.84C968.397 135.84 968.997 135.727 969.543 135.5C970.09 135.26 970.563 134.913 970.963 134.46L971.763 135.38C971.297 135.94 970.71 136.367 970.003 136.66C969.31 136.953 968.543 137.1 967.703 137.1C966.623 137.1 965.663 136.873 964.823 136.42C963.997 135.953 963.35 135.313 962.883 134.5C962.417 133.687 962.183 132.767 962.183 131.74C962.183 130.713 962.403 129.793 962.843 128.98C963.297 128.167 963.91 127.533 964.683 127.08C965.47 126.627 966.35 126.4 967.323 126.4C968.297 126.4 969.17 126.627 969.943 127.08C970.717 127.533 971.323 128.167 971.763 128.98C972.203 129.78 972.423 130.7 972.423 131.74L972.403 132.18ZM967.323 127.62C966.31 127.62 965.457 127.947 964.763 128.6C964.083 129.24 963.697 130.08 963.603 131.12H971.063C970.97 130.08 970.577 129.24 969.883 128.6C969.203 127.947 968.35 127.62 967.323 127.62ZM968.763 122.36H970.663L967.423 124.84H966.023L968.763 122.36ZM984.674 132.18H975.874C975.954 133.273 976.374 134.16 977.134 134.84C977.894 135.507 978.854 135.84 980.014 135.84C980.667 135.84 981.267 135.727 981.814 135.5C982.36 135.26 982.834 134.913 983.234 134.46L984.034 135.38C983.567 135.94 982.98 136.367 982.274 136.66C981.58 136.953 980.814 137.1 979.974 137.1C978.894 137.1 977.934 136.873 977.094 136.42C976.267 135.953 975.62 135.313 975.154 134.5C974.687 133.687 974.454 132.767 974.454 131.74C974.454 130.713 974.674 129.793 975.114 128.98C975.567 128.167 976.18 127.533 976.954 127.08C977.74 126.627 978.62 126.4 979.594 126.4C980.567 126.4 981.44 126.627 982.214 127.08C982.987 127.533 983.594 128.167 984.034 128.98C984.474 129.78 984.694 130.7 984.694 131.74L984.674 132.18ZM979.594 127.62C978.58 127.62 977.727 127.947 977.034 128.6C976.354 129.24 975.967 130.08 975.874 131.12H983.334C983.24 130.08 982.847 129.24 982.154 128.6C981.474 127.947 980.62 127.62 979.594 127.62Z" fill="#263238"/>
<line x1="5" y1="30" x2="959" y2="30" stroke="#C32530" stroke-width="10" stroke-linecap="round"/>
<circle cx="30" cy="30" r="30" fill="#C32530"/>
<circle cx="482" cy="30" r="30" fill="#C32530"/>
<circle cx="934" cy="30" r="28.5" fill="white" stroke="#C32530" stroke-width="3"/>
</svg>
